<svg xmlns="http://www.w3.org/2000/svg" width="3470.38" height="2400"><style>.st23{fill:#072351}.st21{fill:#397cf2}.st22{fill:#f6a538}.st0{fill:#eef2f9}.st2{fill:#fff}.st16{fill:#f9c89a}.st17{fill:#f39f5f}.st4{fill:#f3f6fc}.st3{fill:#8fc0fa}.st6{fill:#4e95e5}.st12{fill:#f8bc3e}.st5{fill:#c7defe}.st13{fill:#f5b400}.st10{fill:#ca1017}.st7{fill:#2946fb}.st11{fill:#f47722}</style><path class="st0" d="M1309.52 2375.57S117.67 2313.75 212.28 1061.36C306.88-191.03 1537.99-179.18 1939.4 300.73c401.41 479.92 1325.78 231.33 1283.41 1118.51-42.37 887.17-1274.36 1053.17-1913.29 956.33"/><path d="M1327.51 1602.31s-3.22 3.86-9.37 10.4m-19.67 19.76c-41.62 39.63-125.07 106.87-231.42 129.45-204.89 43.49-482.45-30.74-589.2-318.42C290.69 939.1 871.48 157.34 1744.59 277.35c873.11 120.01 755.61 655.55 703.66 1085.61-50.57 418.65 697.67 525.5 911.56 258.13m8.43-11.12c2.72-3.79 5.34-7.65 7.85-11.58" stroke="#8fc0fa" fill="none" stroke-width="5"/><path class="st2" d="M3165.56 2041.65H1826.24c-52.15 0-94.43-42.28-94.43-94.44v-847.92c0-52.15 42.28-94.43 94.43-94.43h1339.32c52.15 0 94.43 42.28 94.43 94.43v847.92c0 52.16-42.28 94.44-94.43 94.44"/><path class="st3" d="M3150.11-812.63h-338.14v262.66h338.14z"/><path class="st4" d="M3063.42 1363.23c0 10.74-2.02 21.02-5.81 30.49-12.09 30.75-42.08 52.49-77.17 52.49-.71 0-1.43-.04-2.1-.09-44.86-1.05-80.88-37.78-80.88-82.89 0-24.31 10.45-46.17 27.09-61.29 14.74-13.48 34.37-21.69 55.89-21.69 30.71 0 57.5 16.64 71.82 41.45 7.12 12.17 11.16 26.37 11.16 41.53m58.38 0c0-26.07-7.08-50.5-19.38-71.44-24.55-41.83-70-69.92-121.98-69.92-36.48 0-69.71 13.82-94.73 36.52-28.64 25.86-46.59 63.22-46.59 104.84 0 78.05 63.27 141.32 141.32 141.32 59.98 0 111.29-37.41 131.8-90.14 6.19-15.88 9.56-33.15 9.56-51.18"/><path class="st5" d="M2980.44 1504.55v-58.34c-.72 0-1.43-.04-2.1-.09-44.86-1.05-80.88-37.78-80.88-82.89 0-24.3 10.45-46.17 27.09-61.29l-38.84-43.55c-28.64 25.86-46.59 63.22-46.59 104.84 0 78.05 63.27 141.32 141.32 141.32"/><path class="st6" d="M3121.79 1363.22c0-26.06-7.07-50.51-19.35-71.45l-50.19 29.92c7.13 12.19 11.17 26.38 11.17 41.53 0 10.76-2.04 21.04-5.79 30.49l54.61 20.69c6.17-15.88 9.55-33.13 9.55-51.18"/><path class="st3" d="M3102.44 1291.77c-24.57-41.82-70.02-69.89-121.99-69.89-36.48 0-69.7 13.82-94.75 36.51l38.86 43.54c14.73-13.47 34.34-21.68 55.89-21.68 30.68 0 57.47 16.65 71.8 41.44z"/><path class="st5" d="M1867.74 1767.74h320.5c9.45 0 17.12-7.66 17.12-17.12 0-9.45-7.67-17.12-17.12-17.12h-320.5c-9.46 0-17.12 7.67-17.12 17.12 0 9.46 7.66 17.12 17.12 17.12m-17.12-75.89v.51c0 9.31 7.55 16.86 16.86 16.86h321.01c9.32 0 16.87-7.55 16.87-16.86v-.51c0-9.32-7.55-16.87-16.87-16.87h-321.01c-9.31 0-16.86 7.55-16.86 16.87m337.87-75.38h-321.01c-9.31 0-16.86 7.55-16.86 16.86v.51c0 9.31 7.55 16.86 16.86 16.86h321.01c9.32 0 16.87-7.55 16.87-16.86v-.51c0-9.31-7.55-16.86-16.87-16.86m-337.87-41.15v-.51c0-9.31 7.5-16.86 16.81-16.86h321.11c9.31 0 16.82 7.55 16.82 16.86v.51c0 9.32-7.55 16.86-16.87 16.86h-321.01c-9.31 0-16.86-7.55-16.86-16.86"/><path class="st4" d="M2199.7 1524.76h-343.43a5.65 5.65 0 01-5.65-5.65v-277.68a5.65 5.65 0 015.65-5.65h343.43c3.13 0 5.66 2.53 5.66 5.65v277.68c0 3.12-2.53 5.65-5.66 5.65"/><path class="st6" d="M1948.42 1489.9l170.94-89.33c9.43-4.93 20.79-4.4 29.73 1.37l158.93 102.61v29.34h-360.81z"/><path class="st3" d="M1834.55 1459.55l114.07-92.11c10.33-8.34 24.96-8.77 35.77-1.05l226.33 161.82h-383.04z"/><path class="st5" d="M2104.61 1311.16c0 18.38-14.9 33.28-33.28 33.28-18.38 0-33.27-14.9-33.27-33.28 0-18.37 14.89-33.27 33.27-33.27 18.38 0 33.28 14.9 33.28 33.27"/><path class="st0" d="M2940.16 1772.95v-113.11c0-9.06 10.07-14.49 17.65-9.52l85.02 55.84c6.81 4.47 6.87 14.42.11 18.97l-85.02 57.27c-7.57 5.09-17.76-.33-17.76-9.45"/><path class="st7" d="M3247.21 1987.77c0 23.25-20.6 42.16-45.91 42.16H1790.5c-2.79 0-5.51-.23-8.15-.68-21.44-3.54-37.76-20.79-37.76-41.48v-915.9h1502.62zm-6.83-1056.48c-10.52-8.28-24.17-13.29-39.08-13.29H1790.5c-33.19 0-60.19 24.8-60.19 55.26v1014.51c0 24.91 18.03 46 42.73 52.88a65.026 65.026 0 0017.46 2.38h1410.8c33.18 0 60.19-24.78 60.19-55.26V973.26c0-16.79-8.19-31.84-21.11-41.97"/><path class="st2" d="M2923.26 1033.39h-646.54c-20.84 0-37.73-15.51-37.73-34.64 0-19.13 16.89-34.64 37.73-34.64h646.54c20.84 0 37.74 15.51 37.74 34.64 0 19.13-16.9 34.64-37.74 34.64m-1133.04-15.32c-1.84 0-3.68-.64-5.09-1.93-2.81-2.58-2.81-6.77 0-9.35l34.51-31.68c2.8-2.57 7.37-2.57 10.18 0 2.81 2.58 2.81 6.77 0 9.35l-34.51 31.68c-1.4 1.29-3.25 1.93-5.09 1.93"/><path class="st2" d="M1824.73 1018.07c-1.84 0-3.69-.64-5.09-1.93l-34.51-31.68c-2.81-2.58-2.81-6.77 0-9.35 2.81-2.57 7.38-2.57 10.18 0l34.51 31.68c2.81 2.58 2.81 6.77 0 9.35-1.41 1.29-3.25 1.93-5.09 1.93m136.78-22.44c0-5.1 4.51-9.24 10.06-9.24 5.54 0 10.04 4.14 10.04 9.24 0 5.08-4.5 9.22-10.04 9.22-5.55 0-10.06-4.14-10.06-9.22m10.06-22.45c-13.49 0-24.46 10.07-24.46 22.45 0 3.28.78 6.41 2.17 9.22 3.84 7.79 12.38 13.22 22.29 13.22 9.89 0 18.44-5.43 22.27-13.22 1.4-2.81 2.17-5.94 2.17-9.22 0-12.38-10.97-22.45-24.44-22.45m-65.78 29.05h-36.97c-3.97 0-7.2-2.95-7.2-6.6 0-3.65 3.23-6.61 7.2-6.61h36.97c3.97 0 7.2 2.96 7.2 6.61 0 3.65-3.23 6.6-7.2 6.6"/><path d="M1625.76 1685.11H638.24c-15.37 0-27.82-12.46-27.82-27.83v-486.43c0-15.37 12.45-27.82 27.82-27.82h987.52c15.36 0 27.82 12.45 27.82 27.82v486.43c0 15.37-12.46 27.83-27.82 27.83" fill="#627bf9"/><path class="st2" d="M1633.93-1152.88H629.37v417.5h1004.56zm-954.57 2372.1c-1.8 0-3.6-.63-4.97-1.89-2.74-2.52-2.74-6.6 0-9.12l33.66-30.89c2.74-2.52 7.19-2.52 9.93 0 2.74 2.51 2.74 6.59 0 9.11l-33.66 30.9c-1.37 1.26-3.17 1.89-4.96 1.89"/><path class="st2" d="M713.01 1219.22c-1.79 0-3.59-.63-4.96-1.89l-33.66-30.9c-2.74-2.52-2.74-6.6 0-9.11 2.74-2.52 7.19-2.52 9.93 0l33.66 30.89c2.74 2.52 2.74 6.6 0 9.12-1.37 1.26-3.17 1.89-4.97 1.89m133.43-21.89c0-4.97 4.4-9.02 9.81-9.02 5.4 0 9.8 4.05 9.8 9.02 0 4.95-4.4 9-9.8 9-5.41 0-9.81-4.05-9.81-9m9.81-21.9c-13.16 0-23.86 9.82-23.86 21.9 0 3.2.76 6.25 2.12 9 3.74 7.59 12.07 12.89 21.74 12.89 9.65 0 17.98-5.3 21.72-12.89 1.36-2.75 2.12-5.8 2.12-9 0-12.08-10.7-21.9-23.84-21.9m-64.17 28.34h-36.06c-3.87 0-7.02-2.88-7.02-6.44 0-3.56 3.15-6.45 7.02-6.45h36.06c3.88 0 7.03 2.89 7.03 6.45s-3.15 6.44-7.03 6.44"/><path class="st5" d="M1554.92-1061.7h-514.75v17.56h514.75zm0 47.98h-514.75v17.56h514.75zm0 47.98h-514.75v17.56h514.75zm0 47.98h-514.75v17.56h514.75zm-245.3 47.99h-269.45v17.56h269.45z"/><path d="M718.69 1473.03c0-58.52 47.44-105.96 105.96-105.96 58.53 0 105.97 47.44 105.97 105.96 0 58.52-47.44 105.97-105.97 105.97-58.52 0-105.96-47.45-105.96-105.97z" stroke="#89000a" fill="none" stroke-width="3"/><path class="st0" d="M685.41 1453.68c0-63.73 51.66-115.39 115.39-115.39 63.73 0 115.39 51.66 115.39 115.39 0 63.73-51.66 115.39-115.39 115.39-63.73 0-115.39-51.66-115.39-115.39"/><path class="st10" d="M694.84 1453.68c0-58.52 47.44-105.97 105.96-105.97 58.53 0 105.97 47.45 105.97 105.97 0 58.52-47.44 105.96-105.97 105.96-58.52 0-105.96-47.44-105.96-105.96"/><path class="st11" d="M1489.5 135.86a98.298 98.298 0 0122.23 27.66 99.89 99.89 0 016.58 14.99c.52 1.53 1.01 3.05 1.45 4.58 14.71 50.42-12.66 104.01-62.85 121.29-2.31.79-4.62 1.49-6.94 2.1-49.72 13.2-101.92-14.1-118.92-63.51-4.96-14.4-6.41-29.16-4.79-43.35 3.92-34.49 25.91-65.59 59.42-79.9 2.21-.94 4.46-1.81 6.77-2.61 34.58-11.9 71.23-3.55 97.05 18.75"/><path class="st12" d="M1504.61 183.23c1.06 3.09 1.97 6.19 2.71 9.3 11.17 46.68-13 95.01-57.35 113.96-2.2.94-4.46 1.81-6.76 2.6-51.71 17.8-108.06-9.69-125.86-61.4-4.11-11.94-5.81-24.13-5.35-36.03 0-.01.01-.02.01-.04.28-7.45 1.42-14.79 3.34-21.9.05-.17.07-.26.07-.26 8.34-30.53 31.14-56.55 63.33-67.63 2.3-.8 4.62-1.5 6.93-2.11 49.72-13.2 101.92 14.1 118.93 63.51"/><path class="st13" d="M1486.08 189.61c14.27 41.47-7.77 86.67-49.25 100.95-41.48 14.27-86.67-7.78-100.95-49.25-14.27-41.48 7.77-86.67 49.25-100.95 41.47-14.27 86.67 7.77 100.95 49.25"/><path class="st11" d="M1342.92 243.58c-14.28-41.48 7.77-86.67 49.25-100.95 15.53-5.34 31.58-5.6 46.33-1.64-16.6-6.15-35.33-6.84-53.37-.63-41.48 14.28-63.52 59.47-49.25 100.95 8.09 23.49 26.09 40.73 47.72 48.69a79.453 79.453 0 01-26.41-21.2c-6.09-7.26-11-15.72-14.27-25.22"/><path class="st4" d="M1400.18 170.59l-2.95-8.56-8.72 3 2.95 8.56c-13.87 5.55-16.58 12.05-11.49 26.86 4.43 12.86 7.16 17.18 13.14 18.84 6.73 2.01 19.07 1.01 25.11 3.73 2.52 1.03 3.21 2.22 4.26 5.18.15.43.31.89.48 1.39 2.81 8.16 2.88 10.62-3.2 12.71-6.23 2.14-7.88-1.31-10.07-7.67-.62-1.8-.96-3.23-1.2-4.39l-15.36 5.29c.44 2.63 1.26 5.91 2.55 9.64 5.04 14.67 12.56 16.72 24.93 13.09l3.71 10.77 8.71-3-3.76-10.91c13.67-5.85 15.9-13.27 10.77-30.08-.44-1.44-.94-2.95-1.48-4.53-4.9-14.25-9.53-14.2-16.8-15.1-5.15-.56-10.65-.36-16.58-.95-5.42-.46-6.07-1.01-8.55-8.2-2.38-6.92-1.57-9.05 3.42-10.77 5.8-2 7.64.62 9.63 6.43.72 2.08 1.2 3.46 1.49 4.75l15.21-5.24c-.43-2.17-1.06-4.89-2.35-8.62-4.52-13.15-10.66-16.14-23.85-12.22"/><path class="st11" d="M2823.17 754.8c1.02 9.96.29 20.2-2.39 30.24v.01a84.722 84.722 0 01-4.7 13.18c-.56 1.25-1.16 2.49-1.78 3.7-20.42 39.99-68.87 57.27-110.22 38.59-1.9-.86-3.75-1.78-5.55-2.76-38.67-20.95-55.13-68.54-36.74-109.25 5.36-11.87 13.12-21.9 22.45-29.77 22.66-19.16 54.58-25.61 83.82-14.86 1.93.71 3.84 1.49 5.74 2.34 28.49 12.88 46.39 39.57 49.37 68.58"/><path class="st12" d="M2804.8 793.13c-1.15 2.54-2.41 5-3.77 7.38-20.43 35.58-63.81 51.48-102.5 37.25-1.93-.7-3.84-1.49-5.74-2.34-42.6-19.26-61.54-69.4-42.28-112.01a84.324 84.324 0 0117.8-25.55c.01 0 .01-.01.02-.02 4.55-4.47 9.57-8.37 14.93-11.66.13-.08.19-.12.19-.12 23.09-14.11 52.54-16.92 79.06-4.94 1.9.86 3.75 1.78 5.55 2.76 38.67 20.95 55.13 68.54 36.74 109.25"/><path class="st13" d="M2789.53 786.23c-15.45 34.17-55.67 49.36-89.84 33.91-34.17-15.44-49.35-55.66-33.91-89.83 15.44-34.17 55.66-49.36 89.83-33.91 34.17 15.44 49.36 55.66 33.92 89.83"/><path class="st11" d="M2668.82 735.85c15.44-34.17 55.66-49.36 89.84-33.92 12.79 5.79 22.92 15.04 29.78 26.15-6.72-13.55-17.97-24.97-32.83-31.68-34.17-15.45-74.39-.26-89.83 33.91-8.75 19.35-7.66 40.64 1.12 58.27-3.33-9.07-4.75-18.85-3.99-28.67.47-8.09 2.38-16.23 5.91-24.06"/><path class="st4" d="M2747.24 724.02l3.19-7.05-7.18-3.25-3.19 7.06c-11.88-4.68-17.38-2.23-22.89 9.97-4.79 10.6-5.63 14.88-2.88 19.42 3 5.21 11.27 11.82 13.43 17.05.97 2.12.7 3.26-.39 5.72-.15.36-.32.73-.51 1.15-3.04 6.73-4.44 8.29-9.45 6.03-5.13-2.32-4.13-5.44-1.76-10.68.67-1.49 1.29-2.57 1.82-3.44l-12.65-5.71c-1.27 1.9-2.68 4.41-4.07 7.49-5.46 12.08-1.99 17.77 7.83 22.76l-4.01 8.88 7.18 3.24 4.06-8.99c11.93 4.38 17.67 1.07 24.34-12.4a119.9 119.9 0 001.74-3.68c5.3-11.74 2.39-14.43-1.6-19.25-2.88-3.36-6.41-6.47-9.75-10.31-3.11-3.46-3.19-4.19-.51-10.12 2.57-5.7 4.33-6.55 8.43-4.69 4.79 2.16 4.39 4.86 2.23 9.65-.77 1.71-1.29 2.85-1.86 3.82l12.53 5.67c1-1.61 2.21-3.67 3.6-6.75 4.89-10.83 2.83-16.29-7.68-21.59"/><path class="st11" d="M514.8 1704.02a60.21 60.21 0 0117.26 26.24c.31.93.59 1.87.86 2.81 8.6 30.87-8.51 63.37-39.26 73.54-1.42.47-2.83.88-4.25 1.24-30.44 7.68-62.09-9.37-72.1-39.64-2.92-8.83-3.69-17.85-2.6-26.5 2.65-21.01 16.3-39.83 36.86-48.32 1.35-.55 2.73-1.07 4.14-1.53 21.19-7.01 43.5-1.64 59.09 12.16"/><path class="st12" d="M523.67 1733.04c.62 1.89 1.15 3.79 1.58 5.7 6.47 28.56-8.64 57.88-35.84 69.11-1.35.56-2.74 1.07-4.15 1.54-31.69 10.48-65.87-6.72-76.35-38.41a60.19 60.19 0 01-2.99-22.02v-.03c.23-4.54.98-9.02 2.2-13.34.03-.1.05-.16.05-.16 5.31-18.57 19.42-34.28 39.15-40.8 1.41-.47 2.83-.88 4.25-1.24 30.44-7.68 62.09 9.37 72.1 39.65"/><path class="st13" d="M512.31 1736.79c8.4 25.42-5.39 52.84-30.8 61.24-25.42 8.4-52.84-5.39-61.24-30.8-8.4-25.42 5.39-52.84 30.8-61.24 25.42-8.4 52.84 5.39 61.24 30.8"/><path class="st11" d="M424.55 1768.66c-8.41-25.41 5.39-52.83 30.8-61.23a48.241 48.241 0 0128.29-.66c-10.08-3.88-21.51-4.44-32.57-.78-25.41 8.4-39.2 35.82-30.8 61.24 4.76 14.39 15.62 25.05 28.76 30.07a48.564 48.564 0 01-15.96-13.14c-3.67-4.48-6.6-9.68-8.52-15.5"/><path class="st4" d="M460.03 1724.55l-1.73-5.25-5.34 1.76 1.73 5.25c-8.51 3.29-10.21 7.24-7.21 16.31 2.61 7.88 4.24 10.54 7.88 11.59 4.09 1.28 11.63.76 15.3 2.47 1.52.64 1.93 1.37 2.55 3.19.09.26.19.54.29.85 1.65 5 1.68 6.5-2.05 7.73-3.82 1.27-4.8-.85-6.09-4.76-.37-1.1-.56-1.97-.7-2.68l-9.41 3.11c.25 1.61.72 3.62 1.48 5.91 2.97 8.99 7.54 10.29 15.12 8.17l2.18 6.6 5.34-1.76-2.21-6.7c8.38-3.46 9.8-7.97 6.79-18.27-.26-.88-.55-1.8-.87-2.77-2.88-8.74-5.71-8.74-10.14-9.35-3.13-.37-6.49-.29-10.11-.7-3.3-.32-3.69-.66-5.15-5.06-1.4-4.24-.89-5.54 2.16-6.55 3.56-1.18 4.66.43 5.83 4 .42 1.27.71 2.12.87 2.9l9.33-3.08c-.25-1.33-.61-2.99-1.37-5.28-2.66-8.05-6.39-9.93-14.47-7.63"/><path class="st7" d="M2343.32 1153.58c-.21.39-.33 12.09-.4 23.14-.08 12.65-4.24 26.45-11.74 38.99l-52.56 87.4c-8.62 14.4-6.82 30.41 3.93 34.81 9.34 3.83 22.32-2.48 30.27-14.73l95.1-143.12z"/><path class="st2" d="M1983.47 1102.62s147.39-43.21 319.63 69.21l57.72-88.43c-172.24-112.42-192.02-264.74-192.02-264.74z"/><path class="st7" d="M2168.8 818.66c-31.93-20.84-99.31 25.83-150.48 104.24-51.18 78.42-66.79 158.88-34.85 179.72 31.93 20.85 99.3-25.83 150.48-104.24 51.18-78.42 66.79-158.88 34.85-179.72"/><path d="M2163.72 826.44c-27.13-17.71-87.97 27.44-135.88 100.85-47.92 73.41-64.76 147.28-37.63 164.99 27.14 17.71 87.98-27.44 135.89-100.85 47.92-73.41 64.76-147.28 37.62-164.99" fill="#1a2982"/><path d="M2406.06 1112.22l-59.84-39.06-1.04 3.63c-9.07 31.65-27.14 59.81-52.11 81.25l-5.12 4.4 59.84 39.06c19.18 12.51 44.5 7.69 56.55-10.78l14.62-22.4c12.05-18.47 6.28-43.59-12.9-56.1" fill="#003e61"/><path class="st3" d="M2287.95 1162.43l19.9 13 15.18 9.92 24.78 16.16c19.16 12.5 44.47 7.69 56.54-10.79l14.61-22.41c12.06-18.45 6.27-43.59-12.89-56.09l-27.32-17.84-13.72-8.95-18.82-12.26-1.02 3.62c-9.08 31.63-27.13 59.82-52.12 81.25z"/><path class="st7" d="M2307.85 1175.43l15.18 9.92c25.26-25.71 44.27-56.74 55.72-90.97l-13.72-8.95c-11.98 34-31.52 64.71-57.18 90"/><path class="st10" d="M2064.07 950.94c-7.12 10.9-6.32 25.42 2.01 36.72l31.4 42.58c9.8-11.74 19.45-24.75 28.62-38.81 9.18-14.06 17.2-28.13 24.01-41.83l-51.62-11.6c-13.7-3.08-27.31 2.04-34.42 12.94"/><path class="st2" d="M2080.68 961.78c-6.44 9.87-15.38 15.44-19.97 12.45-4.59-3-3.08-13.42 3.36-23.29 6.44-9.87 15.38-15.44 19.96-12.45 4.59 2.99 3.09 13.42-3.35 23.29"/><path class="st16" d="M2660.28 1272.62c-5.66 28.28-62.84 50.28-62.84 50.28s-5.99 28.54 3.41 59.64v.02c.47 1.55.98 3.13 1.53 4.69 1.72 4.88 3.83 9.79 6.43 14.63 2.15 4.01 4.62 7.98 7.48 11.83 29.54 39.9 27.02 107.13 9.43 146.72s-55.3 141.39-55.3 141.39c-63.47 40.21-177.83 0-177.83 0s-5.04-75.41-5.66-81.7c-.63-6.28-21.99-25.13-21.99-25.13 22.61-8.17 74.14-41.48 74.14-41.48 67.25 18.23 121.7-62.42 101.17-123.16a70.313 70.313 0 00-3.85-9.25c-11.96-23.56-32.84-26.5-50.75-23.54-17.3 2.85-31.82 11.2-32.88 11.81 9.65-7.11 19.32-12.1 28.06-16.02 12.84-5.76 23.71-9.2 29.68-13.69 1.96-1.47 3.97-4.33 5.94-8.04 6.14-11.59 11.79-31.41 14.02-42.81.7-3.63 1.07-6.41.99-7.8-.18-2.97-8.64-9.13-18.83-17-14.3-11.04-32.04-25.44-35.22-39.13-5.44-23.46 10.06-54.05 10.9-60.33.83-6.29-10.68-14.67-11.1-25.55-.35-9.04 20.54.23 46.71-20.11 5.37-4.18 10.53-18.79 16.55-24.93 31.66-32.29 67.66-26.18 67.66-26.18s32.67 8.38 46.49 31.63 11.31 104.94 5.66 133.21"/><path class="st17" d="M2564.54 1130.52s3.72 19.36 25.57 46.8c7.58 9.53 6.84 40.51-3.28 51.05l3.28 1.73s25.97-20.1 37.28-17.59c11.32 2.51 18.86 35.61 6.71 44.41-12.15 8.79-15.2 2.73-15.2 2.73s-23.76 20.31-27.11 42.09c-3.36 21.78 3.91 37.23 3.91 37.23l1.74-16.07s83.41-24.51 67.36-91.12c-16.04-66.61-7.66-71.22-35.31-87.56-27.65-16.33-64.95-13.7-64.95-13.7m44.27 271.36c-.89 2.12-2.13 3.92-3.76 5.15-8.45 6.39-42.72 13.92-68.65 14.07-12.6.08-23.23-1.59-27.98-5.97-6.05-5.59-15.53-11.74-22.77-17.57-1.77-1.43-3.4-2.84-4.82-4.21 12.84-5.76 23.71-9.2 29.68-13.69 1.96-1.47 3.97-4.34 5.94-8.04 0 0 78.77 38.36 84.4 10.94.47 1.55.98 3.12 1.53 4.69 1.72 4.88 3.83 9.79 6.43 14.63"/><path class="st16" d="M2452.7 1409.41s-38.96 36.44-74.57 67.86c0 0-13.19-86.51-5.65-122.33 7.54-35.81 2.46-109.18-3.2-116.72 0 0-1.48 3.33-7.45 11.22-7.26 9.59-24.41 17.77-37.88-1.04-9.49-13.27 1.47-23.11 1.47-23.11s-12.22-7.61-19.48-2.03c-7.26 5.59-21.58 35.68-27.72 48.53-6.15 12.84 8.19 29.38 16.96 34.35 15.91 9.02 23.33 28 22.49 36.1-.84 8.1-26.88 216.93-10.55 247.72 16.34 30.79 57.82 5.03 57.82 5.03l147.04-16.97s50.9-72.26 55.93-109.97c5.02-37.7-44.62-80.43-44.62-80.43s-47.69 6.98-70.59 21.79"/><path class="st17" d="M2439.09 1553.52s51.18-35.61 56.48-39.24c5.31-3.63 13.9 15.36 26.04-3.08 12.15-18.43 31.22-51.27 0-107.54 0 0 50.07 2.26 51.32 40.87 1.26 38.61-23.87 117.78-37.28 128.26-13.41 10.47-95.93 14.24-96.56-19.27m-60.96-76.25s-31.42 23.6-38.68 46.5c0 0-5.86 14.52-1.67-10.89 4.19-25.42 39.21-43.83 39.21-43.83z"/><path class="st10" d="M2392.59 1701.82s-3.57 49.85 0 108.5c3.56 58.65-7.34 222.87-7.34 222.87h255.55s26.07-127.36 5.49-191.87c-20.57-64.52-68.33-103.9-75.87-139.5-7.54-35.61-177.83 0-177.83 0"/><path class="st12" d="M2625.72 1560.43c-17.59 39.59-55.3 141.39-55.3 141.39-63.47 40.21-177.83 0-177.83 0s-3.66-54.79-5.12-74.85c-.25-3.48-.44-5.92-.54-6.85-.63-6.28-21.99-25.13-21.99-25.13 22.61-8.17 74.14-41.48 74.14-41.48 67.25 18.23 121.7-62.42 101.17-123.16-2.36-6.98-5.34-12.64-8.75-17.18l-.02-.02c-25.78-34.21-76.69-4.95-78.71-3.78 23.85-17.57 47.7-22.18 57.74-29.71 0 0 87.4 40.52 91.87 7.59 3.13 8.92 7.61 17.94 13.91 26.46 29.54 39.9 27.03 107.13 9.43 146.72"/><path d="M2443.48 1554.57s-56.68 40.37-75.57 43.12l-2.97-2.7s33.17-12.99 74.14-41.48z" fill="#f7a82d"/><path class="st17" d="M2530.47 1328.81c.7-3.64 1.07-6.41.99-7.8-.18-2.97-8.64-9.13-18.83-17 0 0 31.82 17 42.29 17.84 10.36.83-23.75 6.83-24.45 6.96"/><path d="M2790.24 1240.41c-1.88 4.42-4.54 9.1-8.06 14-32.04 44.61-71 10.05-71 10.05-17.6 103.06-103.47 67.03-113.74 58.44-10.27-8.59 15.71-62.63 25.35-66.4 9.64-3.77 16.75-14.66 12.98-26.6-3.76-11.94-26.39-13.2-37.07-1.89-10.69 11.31-32.05 7.54-17.59 3.14 14.45-4.39 42.1-37.07 14.45-59.32-16.02-12.88-25.48-29.03-30.6-40.35l-.01-.01c-3.71-8.21-5.15-13.87-5.15-13.87s-26.45-33.5 72.21-32.16c98.65 1.32 89.86 115.55 89.86 115.55 47.55-15.67 83.64 3.53 68.37 39.42" fill="#553130"/><path d="M2790.24 1240.41c-1.88 4.42-4.54 9.1-8.06 14-32.04 44.61-71 10.05-71 10.05-17.6 103.06-103.47 67.03-113.74 58.44-10.27-8.59 15.71-62.63 25.35-66.4 9.64-3.77 16.75-14.66 12.98-26.6-3.76-11.94-26.39-13.2-37.07-1.89-10.69 11.31-32.05 7.54-17.59 3.14 14.45-4.39 42.1-37.07 14.45-59.32-16.02-12.88-25.48-29.03-30.6-40.35.81 1.19 24.22 35.41 54.48 53.87 30.79 18.78 34.3 54.56 48.17 71.43 6.72 8.17 31 21.51 44.2-4.89 0 0 58.85 22.92 78.43-11.48" fill="#471515"/><path class="st16" d="M1301.14 941.17c-7.89-3.67-406.81-121.4-405.24-132.97.56-4.15 4.13-19.12 8.82-37.52 8.36-32.75 20.3-76.35 25.34-89.14 2.05-5.19 9.11-10.25 18.94-15.06 12.32-6.04 29.01-11.71 45.67-16.83l.1-.03c21.11-6.48 42.13-12.1 54.08-16.44 2.06-.75 3.92-1.89 5.59-3.36 21.7-19.17 11.83-95.97 19.63-136.97 8.42-44.15 39.42-15.77 78.32-46.78 38.9-31 81.47-12.08 81.47-12.08 38.55 22.59 12.04 90.57 8.06 107.85-3.98 17.29-4.68 42.76-36.67 61.9-32.01 19.16-50.76 6.32-50.76 6.32s-2.76 19.78 1.63 29.65c.3.68.64 1.31 1.01 1.88 3.2 4.96 30.17 11.67 57.09 17.88l1.14.25c14.03 3.22 27.95 6.3 38.39 8.92l.02.01c5.35 1.33 9.79 2.55 12.85 3.6 21.43 7.35 61.79 137.17 75.03 199.54 2.23 10.56 3.69 19.17 4.16 24.94 1.57 19.62-36.8 48.12-44.67 44.44"/><path class="st21" d="M1301.14 941.17c-7.89-3.67-406.81-121.4-405.24-132.97.56-4.15 4.13-19.12 8.82-37.52 8.36-32.75 20.3-76.35 25.34-89.14 2.05-5.19 9.11-10.25 18.94-15.06 12.32-6.04 29.01-11.71 45.67-16.83l.1-.03c21.11-6.48 42.13-12.1 54.08-16.44 2.06-.75 3.92-1.89 5.59-3.36 0 0 41.76 26.18 101.68 9.89.3.68.64 1.31 1.01 1.88 3.2 4.96 30.17 11.67 57.09 17.88l1.14.25c14.03 3.22 27.95 6.3 38.39 8.92l.02.01c5.35 1.33 9.79 2.55 12.85 3.6 21.43 7.35 61.79 137.17 75.03 199.54 2.23 10.56 3.69 19.17 4.16 24.94 1.57 19.62-36.8 48.12-44.67 44.44"/><path class="st17" d="M1109.55 487.68s-24.61.2-27.18 12.82c-2.57 12.61 7.48 29.2 1.4 39.24-6.07 10.05-14.12 25.49-14.12 25.49V533.2s1.27-44.85 8.75-51.62c7.47-6.78 31.15 6.1 31.15 6.1m144.89-6.57s-19.31-41.38-64.05-24.53c-14.93 5.63-27.59 16.04-36.33 29.39-10.33 15.77-27.81 38.95-32.62 23.52 0 0 51.97-89.57 78.25-81.22 26.28 8.34 58.62 24.53 54.75 52.84"/><path class="st22" d="M1269.25 1006.7s31.53 6.31 6.3 51.86c-25.22 45.55-154.41 92.5-204.4 79.19-49.98-13.32-130.57-90.4-99.04-114.93 31.54-24.53 297.14-16.12 297.14-16.12"/><path class="st23" d="M1101.7 399.12c-5.73 2.31-10.9 5.2-15.54 8.58h-.01s-52.93-46.3-108.05 4.59c-55.13 50.88 49.19 201 49.19 201s-38.57-163.8 39.25-183.62c-7.85 13.6-11.77 29.99-12.08 47.47-.28 15.64 2.31 32.14 7.53 48.3 5.83 18.04 1.93 27.85 1.93 27.85 10.86-.7 17.17-19.62 17.17-19.62-3.51-3.16-16.47-42.05 12.96-46.95 29.43-4.91 27.39 22.77 27.39 22.77 17.23 12.62 19.91-49.05 72.47-62.37 52.56-13.31 60.53 33.99 60.53 33.99 1.35-3.56 2.29-7.06 2.83-10.51 9.14-57.84-91.64-97.25-155.57-71.48"/><path d="M895.9 808.2c-1.57 11.57 397.35 129.3 405.23 132.98 7.89 3.68 46.25-24.84 44.68-44.45-.47-5.77-1.93-14.39-4.17-24.94-24.14-8.42-74.67-93.02-87.87-110.36-13.2-17.35 0-92.78 0-92.78l-.02-.01-38.39-8.92-1.14-.26s2.32 45.01-21.36 83.57c-23.68 38.56-68.32 27.85-127.72 25.23-59.39-2.63-70.38-118.64-70.38-118.64l-.09.03L949 666.48s6.64 65.51 7.7 86.54c1.04 21.02-13.5 17.34-13.5 17.34-12.17-1.55-25.9-2.38-38.48.32-4.69 18.4-8.25 33.36-8.82 37.52" fill="#0e61db"/><path class="st17" d="M1154.49 610.06s-40.67-18.4-55.23-36.24c0 0-6.91-5.82-2.18 8.37 4.73 14.2 57.41 52 57.41 52s-1.19-13.74 0-24.13"/><path class="st12" d="M1221.41 659.52c.32.07-.51 82.37-37.57 108.47-37.06 26.1-137.28 31.84-160.76-12.01-23.49-43.84-32.57-108.09-32.57-108.09l-37.61 13.7s18.5 86.56 3.88 135.11c-14.61 48.54 280.83 30.27 280.83 30.27s-3.97-122.31 12.89-161.61z"/><path d="M895.9 782.24v253.04c0 3.78 3.1 6.87 6.88 6.87h396.77c3.78 0 6.88-3.09 6.88-6.87V782.24c0-3.78-3.1-6.88-6.88-6.88H902.78c-3.78 0-6.88 3.1-6.88 6.88" fill="#07193d"/><path class="st2" d="M1071.15 912.74c0 9.94 14.21 18 31.74 18 17.53 0 31.74-8.06 31.74-18s-14.21-18-31.74-18c-17.53 0-31.74 8.06-31.74 18"/><path class="st12" d="M946.81 1108.8c11.08 19.13 21.84 44.64 28.27 60.83.92-.13 1.86-.25 2.82-.35.37-.05.76-.1 1.14-.14 1.14-.14 2.31-.27 3.5-.39 1.59-.17 3.23-.33 4.91-.49.21-.02.42-.05.63-.06 36.9-3.42 92.85-4.24 129.52-4.36 21.88-.09 36.9.08 36.9.08 4.01.27 7.98.52 11.91.75 225.71 12.91 315.96-52.11 299.92-104.56-.94-3.1-2.27-6.17-3.96-9.17-12.38-21.95-40.08-31.53-68.76-35.13-42.34-5.33-85.28 2.82-123.16 22.51-24.33 12.66-59.19 29.15-98.77 42.91-2.28.8-4.58 1.59-6.89 2.36-2.3.78-4.63 1.54-6.97 2.3-9.76 3.14-20.65 5.86-32.26 8.21-44.73 9.05-100.24 12.65-143.5 14-.23.01-.45.01-.68.02-.97.03-1.94.05-2.91.08h-.06c-.82.03-1.63.05-2.44.07l-3.47.09c-.76.03-1.52.04-2.26.06l-5.5.12c-.5.02-1 .02-1.49.03-1.69.03-3.34.06-4.95.08-1.36.03-2.7.05-4 .07-.72 0-1.43.01-2.13.02-.91.01-1.81.03-2.7.04-.4 0-.79 0-1.17.01-.5 0-.99.01-1.49.01"/><path class="st12" d="M952.68 1119.56h-.04c.04.05.08.1.13.15 5.19 6.07 13.41 25.24 22.59 49.88 7.03 18.9 14.64 40.99 21.88 62.87 1.24 3.73 2.46 7.45 3.67 11.15.3.92.6 1.83.89 2.75.22.66.44 1.31.65 1.96.27.83.54 1.65.8 2.47.37 1.15.73 2.28 1.1 3.41.27.85.55 1.69.82 2.53.51 1.58 1 3.12 1.5 4.66.26.82.51 1.62.76 2.43.41 1.26.82 2.52 1.22 3.77.37 1.2.76 2.4 1.13 3.59.81 2.52 1.59 5.01 2.36 7.45.57 1.8 1.13 3.57 1.67 5.33.18.57.36 1.15.55 1.74.18.58.36 1.15.55 1.72.37 1.23.75 2.45 1.12 3.66.16.5.33 1.01.47 1.51.23.7.44 1.4.65 2.09v.01c1.18 3.77 2.29 7.37 3.33 10.77.26.85.51 1.69.77 2.51.43 1.42.86 2.82 1.27 4.17.23.76.44 1.49.66 2.21 2.03 6.68 3.67 12.23 4.86 16.34.06.17.11.34.15.51.1.35.21.69.3 1.01 2.77 9.66 6.31 18.06 10.22 25.35.3.57.62 1.15.93 1.7.31.57.62 1.12.94 1.67.32.54.63 1.09.96 1.61.31.54.63 1.07.96 1.58.32.53.64 1.04.97 1.55.29.47.6.93.91 1.4.29.44.59.88.89 1.33a110.547 110.547 0 003.88 5.36c.32.43.64.84.98 1.25.31.41.63.82.97 1.22.32.4.64.79.97 1.18.32.39.64.78.97 1.15.31.38.64.75.96 1.11.33.38.67.76 1.01 1.13.65.74 1.32 1.45 1.98 2.14 4.26 4.51 8.24 7.98 11.48 10.59 10.87 8.76 10.51 45.21 10.51 45.21.42 3.33.8 6.57 1.12 9.72.16 1.51.31 2.99.44 4.45.2 2.2.39 4.35.54 6.44.09 1.16.17 2.31.23 3.45.02.23.04.46.05.68.04.58.07 1.16.1 1.73.05.77.09 1.52.12 2.27.04.67.07 1.32.09 1.96.01.26.03.51.04.76.03.78.06 1.55.08 2.3.01.26.01.51.02.77.02.63.04 1.25.05 1.87.02.8.03 1.59.05 2.38 0 .42.01.85.01 1.26.3 40.6-9.75 59-21.56 69.93-.5.46-1 .9-1.5 1.34-3.75 3.24-7.64 5.81-11.41 8.17-.95.6-1.96 1.14-3.02 1.63-20.85 9.75-61.76.95-67.76-10.39-6.32-11.91 4.55-23.48 4.55-23.48 2.63-4.35 4.93-8.92 6.9-13.82 10.03-25.03 11.23-58.26 3.61-111.61-.26-1.79-.69-3.73-1.3-5.83h-.01c-3.03-10.46-10.36-24.66-20.51-41.54-4.84-8.06-10.34-16.71-16.31-25.87-3.54-5.42-7.26-11.03-11.1-16.77-.98-1.45-1.96-2.91-2.95-4.38-.9-1.34-1.81-2.68-2.72-4.04-1.46-2.16-2.93-4.32-4.41-6.51-1.87-2.76-3.77-5.54-5.69-8.34-1.03-1.5-2.04-3.01-3.09-4.52-1.18-1.74-2.38-3.48-3.58-5.24-11.4-16.65-23.35-34.04-35.25-51.71-1.18-1.75-2.37-3.53-3.56-5.3-2.37-3.54-4.73-7.1-7.1-10.65-2.32-3.5-4.63-7.01-6.93-10.53-1.19-1.83-2.4-3.66-3.58-5.49 0-.01 0-.01-.01-.02-52.72-81.2-95.95-162.04-69.52-197.62 16.46-22.15 55.4-21.56 101.79-9.93 28.2 7.08 59.16 18.24 89.49 30.87 19.19 7.98 38.12 16.54 55.96 25.03 12.24 5.82 23.96 11.61 34.89 17.15 25.95 13.15 47.42 24.88 60.7 32.31h.01c9.29 5.19 14.56 8.29 14.56 8.29-6 3.58-18.45 6.52-34.35 8.94-24.86 3.79-58.14 6.29-88.26 7.91-19.52 1.05-37.7 1.74-51.42 2.16-14.52.46-24.03.62-24.8.64"/><path class="st22" d="M864.37 1024.75c48.88 22.07 88.27 94.81 88.27 94.81s170.67-2.84 198.88-19.65c0 0 12.85 4.86-31.27-17.5-106.25 28.99-154.97-19.29-209.63-48.73-54.66-29.43-46.25-8.93-46.25-8.93"/><path class="st16" d="M1166.41 1164.67c-3.93-.23-7.9-.48-11.92-.75 0 0-12.68-.14-31.73-.1-5.12 0-10.71.03-16.62.07l-3.24.03c-34.5.27-79.28 1.22-111.34 3.96-5.98.52-11.53 1.09-16.48 1.75-6.43-16.19-17.19-41.7-28.27-60.83 10.21-.1 22.18-.29 35.24-.71 37.85-1.18 85.03-4.07 126.19-10.83 5.78-.95 11.44-1.97 16.93-3.08 11.76-2.37 22.78-5.11 32.65-8.3.94-.29 1.88-.6 2.81-.91 1.4-.45 2.79-.92 4.16-1.38-2.96 18.77-6.17 52.09 1.62 81.08"/><path class="st17" d="M946.81 1108.8c11.08 19.13 21.84 44.64 28.27 60.83.92-.13 1.86-.25 2.82-.35.37-.05.76-.1 1.14-.14 1.14-.14 2.31-.27 3.5-.39 1.59-.17 3.23-.34 4.91-.49.21-.02.42-.05.63-.06 1.14-.11 2.3-.22 3.47-.32-26.33-40.63-9.49-59.78-9.49-59.78-.23.01-.45.01-.68.02-.97.03-1.94.05-2.91.08h-.06c-.82.03-1.63.05-2.44.07l-3.47.09c-.76.03-1.52.04-2.26.06l-5.5.12-1.49.03c-1.69.03-3.34.06-4.95.08-1.36.03-2.7.04-4 .07-.72 0-1.43.01-2.13.02-.91.01-1.81.02-2.7.04-.4 0-.79 0-1.17.01h-1.49z"/><path class="st16" d="M1081.92 1478.78c.3 40.6-9.75 59-21.56 69.93-.5.46-1 .9-1.5 1.34-3.75 3.24-7.64 5.81-11.41 8.17-.95.6-1.96 1.14-3.02 1.63-20.85 9.75-61.76.95-67.76-10.38-6.31-11.92 4.55-23.49 4.55-23.49a94.26 94.26 0 006.9-13.82c10.03-25.03 11.23-58.26 3.61-111.61-.26-1.79-.69-3.73-1.3-5.83h-.01c-3.03-10.46-10.36-24.66-20.51-41.54-4.84-8.06-10.34-16.71-16.31-25.87-3.54-5.42-7.26-11.03-11.1-16.77-.98-1.45-1.96-2.91-2.94-4.38-.91-1.34-1.82-2.68-2.73-4.04-1.45-2.16-2.93-4.32-4.41-6.51-1.87-2.76-3.77-5.54-5.69-8.34-1.03-1.5-2.04-3.01-3.09-4.52-.29-.43-.59-.86-.89-1.3l-2.69-3.94c36.42 2.04 80.02-33.22 80.85-33.89l.01-.01c.29.92.59 1.83.88 2.75.22.66.44 1.31.65 1.96.27.83.54 1.65.8 2.47.37 1.15.73 2.28 1.11 3.41.26.85.54 1.69.81 2.53.26.79.5 1.57.75 2.34l.75 2.32c.26.82.52 1.62.76 2.43.41 1.26.82 2.52 1.22 3.77.37 1.2.76 2.4 1.13 3.59.81 2.52 1.59 5.01 2.36 7.45.57 1.8 1.13 3.57 1.67 5.33.18.57.37 1.15.55 1.74.19.58.36 1.15.55 1.72.37 1.23.75 2.45 1.12 3.66.16.5.33 1.01.48 1.51.22.7.43 1.4.64 2.09v.01c1.18 3.77 2.29 7.37 3.33 10.77.26.85.51 1.69.77 2.51.43 1.42.86 2.82 1.27 4.17.23.76.44 1.49.66 2.21 2.03 6.68 3.67 12.23 4.87 16.34.05.17.1.34.14.51.1.35.21.69.3 1.02 2.77 9.65 6.31 18.05 10.22 25.34.3.57.62 1.14.93 1.7.31.57.62 1.12.94 1.67.32.54.63 1.09.96 1.61.31.54.63 1.07.96 1.59.31.51.64 1.03.97 1.54.29.47.6.93.91 1.4.29.44.59.88.89 1.33.32.47.64.93.96 1.39.97 1.38 1.95 2.7 2.92 3.97.32.43.65.84.98 1.25.32.41.64.82.97 1.22.32.4.64.79.97 1.18.32.39.65.77.97 1.15.32.37.64.75.96 1.11.33.38.68.76 1.01 1.13.65.74 1.32 1.45 1.98 2.14 4.26 4.51 8.24 7.98 11.48 10.59 10.87 8.77 10.51 45.21 10.51 45.21.42 3.33.8 6.57 1.12 9.72.16 1.51.31 2.99.44 4.45.2 2.2.39 4.35.54 6.44.09 1.16.17 2.31.23 3.45.02.23.04.46.05.68.04.58.08 1.16.1 1.73.05.77.09 1.52.12 2.27.04.67.07 1.32.1 1.96l.03.76.09 2.31c.01.25.01.5.01.76.02.63.04 1.25.05 1.87.02.8.03 1.59.05 2.38 0 .42.01.85.01 1.26"/><path d="M1061.99 525.44c5.83 18.04 1.93 27.85 1.93 27.85 10.86-.7 17.17-19.62 17.17-19.62-3.51-3.16-16.47-42.05 12.96-46.95 29.43-4.91 27.39 22.77 27.39 22.77 17.23 12.62 19.91-49.05 72.47-62.37 52.56-13.31 60.53 33.99 60.53 33.99 1.35-3.56 2.29-7.06 2.83-10.51-3.33-8.41-21.46-46.85-69.17-28.38-47.23 18.28-93.52 45.08-133.64 34.92-.28 15.64 2.31 32.14 7.53 48.3" fill="#00112b"/><path class="st17" d="M1006.67 1261.39s-9.7-5.25-35.57 7.69c-25.87 12.93-48.35 12.37-48.35 12.37l-2.69-3.94c36.42 2.04 80.02-33.22 80.85-33.89l5.01 15.45zm159.74-96.72c-3.93-.23-7.9-.48-11.92-.75 0 0-12.68-.14-31.73-.1-5.12 0-10.71.03-16.62.07l-3.24.03s32.09-13.79 39.3-30.75c7.22-16.97 18.43-48.2 18.43-48.2 1.4-.45 2.79-.92 4.16-1.38-2.96 18.77-6.17 52.09 1.62 81.08"/><path class="st23" d="M1081.92 1478.78c.3 40.6-9.75 59-21.56 69.93-.5.46-1 .9-1.5 1.34-3.75 3.24-7.64 5.81-11.41 8.17-.95.6-1.96 1.14-3.02 1.63-20.85 9.75-61.76.95-67.76-10.38-6.31-11.92 4.55-23.49 4.55-23.49a94.26 94.26 0 006.9-13.82c10.03-25.03 11.23-58.26 3.61-111.61-.26-1.79-.69-3.73-1.3-5.83 24 15.4 53.95-27.65 53.95-27.65.29.44.59.88.89 1.33.32.47.64.93.96 1.39.97 1.38 1.95 2.7 2.92 3.97.32.43.65.84.98 1.25.32.41.64.82.97 1.22.32.4.64.79.97 1.18.32.39.65.77.97 1.15.32.37.64.75.96 1.11.33.38.68.76 1.01 1.13.65.74 1.32 1.45 1.98 2.14 4.26 4.51 8.24 7.98 11.48 10.59 10.87 8.77 10.51 45.21 10.51 45.21.42 3.33.8 6.57 1.12 9.72.16 1.51.31 2.99.44 4.45.2 2.2.39 4.35.54 6.44.09 1.16.17 2.31.23 3.45.02.23.04.46.05.68.04.58.08 1.16.1 1.73.05.77.09 1.52.12 2.27.04.67.07 1.32.1 1.96l.03.76.09 2.31c.01.25.01.5.01.76.02.63.04 1.25.05 1.87.02.8.03 1.59.05 2.38 0 .42.01.85.01 1.26"/><path class="st5" d="M3470.39 1609.04c-1.27-3.06-26.71-40.23-26.71-40.23l22.04-110.97z"/><path class="st21" d="M3396.02 1569.53l47.66-.72 22.04-110.97z"/><path class="st3" d="M3396.02 1569.53l29.83-30.88 39.87-80.81z"/><path class="st5" d="M3425.85 1538.65l-30.2-46.77 70.07-34.04z"/><path d="M1557.28 1107.59V822.56h301.18v68.15m-150.59 910.73h-367.11v-99.83" stroke="#bbc6ff" fill="none" stroke-width="5" stroke-linejoin="round"/><path d="M1741.36 727.33h-121.31c-29.12 0-52.94-23.82-52.94-52.93v-9.63c0-29.11 23.82-52.93 52.94-52.93h121.31c29.11 0 52.93 23.82 52.93 52.93v9.63c0 29.11-23.82 52.93-52.93 52.93" fill="#fff" stroke-linejoin="round"/><path d="M1741.36 727.33h-121.31c-29.12 0-52.94-23.82-52.94-52.93v-9.63c0-29.11 23.82-52.93 52.94-52.93h121.31c29.11 0 52.93 23.82 52.93 52.93v9.63c0 29.11-23.82 52.93-52.93 52.93z" stroke="#2946fb" fill="none" stroke-width="4"/><path class="st7" d="M1567.11 669.58c0-31.89 25.86-57.74 57.75-57.74s57.75 25.85 57.75 57.74c0 31.9-25.86 57.75-57.75 57.75s-57.75-25.85-57.75-57.75M939.22 1823.74H647.23c-16.52 0-30.03-13.51-30.03-30.03v-18.5c0-16.52 13.51-30.03 30.03-30.03h291.99c16.52 0 30.04 13.51 30.04 30.03v18.5c0 16.52-13.52 30.03-30.04 30.03"/><path class="st2" d="M657.98 1762.57v43.78l35.99-24.44zm58.18-2402.99h-4.8v52.78h4.8zm208.92 2.51H755.34v4.46h169.74zm0 13.27H755.34v4.46h169.74zm0 13.27H755.34v4.46h169.74zm-62.23 13.27H755.34v4.46h107.51z"/><path d="M505.84-1128.26H2.5v246.64h503.34zM218.58 1391.97c.07 28.85-13.83 54.47-35.34 70.44a87.001 87.001 0 01-9.91 6.37 86.752 86.752 0 01-34.36 10.47c-2.49.22-5.01.34-7.56.35-1.81 0-3.6-.05-5.38-.15-12-.7-23.35-3.81-33.57-8.87a88.503 88.503 0 01-9.73-5.63c-23.41-15.63-38.87-42.26-38.95-72.53-.12-48.26 38.91-87.5 87.18-87.62 48.27-.13 87.5 38.91 87.62 87.17" fill="#c7defe" stroke-linejoin="round"/><path d="M173.33 1468.78c.04-2.94-.01-5.89-.34-8.85-.4-3.52-1.06-6.95-2.25-10.29-1.88-5.31-5.03-9.58-9.96-12.45-.66-.39-1.48-.55-1.99-1.21 1.94.28 3.8.85 5.62 1.56 1.99.76 3.81 1.87 5.65 2.91.94.79 1.91 1.54 2.82 2.36 3.39 3.05 5.83 6.75 7.65 10.9.09.21.21.41.32.62.95 2.64 1.82 5.31 2.39 8.08a87.001 87.001 0 01-9.91 6.37m-68.88-31.96c-.05.35-.36.43-.61.57-1.25.71-2.38 1.6-3.4 2.6-3.23 3.18-5.14 7.12-6.33 11.43-1.27 4.58-1.74 9.27-1.75 14.02 0 1.71.03 3.43.1 5.14a88.503 88.503 0 01-9.73-5.63c.55-3.44 1.41-6.83 2.72-10.12.03-.08.02-.17.03-.26 1.05-2.18 2.08-4.37 3.45-6.39 1.83-2.71 4.1-5.01 6.66-7.05.14-.08.29-.16.44-.26 2.59-1.8 5.36-3.22 8.42-4.05" fill="#b0c8ea" stroke-linejoin="round"/><path d="M173.33 1468.78a86.752 86.752 0 01-34.36 10.47c-.03-11.16-.06-22.33-.1-33.49 0-.91-.02-1.82-.04-2.72.24-.11.48-.22.72-.32 3.81-1.75 6.29-4.62 7.36-8.68 1.95.11 3.91.13 5.85.43 2.07.31 4.01 1.07 6.03 1.51.51.66 1.33.82 1.99 1.21 4.93 2.87 8.08 7.14 9.96 12.45 1.19 3.34 1.85 6.77 2.25 10.29.33 2.96.38 5.91.34 8.85m-47.39-25.55l.09 36.22c-12-.7-23.35-3.81-33.57-8.87-.07-1.71-.1-3.43-.1-5.14.01-4.75.48-9.44 1.75-14.02 1.19-4.31 3.1-8.25 6.33-11.43 1.02-1 2.15-1.89 3.4-2.6.25-.14.56-.22.61-.57.96-.38 1.9-.78 2.86-1.13 3.71-1.38 7.57-1.67 11.48-1.58.12.39.22.79.36 1.18 1.25 3.41 3.56 5.84 6.82 7.41-.01.18-.03.35-.03.53" fill="#eef2f9" stroke-linejoin="round"/><path d="M138.97 1479.25c-2.49.22-5.02.34-7.56.35-1.81 0-3.6-.05-5.38-.15l-.09-36.22c0-.18.02-.35.03-.53 4.24 1.74 8.54 1.74 12.86.34.02.9.04 1.81.04 2.72.04 11.16.07 22.33.1 33.49" fill="#fefefe" stroke-linejoin="round"/><path d="M118.79 1434.11c-3.91-.09-7.77.2-11.48 1.58-.96.35-1.9.75-2.85 1.13-3.06.83-5.84 2.25-8.44 4.05-.14.1-.29.18-.44.26-.11-5.5-.25-11.01-.33-16.52-.21-12.75-.42-25.51-.57-38.26-.1-7.72.73-15.33 3.26-22.68 2.66-7.69 6.91-14.27 13.61-19.08 4.95-3.54 10.5-5.52 16.53-6.17 7.37-.79 14.51.1 21.29 3.19 4.64 2.11 8.25 5.38 11.31 9.48 6.4 8.57 9.11 18.33 9.78 28.78.48 7.55.17 15.12.09 22.68-.13 12.43-.31 24.86-.46 37.29l-.03.62c-1.85-1.05-3.66-2.16-5.65-2.92-1.82-.71-3.68-1.28-5.62-1.56-2.02-.44-3.96-1.2-6.03-1.51-1.94-.3-3.9-.32-5.85-.43-1.15-4.53-1.41-9.07-.48-13.67.1-.49.3-.85.68-1.17 2.61-2.27 4.8-4.89 6.73-7.74 2.93-4.32 5.14-8.99 6.79-13.93.09-.26 0-.74.5-.68 1.89.23 2.98-.95 3.96-2.27 1.31-1.78 2.03-3.82 2.47-5.96.57-2.82.7-5.65-.29-8.41-.36-1-.85-1.92-1.91-2.5-.06.72-.11 1.35-.17 1.99-.29 2.87-.8 5.69-2.17 8.27-.84 1.58-1.86 3.05-3.63 3.77h.01c-.18-.34-.01-.68.05-1.01.88-5.11 1.24-10.24.61-15.41-.4-3.25-1.2-6.39-2.95-9.21-.96-1.56-2.17-2.88-3.9-4 1.37 7.63 2.53 15.09 4.56 22.44-.22.01-.36.03-.5.03-5 .19-9.97-.14-14.9-.92-5.87-.92-11.57-2.44-16.82-5.35-5.87-3.24-10.21-7.79-12.05-14.42-.57-2.08-.84-4.21-.93-6.39-.19.21-.31.42-.41.65a96.55 96.55 0 00-4.51 11.71c-1.05 3.36-1.9 6.76-2.34 10.27-.49 3.99-.54 7.93 1.06 11.75-4.88-3.3-6.36-8.3-6.87-13.85-1.1.8-1.56 1.87-1.86 3.01-.91 3.46-.48 6.86.66 10.19.58 1.68 1.37 3.24 2.64 4.51.83.83 1.78 1.5 3.04 1.24.53-.11.71.04.86.52.55 1.8 1.24 3.54 2 5.25 2.75 6.17 6.33 11.76 11.41 16.29.57.51.86 1.03.96 1.77.61 4.46.23 8.88-.42 13.3" fill="#2946fb" stroke-linejoin="round"/><path d="M159.39 1391.74c1.77-.72 2.79-2.19 3.63-3.77 1.37-2.58 1.88-5.4 2.16-8.27.07-.64.12-1.27.18-1.99 1.06.58 1.55 1.5 1.91 2.5.98 2.76.86 5.59.29 8.41-.44 2.14-1.16 4.18-2.47 5.96-.98 1.32-2.07 2.5-3.96 2.27-.5-.06-.41.42-.5.68-1.65 4.94-3.86 9.61-6.79 13.93-1.93 2.85-4.12 5.47-6.73 7.74-.38.32-.58.68-.68 1.17-.93 4.59-.67 9.14.48 13.67-1.07 4.06-3.56 6.93-7.36 8.67l-.72.33c-4.33 1.4-8.62 1.4-12.86-.34-3.26-1.57-5.57-4-6.83-7.41-.14-.39-.23-.79-.35-1.18.65-4.42 1.03-8.84.42-13.3-.1-.74-.39-1.26-.96-1.77-5.08-4.53-8.66-10.12-11.41-16.29-.76-1.71-1.45-3.45-2-5.25-.15-.48-.33-.63-.86-.52-1.26.26-2.21-.41-3.04-1.24-1.27-1.27-2.06-2.83-2.64-4.51-1.14-3.33-1.57-6.73-.66-10.19.3-1.14.76-2.21 1.86-3.01.51 5.55 1.99 10.55 6.87 13.85-1.6-3.82-1.55-7.76-1.06-11.75.44-3.51 1.29-6.91 2.34-10.27 1.24-4 2.76-7.9 4.51-11.71.1-.23.22-.44.41-.65.09 2.18.36 4.31.93 6.39 1.84 6.63 6.18 11.18 12.05 14.42 5.25 2.91 10.95 4.43 16.82 5.35 4.93.78 9.9 1.11 14.89.92.15 0 .29-.02.5-.03-2.02-7.35-3.18-14.81-4.55-22.44 1.73 1.12 2.93 2.44 3.9 4 1.74 2.82 2.55 5.96 2.94 9.21.64 5.17.28 10.3-.6 15.41-.06.33-.23.67-.05 1.01-.03.02-.07.03-.1.04.02.01.05.02.05.02a.21.21 0 00.04-.06" fill="#f9c89a" stroke-linejoin="round"/><path d="M159.39 1391.74a.21.21 0 01-.04.06s-.03-.01-.05-.02c.03-.01.07-.02.1-.04z" fill="#0f111e" stroke-linejoin="round"/></svg>