<svg xmlns="http://www.w3.org/2000/svg" width="3138.6" height="2400"><style>.st26{fill:#fefefe}.st29{fill:#5e9dfd}.st0{fill:#eef2f9}.st2{fill:#fff}.st1{fill:#357efc}.st3{stroke:#193edd;fill:none;stroke-width:10}.st15{fill:#2946fb}.st5{fill:#e32b2c}.st13{fill:#f7a82d}.st8{fill:#f19655}.st10{fill:#f9c89a}.st9{fill:#f8bc3e}</style><path class="st0" d="M723.31 557.95s433.59-27.38 550.09-274.59c116.51-247.2-718.2-455.82-830.57-70.6-112.36 385.22 280.48 345.19 280.48 345.19"/><path class="st0" d="M1978.72 2376.59s1142.25-59.25 1051.58-1259.53C2939.64-83.21 1759.76-71.85 1375.05 388.09c-384.71 459.95-1270.61 221.7-1230 1071.96 40.6 850.26 1221.33 1009.35 1833.67 916.54"/><path class="st1" d="M2101.5 792.58h-366.34c-4.95 0-9-4.05-9-9V656.79c0-4.95 4.05-9 9-9h366.34c4.95 0 9 4.05 9 9v126.79c0 4.95-4.05 9-9 9"/><path class="st2" d="M2263.97 436.13v999.08c0 48.88-40 88.88-88.89 88.88h-396.62c-19.63 27.54-12.4 97.51-12.4 97.51-29.97-42.37-48.58-97.51-48.58-97.51H612.63c-48.88 0-88.89-40-88.89-88.88V436.13c0-48.88 40.01-88.87 88.89-88.87h1562.45c48.89 0 88.89 39.99 88.89 88.87"/><path class="st3" d="M2263.97 436.13v999.08c0 48.88-40 88.88-88.89 88.88h-396.62c-19.63 27.54-12.4 97.51-12.4 97.51-29.97-42.37-48.58-97.51-48.58-97.51H612.63c-48.88 0-88.89-40-88.89-88.88V436.13c0-48.88 40.01-88.87 88.89-88.87h1562.45c48.89 0 88.89 39.99 88.89 88.87z"/><path d="M1613.65-2128.11H984.9v412.55h628.75zm-491.89 224.13h751.72v815.63h-751.72zm0 2848.24s176.03 153.23 256.36 196.36c80.33 43.14 230.57 13.39 299-40.9 68.43-54.3 196.36-172.19 196.36-172.19v265.16s-409.74 167.12-488.25 139.34c-78.51-27.77-263.47-209.51-263.47-209.51z" fill="#cecece"/><path class="st5" d="M2368.26 1419.56c-1.39 20.18-7.52 38.28-18.37 51.53 0 0-146.46-115.89-186.63-119.68-.15-.01-.33-.03-.51-.04-11.72-1.09-28.65-1.88-46.81-2.45-44.58-1.38-96.48-1.47-96.48-1.47s.39-1.55 1.41-4.24l.04-.11c6.85-18.06 41.47-86.47 174.33-92.93 114.14-5.53 172.07 85.51 173.32 157.83.06 3.91-.03 7.78-.3 11.56"/><path d="M2368.26 1419.56c-1.39 20.18-7.52 38.28-18.37 51.53 0 0-146.46-115.89-186.63-119.68-.15-.01-.33-.03-.51-.04-14.24-.95-128.58 3.76-146.76 3.18l4.88-11.34.04-.11 2.73-6.32s37.81-53.63 135.16-38.26c69.67 11 167.43 86.31 209.46 121.04" fill="#ae2020"/><path d="M2372.26 1805.78c-24.54 42.4-179.99 43.14-165.11 6.7 6.9-16.9 3.24-54.28-2.67-89.51-.02-.03-.02-.05-.02-.05a878.634 878.634 0 00-5.82-31.11c-5.53-26.99-10.84-47.43-10.84-47.43s110.83-122.72 110.83-78.1c0 17.03 9.43 45.77 21.08 74.79 8.94 22.23 19.17 44.64 27.48 62.07 9.28 19.45 16.15 32.73 16.15 32.73s33.47 27.51 8.92 69.91" fill="#f6ba87"/><path class="st8" d="M2319.72 1641.07c-18.47 46.65-121.08 50.74-121.08 50.74-5.53-26.99-10.84-47.43-10.84-47.43s110.83-122.72 110.83-78.1c0 17.03 9.43 45.77 21.09 74.79m52.54 164.71c-24.54 42.4-179.99 43.14-165.11 6.7 6.9-16.9 3.24-54.28-2.67-89.51.66 1.9 22.08 62.73 73.33 62.73 52.06 0 69.38-82.56 69.38-82.56 9.28 19.45 16.15 32.73 16.15 32.73s33.47 27.51 8.92 69.91"/><path class="st9" d="M2206.31 1734.51s3.81 53.42 50.67 60.12c46.86 6.69 85.5-14.86 97.42-76.6 0 0-1.47-14.14 18.61-4.48 20.08 9.67 123.47-32.72 197.85 6.7s51.32 449.99 37.19 467.1c-14.14 17.1-217.93 0-217.93 0s2.29-15.6-1.43-26.01c-3.72-10.42-284.19 6.67-284.19 6.67l-135.37-44.63s104.13-324.04 132.65-358.75c28.51-34.71 59.5-23.31 96.44-36.2 0 0 6.36-4.16 8.09 6.08"/><path class="st10" d="M2009.24 1378.36c-38.37 116.03 13.2 133.88 24.11 202.31 10.91 68.42 75.37 124.95 181.48 92.23 106.12-32.73 104.13-124.96 104.13-124.96s53.55-.99 48.6-49.59c-4.96-48.59-45.62-38.67-65.46-22.81 0 0-43.63-88.26-82.31-88.26s-210.55-8.92-210.55-8.92"/><path d="M1998.79 1417.65s-24.45 22.94-29.66 58.64c0 0 31.94-8.05 54.3-52.07 0 0 14.13 16.49 76.61 22.75 0 0-11.16-9.36-16.36-22 0 0 52.23 34.33 97.89 22 0 0-13.84-7.13-20.54-22 0 0 76.41 31.36 103.39 31.23 26.98-.12 28.26 52.07 28.26 52.07s5.04 45.87 9.75-15.87c2.65-34.68 40.33-28.43 40.33-28.43-6.82-16.59-89-80.55-89-80.55s-190.91-52.92-205.78-41.76c-14.88 11.16-38.74 36.7-38.74 36.7z" fill="#553130"/><path class="st5" d="M1998.79 1417.65s68.56-45.66 192.74-18.72c110.82 24.05 124.6 69.37 124.6 69.37 12.16-3.98 25.34-3.5 37.14 1.44 1.46.61 2.93 1.26 4.44 1.96 0 0-39.44-115.09-177.59-142.33-128.46-25.34-163.03 13.78-171.01 33.86-7.99 20.08-28.26 72.39-10.32 54.42"/><path d="M2098.8 1903.96s22.07 11.16 17.6 54.3c-4.46 43.14-11.9 209.75-11.9 209.75l-77.28-25.48s52.74-124.77 58.69-182.04c5.95-57.27.5-56.53 12.89-56.53z" stroke="#fff" fill="none"/><path class="st13" d="M2494.5 1899.01s-4.96 130.9 0 197.35c0 0-158.68-16.86-145.79 0l-167.14 54.54-19.3 3.97s4.96-78.35 63.47-103.14c58.51-24.79 219.17 54.55 236.03-4.96 16.86-59.5 11.9-180.49 32.73-147.76"/><path class="st10" d="M2390.11 2185.11h-31.48l15.87-19.23c0-10.08-8.17-18.25-18.25-18.25H2191.6c-9.44-12.5 34.26-64.35 54.02-76.28l.01-.02c1.87-1.13 3.53-1.9 4.91-2.24 15.86-3.97 98.17 27.26 98.17 27.26 67.44 10.91 41.4 88.76 41.4 88.76"/><path class="st8" d="M2390.11 2185.11h-31.48l15.87-19.23c0-10.08-8.17-18.25-18.25-18.25H2191.6c-9.44-12.5 34.26-64.35 54.02-76.28-.36.61-10.83 17.84 33.67 50.79 19.19 14.21 39.17 15.38 64.96 19.35 25.79 3.95 43.14 6.44 43.14-3.97s-38.68-41.17-38.68-41.17c67.44 10.91 41.4 88.76 41.4 88.76"/><path d="M2286.3 2137.65c-1.7 1.91-3.63 3.33-5.64 4.57-2 1.27-4.11 2.28-6.29 3.14-2.17.86-4.43 1.5-6.75 1.96-2.32.46-4.71.71-7.25.45l-.09-.28 6.52-2.41c2.17-.81 4.33-1.65 6.48-2.51 2.16-.84 4.32-1.69 6.46-2.56l6.43-2.63zm-25.85-16.9c-1.36 3.45-3.33 6.53-5.53 9.39-1.08 1.46-2.31 2.79-3.52 4.14-.6.67-1.26 1.29-1.92 1.91-.66.62-1.29 1.27-1.98 1.86-1.4 1.16-2.79 2.32-4.28 3.38-.74.53-1.51 1.02-2.28 1.5-.77.5-1.53.98-2.36 1.4-3.19 1.76-6.66 3.11-10.3 3.73l-.12-.27c1.55-.85 3.14-1.6 4.62-2.56 1.53-.88 2.99-1.87 4.45-2.86 2.87-2.05 5.66-4.21 8.29-6.57 2.66-2.32 5.22-4.76 7.67-7.3 1.22-1.28 2.42-2.58 3.58-3.9 1.19-1.31 2.34-2.66 3.44-4.04zm-22.69-15.38c-1.84 4.16-4.09 8-6.48 11.73-1.15 1.9-2.46 3.68-3.69 5.52-1.28 1.79-2.61 3.56-3.92 5.34-1.38 1.72-2.73 3.47-4.14 5.17-1.46 1.67-2.84 3.39-4.37 5-2.98 3.28-6.11 6.45-9.63 9.31l-.24-.18 16-21.13 16.23-20.94z" fill="#c1560c"/><path class="st13" d="M2494.5 2096.36c1.87-.61 3.81-1 5.76-1.32 1.95-.34 3.92-.53 5.89-.67 3.95-.25 7.94-.15 11.91.28 7.93.89 15.82 3.1 23.06 6.76 3.61 1.86 7.06 4.03 10.26 6.53 3.15 2.57 6.1 5.37 8.66 8.49 5.12 6.24 8.87 13.47 10.82 21.08-4.6-6.37-9.36-12.26-14.82-17.31-2.74-2.51-5.63-4.8-8.62-6.93-1.54-1-3.03-2.06-4.64-2.95-.78-.49-1.57-.96-2.39-1.38-.81-.42-1.59-.9-2.43-1.28-6.55-3.33-13.57-5.79-20.85-7.6-7.29-1.8-14.81-3.02-22.61-3.7"/><path class="st15" d="M2931.84-212.39H1107.08v36.44h1824.76z"/><path d="M1640.91 2187.47h631.7c11.03 0 20.06-9.03 20.06-20.06 0-11.04-9.03-20.06-20.06-20.06h-631.7c-11.04 0-20.07 9.02-20.07 20.06 0 11.03 9.03 20.06 20.07 20.06m-15.6-40.12h505.26c14.44 0 24.79-11.82 23.02-26.25l-40.28-327.26c-1.78-14.43-15.04-26.24-29.48-26.24h-505.26c-14.43 0-24.79 11.81-23.02 26.24l40.28 327.26c1.78 14.43 15.04 26.25 29.48 26.25" fill="#000d21" fill-rule="evenodd"/><path d="M1625.31 2147.35h490.35c14.44 0 24.8-11.82 23.02-26.25l-40.28-327.26c-1.77-14.43-15.04-26.24-29.47-26.24h-490.36c-14.43 0-24.79 11.81-23.02 26.24l40.28 327.26c1.78 14.43 15.04 26.25 29.48 26.25m735.08 40.12h-200.13c-9.66 0-17.58-7.91-17.58-17.58v-4.96c0-9.67 7.92-17.58 17.58-17.58h200.13c9.67 0 17.58 7.91 17.58 17.58v4.96c0 9.67-7.91 17.58-17.58 17.58" fill="#001d43" fill-rule="evenodd"/><path class="st9" d="M1904.72 925.87v459.46c0 1.8-.73 3.46-1.9 4.66a6.685 6.685 0 01-4.79 2.03h-818.17c-3.68 0-6.69-3-6.69-6.69V916.75l313.87 267.01h215.7z"/><path class="st13" d="M1902.82 1389.99a6.685 6.685 0 01-4.79 2.03h-818.17c-3.68 0-6.69-3-6.69-6.69v-3.34l313.87-198.23h215.7z"/><path class="st1" d="M1561.09-1764.15h-365.94v234.05h365.94z"/><path class="st2" d="M1352.5 712.38v91.23l65.45-47.78zm718.71 49.46h-366.34c-4.95 0-9-4.05-9-9V626.05c0-4.95 4.05-9 9-9h366.34c4.95 0 9 4.05 9 9v126.79c0 4.95-4.05 9-9 9"/><path d="M2071.21 761.84h-366.34c-4.95 0-9-4.05-9-9V626.05c0-4.95 4.05-9 9-9h366.34c4.95 0 9 4.05 9 9v126.79c0 4.95-4.05 9-9 9z" stroke="#193edd" fill="none" stroke-width="6"/><path class="st0" d="M1360.65 1729.92h-336.06c-5.36 0-9.74 4.38-9.74 9.73v188.8c0 5.35 4.38 9.73 9.74 9.73h194.91c7.25 18.59 23.6 47.45 58.65 65.45 0 0-13.95-35.88-19.65-65.45h102.15c5.36 0 9.73-4.38 9.73-9.73v-188.8c0-5.35-4.37-9.73-9.73-9.73"/><path class="st3" d="M1360.65 1729.92h-336.06c-5.36 0-9.74 4.38-9.74 9.73v188.8c0 5.35 4.38 9.73 9.74 9.73h194.91c7.25 18.59 23.6 47.45 58.65 65.45 0 0-13.95-35.88-19.65-65.45h102.15c5.36 0 9.73-4.38 9.73-9.73v-188.8c0-5.35-4.37-9.73-9.73-9.73z"/><path class="st9" d="M1284.65 1795.91v97.57c0 .37-.15.72-.4.97-.25.26-.6.42-.99.42h-170.37a1.4 1.4 0 01-1.39-1.39v-97.57l65.36 55.6h44.91z"/><path d="M1225.37 1853.98l59.28-58.07H1111.5l59.33 59.4-59.33 37.47v.7c0 .77.63 1.39 1.39 1.39h170.37c.39 0 .74-.16.99-.42z" fill="#f29214"/><path d="M1111.5 1795.91h173.15l-86.57 77.28z" fill="#ffc45c"/><path class="st5" d="M1266.25 1798.35c0-9.31 7.55-16.86 16.86-16.86 9.31 0 16.86 7.55 16.86 16.86 0 9.31-7.55 16.86-16.86 16.86-9.31 0-16.86-7.55-16.86-16.86m775.33-859.52c0-27.94 22.64-50.58 50.58-50.58 27.93 0 50.57 22.64 50.57 50.58 0 27.93-22.64 50.58-50.57 50.58-27.94 0-50.58-22.65-50.58-50.58"/><path class="st9" d="M1041.43 803.61c0-13.96 11.32-25.29 25.29-25.29 13.97 0 25.29 11.33 25.29 25.29 0 13.97-11.32 25.29-25.29 25.29-13.97 0-25.29-11.32-25.29-25.29"/><path class="st1" d="M811.35 1071.95c0-27.94 22.65-50.58 50.58-50.58s50.58 22.64 50.58 50.58c0 27.93-22.65 50.58-50.58 50.58s-50.58-22.65-50.58-50.58m1512.91-574.03c0-43.52 35.28-78.81 78.8-78.81 43.52 0 78.8 35.29 78.8 78.81s-35.28 78.8-78.8 78.8c-43.52 0-78.8-35.28-78.8-78.8"/><path class="st2" d="M5 1221.81c0-101.6 82.36-183.96 183.96-183.96 101.6 0 183.96 82.36 183.96 183.96 0 101.6-82.36 183.97-183.96 183.97C87.36 1405.78 5 1323.41 5 1221.81"/><path class="st3" d="M5 1221.81c0-101.6 82.36-183.96 183.96-183.96 101.6 0 183.96 82.36 183.96 183.96 0 101.6-82.36 183.97-183.96 183.97C87.36 1405.78 5 1323.41 5 1221.81z"/><path class="st15" d="M89.09 1250.79c.01.17-1.67 4.46-3.28 8.51-1.84 4.63-2.36 10.29-1.47 15.98l6.28 39.7c1.02 6.53-2 12.11-6.58 12.13-3.98.02-7.78-4.2-8.88-9.85l-13.59-66.34z"/><path class="st0" d="M298.45 1305.34s-68.23-54.01-182.58-31.57l-11.53-58.71c114.35-22.44 157.1-98.24 157.1-98.24z"/><path class="st15" d="M261.44 1116.82c21.2-4.16 46.67 34.66 56.89 86.72 10.22 52.06 1.32 97.64-19.88 101.8-21.2 4.16-46.67-34.67-56.89-86.73-10.22-52.06-1.32-97.63 19.88-101.79"/><path d="M262.45 1121.98c18.02-3.53 40.38 33.11 49.94 81.84 9.57 48.74 2.72 91.12-15.29 94.65-18.01 3.54-40.37-33.1-49.94-81.84s-2.72-91.11 15.29-94.65" fill="#1a2982"/><path d="M74.46 1220.59l39.73-7.8-.23 2.13a95.18 95.18 0 0010.1 53.74l1.76 3.4-39.73 7.8c-12.73 2.5-25-5.41-27.41-17.68l-2.92-14.86c-2.4-12.26 5.97-24.23 18.7-26.73" fill="#003e61"/><path d="M125.83 1272.05l-13.22 2.6-10.08 1.99-16.45 3.23c-12.72 2.49-24.99-5.41-27.4-17.68l-2.91-14.88c-2.42-12.25 5.97-24.23 18.68-26.72l18.15-3.57 9.1-1.78 12.49-2.44-.24 2.12c-1.94 18.54 1.55 37.18 10.11 53.74z" fill="#8fc0fa"/><path class="st15" d="M112.61 1274.65l-10.08 1.99c-7.8-18.87-11.2-39.2-9.94-59.62l9.11-1.78c-.93 20.4 2.8 40.68 10.91 59.41"/><path d="M288.34 1208.55c1.42 7.23-2.08 14.69-8.85 18.85l-25.54 15.7c-2.65-8.25-4.96-17.14-6.79-26.47-1.83-9.33-3.06-18.43-3.72-27.07l29.57 4.88c7.85 1.29 13.91 6.87 15.33 14.11" fill="#d30f00"/><path class="st2" d="M277.32 1210.71c1.28 6.55 4.79 11.38 7.84 10.78 3.04-.6 4.47-6.39 3.18-12.94-1.28-6.56-4.79-11.38-7.84-10.78-3.04.59-4.47 6.39-3.18 12.94"/><path class="st1" d="M3137.1 1005.33c-8.95 82.42-56.82 151.19-123.33 189.99a251.237 251.237 0 01-30.35 15.06 249.556 249.556 0 01-101.48 18.99c-7.18-.16-14.43-.63-21.71-1.42-5.16-.56-10.27-1.27-15.31-2.13-34.06-5.8-65.49-18.31-93.08-36.01-9.1-5.85-17.79-12.25-26.02-19.16-61.92-52.09-97.61-133.08-88.21-219.57 14.98-137.93 138.94-237.62 276.87-222.64 137.94 14.99 237.6 138.95 222.62 276.89"/><path d="M2983.42 1210.38c1.07-8.41 1.87-16.85 1.85-25.39-.02-10.19-.82-20.21-3.14-30.14-3.69-15.74-11.34-28.94-24.51-38.72-1.78-1.31-4.07-2.03-5.3-4.08 5.46 1.41 10.57 3.64 15.55 6.23 5.44 2.82 10.28 6.56 15.23 10.13 2.44 2.54 4.97 5 7.31 7.62 8.7 9.78 14.51 21.15 18.37 33.58.2.63.49 1.24.74 1.85 1.87 7.87 3.5 15.78 4.25 23.86a251.237 251.237 0 01-30.35 15.06m-186.6-113.19c-.26.99-1.17 1.12-1.92 1.44-3.81 1.63-7.32 3.79-10.55 6.33-10.24 8.07-16.96 18.72-21.73 30.65-5.07 12.69-7.9 25.93-9.43 39.49-.55 4.89-1.02 9.8-1.35 14.71-9.1-5.85-17.79-12.25-26.02-19.16 2.66-9.67 6.19-19.07 10.99-28.06.11-.22.11-.49.17-.74 3.68-5.89 7.33-11.82 11.87-17.15 6.11-7.17 13.31-13.02 21.26-18.01.45-.2.91-.38 1.35-.61 7.98-4.32 16.36-7.49 25.36-8.89" fill="#b0c8ea"/><path class="st0" d="M2983.42 1210.38a249.508 249.508 0 01-101.47 18.99c3.45-31.9 6.92-63.82 10.36-95.72.28-2.59.5-5.19.74-7.79l2.16-.69c11.43-3.78 19.43-11.18 23.78-22.45 5.55.94 11.12 1.62 16.59 3.09 5.8 1.54 11.11 4.33 16.74 6.24 1.23 2.05 3.52 2.77 5.3 4.08 13.17 9.78 20.82 22.98 24.51 38.72 2.32 9.93 3.12 19.95 3.14 30.14.02 8.54-.78 16.98-1.85 25.39m-127.26-88.07c-3.75 34.5-7.5 69.01-11.24 103.51-34.06-5.8-65.49-18.31-93.08-36.01.33-4.91.8-9.82 1.35-14.71 1.53-13.56 4.36-26.8 9.43-39.49 4.77-11.93 11.49-22.58 21.73-30.65 3.23-2.54 6.74-4.7 10.55-6.33.75-.32 1.66-.45 1.92-1.44 2.84-.78 5.66-1.63 8.51-2.34 11.04-2.75 22.16-2.37 33.32-.85.2 1.16.35 2.33.63 3.47 2.49 10.15 8.33 17.84 17.14 23.36-.08.49-.21.98-.26 1.48"/><path class="st26" d="M2881.94 1229.37a255.084 255.084 0 01-37.02-3.55c3.74-34.5 7.49-69.01 11.24-103.51.05-.5.18-.99.26-1.48 11.57 6.3 23.83 7.68 36.63 5.03-.24 2.6-.46 5.2-.74 7.79-3.44 31.9-6.91 63.82-10.37 95.72"/><path d="M2838.65 1094c-11.15-1.52-22.28-1.9-33.32.85-2.85.71-5.67 1.55-8.5 2.34-9.01 1.39-17.4 4.57-25.38 8.89-.43.24-.89.41-1.34.61 1.43-15.77 2.79-31.56 4.29-47.33 3.46-36.49 6.92-72.98 10.52-109.46 2.18-22.1 6.97-43.57 16.55-63.76 10.03-21.13 24.25-38.58 44.93-50.17 15.26-8.55 31.75-12.44 49.17-12.38 21.31.08 41.42 4.89 59.83 15.88 12.58 7.5 21.86 17.98 29.29 30.67 15.55 26.52 20.2 55.24 18.79 85.32-1.02 21.73-4.33 43.25-6.96 64.83-4.32 35.47-8.76 70.92-13.16 106.37-.07.59-.18 1.17-.27 1.75-4.94-3.58-9.78-7.31-15.22-10.14-4.98-2.58-10.09-4.81-15.54-6.22-5.65-1.91-10.95-4.7-16.75-6.25-5.47-1.46-11.05-2.14-16.59-3.09-1.84-13.27-1.13-26.35 2.98-39.18.43-1.36 1.13-2.33 2.31-3.15 8.17-5.62 15.27-12.42 21.69-19.95 9.75-11.4 17.52-24.05 23.82-37.64.33-.72.25-2.12 1.63-1.8 5.34 1.26 8.84-1.75 12.05-5.23 4.32-4.65 7.02-10.26 8.93-16.24 2.53-7.87 3.8-15.89 1.85-24.11-.69-2.96-1.82-5.74-4.65-7.73-.41 2.02-.75 3.82-1.14 5.61-1.73 8.11-4.07 16.02-8.81 22.95-2.9 4.25-6.29 8.11-11.55 9.6l.01.03c-.4-1.05.2-1.97.47-2.9 4.13-14.31 6.79-28.85 6.62-43.81-.11-9.42-1.4-18.63-5.49-27.25-2.26-4.76-5.28-8.93-9.86-12.67 1.49 22.22 2.42 43.93 5.88 65.55-.62-.03-1.03-.04-1.44-.07-14.33-1.05-28.41-3.57-42.25-7.35-16.5-4.5-32.29-10.67-46.36-20.62-15.75-11.15-26.69-25.52-29.84-45.04-.98-6.13-1.07-12.3-.64-18.55-.59.53-1.01 1.11-1.38 1.72-6.21 10.32-11.77 20.99-16.6 32.02-4.06 9.27-7.57 18.73-9.93 28.59-2.69 11.24-4.06 22.49-.71 33.91-12.89-10.97-15.53-25.72-15.24-41.75-3.38 1.95-5.04 4.85-6.25 8.01-3.71 9.61-3.56 19.44-1.36 29.33 1.11 4.97 2.88 9.7 6.11 13.72 2.11 2.63 4.6 4.84 8.29 4.51 1.55-.14 2.01.34 2.28 1.77 1 5.29 2.42 10.49 4.06 15.63 5.9 18.48 14.33 35.6 27.41 50.15 1.46 1.63 2.14 3.23 2.19 5.36.31 12.93-2.16 25.45-5.42 37.87" fill="#001d43"/><path class="st10" d="M2968.1 985.84c5.26-1.49 8.65-5.35 11.55-9.6 4.74-6.93 7.08-14.84 8.81-22.95.39-1.79.73-3.59 1.14-5.61 2.83 1.99 3.96 4.77 4.65 7.73 1.95 8.22.68 16.24-1.84 24.11-1.92 5.98-4.62 11.59-8.94 16.24-3.21 3.48-6.71 6.49-12.05 5.23-1.38-.32-1.3 1.08-1.63 1.8-6.3 13.59-14.07 26.24-23.82 37.64-6.42 7.52-13.52 14.33-21.69 19.95-1.18.82-1.88 1.79-2.31 3.15-4.11 12.83-4.82 25.91-2.98 39.18-4.35 11.28-12.36 18.68-23.79 22.46-.71.24-1.43.47-2.14.7-12.81 2.64-25.06 1.26-36.64-5.05-8.8-5.51-14.65-13.21-17.14-23.35-.28-1.14-.42-2.31-.63-3.47 3.26-12.42 5.73-24.94 5.42-37.87-.05-2.13-.73-3.73-2.19-5.36-13.08-14.55-21.51-31.67-27.41-50.15-1.64-5.14-3.06-10.34-4.06-15.63-.26-1.43-.73-1.91-2.28-1.77-3.69.33-6.18-1.88-8.29-4.51-3.23-4.02-5-8.75-6.11-13.72-2.2-9.89-2.35-19.72 1.36-29.33 1.21-3.16 2.87-6.06 6.25-8.01-.29 16.03 2.35 30.78 15.24 41.75-3.35-11.42-1.98-22.67.71-33.91 2.36-9.86 5.87-19.32 9.93-28.59 4.83-11.03 10.39-21.7 16.6-32.02.37-.61.79-1.19 1.38-1.73-.43 6.26-.34 12.43.64 18.56 3.15 19.52 14.09 33.89 29.84 45.04 14.07 9.95 29.86 16.12 46.36 20.62 13.84 3.78 27.92 6.3 42.25 7.35.41.03.82.04 1.44.07-3.46-21.62-4.39-43.33-5.88-65.55 4.58 3.74 7.6 7.91 9.86 12.66 4.09 8.63 5.38 17.84 5.49 27.26.17 14.96-2.49 29.5-6.62 43.81-.27.93-.87 1.85-.47 2.9-.09.02-.19.05-.29.07.05.03.12.08.14.07.06-.04.09-.11.14-.17"/><path d="M2968.1 985.84c-.05.06-.08.13-.14.17-.02.01-.09-.04-.14-.07.1-.02.2-.05.29-.07l-.01-.03" fill="#0f111e"/><path class="st29" d="M1748.81 403.47c-.01.01-.01.01-.02.01 3.15 5.77 6.31 11.53 9.44 17.31.92 1.7 2.11 2.53 4 1.51 3.78-2.05 7.57-4.09 11.32-6.19 2.2-1.23 2.53-2.42 1.33-4.63-6.25-11.48-12.51-22.95-18.79-34.42-1.25-2.29-2.16-2.52-4.55-1.24-3.58 1.93-7.16 3.88-10.72 5.85-2.47 1.36-2.7 2.18-1.34 4.7 3.09 5.71 6.22 11.4 9.33 17.1m52.28-6.59c5.98-3.26 11.97-6.5 17.92-9.8 4.33-2.39 4.63-7.45.56-10.23-1.09-.75-1.24-1.18-.59-2.35 1.83-3.34.36-7.04-3.24-8.34-1.07-.39-1.6-.57-.88-1.89 1.96-3.59.6-7.34-3.16-9.1-1.11-.52-1.68-1.03-1.35-2.48.74-3.28-.37-6.05-3.15-7.96-2.63-1.8-5.39-1.67-8.18-.12-5.81 3.22-11.68 6.34-17.49 9.59-1.45.81-1.77.57-1.84-1.05-.16-3.98-.56-7.95-1.41-11.86-1.22-5.66-4.11-10.27-8.87-13.59-2.13-1.49-4.45-1.62-6.85-.29-2.09 1.15-3.03 2.79-3.07 5.12-.03 1.43.63 2.62 1.38 3.67 2.34 3.28 2.4 6.74 1.52 10.51-1.2 5.12-2.35 10.23-3.06 15.48-.85 6.28.73 11.94 3.4 17.28 4.24 8.46 8.96 16.68 13.51 24.98 1.83 3.33 3.81 3.9 7.14 2.1 5.91-3.21 11.81-6.45 17.71-9.67m-61.8-96.8c38.58-21 87.09-7.35 108.78 32 21.49 39.01 7.18 88.19-32.05 109.52-38.93 21.16-87.44 6.73-108.72-32.05-21.61-39.36-6.8-88.53 31.99-109.47"/><path class="st26" d="M1801.1 396.88c-5.91 3.23-11.81 6.46-17.72 9.67-3.33 1.81-5.31 1.23-7.14-2.1-4.54-8.3-9.27-16.52-13.51-24.98-2.67-5.34-4.25-11-3.4-17.28.71-5.25 1.86-10.36 3.06-15.48.88-3.77.82-7.23-1.52-10.51-.75-1.05-1.4-2.23-1.38-3.67.04-2.33.98-3.97 3.07-5.12 2.4-1.33 4.72-1.2 6.85.29 4.76 3.32 7.65 7.93 8.88 13.59.84 3.91 1.25 7.88 1.4 11.86.07 1.62.39 1.87 1.85 1.05 5.8-3.25 11.67-6.37 17.49-9.59 2.78-1.55 5.54-1.68 8.17.12 2.78 1.91 3.89 4.68 3.15 7.96-.33 1.45.24 1.96 1.35 2.48 3.76 1.76 5.12 5.51 3.16 9.1-.72 1.32-.19 1.5.88 1.89 3.6 1.3 5.07 5 3.24 8.34-.65 1.18-.5 1.6.59 2.35 4.07 2.78 3.77 7.84-.56 10.23-5.95 3.3-11.94 6.54-17.91 9.8m-52.29 6.59c-3.11-5.7-6.24-11.39-9.33-17.1-1.36-2.52-1.13-3.34 1.34-4.7 3.56-1.97 7.14-3.92 10.72-5.85 2.39-1.28 3.3-1.05 4.55 1.24 6.28 11.47 12.54 22.94 18.79 34.42 1.2 2.21.87 3.4-1.33 4.63-3.75 2.1-7.54 4.14-11.32 6.19-1.89 1.02-3.08.19-4-1.51-3.13-5.78-6.29-11.54-9.44-17.31.01 0 .01 0 .02-.01"/><path class="st29" d="M870.79 1279.44c-.01 0-.02-.01-.02-.01-2.54 7.32-5.07 14.65-7.64 21.96-.75 2.14-.53 3.84 1.85 4.68 4.79 1.68 9.57 3.36 14.37 4.98 2.81.94 4.12.29 5.1-2.52 5.07-14.54 10.13-29.09 15.16-43.65 1.01-2.92.49-3.89-2.52-4.96-4.52-1.6-9.05-3.18-13.59-4.73-3.15-1.07-4.05-.63-5.17 2.55-2.53 7.23-5.03 14.47-7.54 21.7m47.17 40.42c7.58 2.63 15.15 5.3 22.75 7.88 5.51 1.89 10.16-1.86 9.37-7.62-.21-1.54.05-2.01 1.58-2.37 4.37-1.05 6.44-5.26 4.72-9.44-.51-1.24-.77-1.84.95-2.26 4.69-1.13 6.89-5.3 5.44-9.97-.42-1.38-.42-2.28 1.1-3.14 3.45-1.95 4.99-5.12 4.45-9.05-.51-3.73-2.81-6.03-6.36-7.24-7.43-2.52-14.8-5.18-22.24-7.67-1.86-.62-1.9-1.1-.54-2.44 3.35-3.29 6.5-6.79 9.24-10.62 3.98-5.56 5.71-11.74 4.84-18.52-.39-3.04-2.11-5.17-5.18-6.21-2.65-.91-4.83-.43-6.9 1.38-1.27 1.11-1.79 2.62-2.11 4.1-1.01 4.65-3.98 7.44-7.97 9.66-5.41 3.01-10.8 6.05-15.94 9.59-6.15 4.24-9.85 10.09-12.39 16.66-4.03 10.4-7.46 21.03-11.1 31.58-1.47 4.23-.39 6.42 3.82 7.89 7.48 2.62 14.98 5.21 22.47 7.81m35.55-130.63c48.89 17.05 75.4 70.2 58.23 120.31-17.03 49.66-71.3 76.13-120.99 58.78-49.32-17.23-75.15-71.01-58.15-120.3 17.25-50.05 71.9-76.07 120.91-58.79"/><path class="st26" d="M917.96 1319.86c-7.49-2.6-14.99-5.19-22.47-7.81-4.21-1.47-5.29-3.66-3.82-7.89 3.64-10.55 7.07-21.18 11.1-31.58 2.54-6.57 6.24-12.42 12.39-16.66 5.14-3.54 10.53-6.58 15.94-9.59 3.99-2.22 6.96-5.01 7.97-9.66.32-1.48.84-2.99 2.11-4.1 2.07-1.81 4.25-2.29 6.9-1.38 3.07 1.04 4.79 3.17 5.18 6.21.87 6.78-.86 12.96-4.84 18.52-2.74 3.83-5.89 7.33-9.24 10.62-1.36 1.34-1.32 1.82.54 2.44 7.44 2.49 14.81 5.15 22.24 7.67 3.55 1.21 5.85 3.51 6.36 7.24.54 3.93-1 7.1-4.45 9.05-1.52.86-1.52 1.76-1.1 3.14 1.45 4.67-.75 8.84-5.44 9.97-1.72.42-1.46 1.02-.95 2.26 1.72 4.18-.35 8.39-4.72 9.44-1.53.36-1.79.83-1.58 2.37.79 5.76-3.86 9.51-9.37 7.62-7.6-2.58-15.17-5.25-22.75-7.88m-47.17-40.42c2.51-7.23 5.01-14.47 7.54-21.7 1.12-3.18 2.02-3.62 5.17-2.55 4.54 1.55 9.07 3.13 13.59 4.73 3.01 1.07 3.53 2.04 2.52 4.96-5.03 14.56-10.09 29.11-15.16 43.65-.98 2.81-2.29 3.46-5.1 2.52-4.8-1.62-9.58-3.3-14.37-4.98-2.38-.84-2.6-2.54-1.85-4.68 2.57-7.31 5.1-14.64 7.64-21.96 0 0 .01.01.02.01"/></svg>