<svg xmlns="http://www.w3.org/2000/svg" width="2931.95" height="2705.73"><style>.st45{stroke:#6a1100;fill:none;stroke-width:1}.st43{fill:#f5f9ff}.st44{fill:#0b2470}.st40{fill:#b78b73}.st38{fill:#011158}.st39{fill:#dba78b}.st37{fill:#010a35}.st30{fill:#e32b2c}.st31{fill:#ca1017}.st27{fill:#c18b71}.st28{fill:#c3dffe}.st26{fill:#010e4a}.st23{fill:#ce947a}.st21{fill:#3694fc}.st22{fill:#2f80db}.st29{fill:#9bc1e9}.st20{fill:#010d46}.st0{fill:#f3f6fc}.st2{fill:#d8e2f3}.st16{fill:#815954}.st1{fill:#e3e9f6}.st4{fill:#85b4fd}.st14{fill:#f6a538}.st3{fill:#fff}.st15{fill:#91645e}.st6{fill:#a08570}.st7{fill:#8c6e5a}.st9{fill:#d43d31}</style><path class="st0" d="M2224.67 2445.12s537.48-297.8 592.92-899.26c55.44-601.47-426.04-1261.83-1031.04-1239.58-605 22.26-823.29 508.24-1246.15 623.88C117.53 1045.8-204.86 1513 156.14 1987.57c361.02 474.57 1390.96 815.3 2068.53 457.55"/><path class="st0" d="M2224.67 2445.12s537.48-297.8 592.92-899.26c55.44-601.47-426.04-1261.83-1031.04-1239.58-605 22.26-823.29 508.24-1246.15 623.88C117.53 1045.8-204.86 1513 156.14 1987.57c361.02 474.57 1390.96 815.3 2068.53 457.55"/><path class="st1" d="M2144.76 1.09c3.7-2.4 7.42-.12 11.13-.03-.13 41.77-.37 83.54-.37 125.31.01 32.26.46 64.53.47 96.8.08 122.51.13 245.03-.11 367.54-.02 8.55 1.63 12.31 11.05 13.93 21.17 3.65 30.12 15.55 30.57 37.14.05 2.79.14 5.57.17 8.36.16 16.08.03 16.57 14.69 20.24 32.53 8.16 61.51 23.66 89.19 41.95 32.78 21.67 59.68 49.03 79.19 83.32 10.93 19.2 18.89 39.57 23.55 61.23.99 4.6.82 9.53 5.82 13.09 3.44 2.46 1.44 6.24-2.94 6.87-3.28.48-6.67.2-10.02.2-63.51 0-127.03-.01-190.54-.01h-188.26c-39.66.01-79.33.04-118.99-.05-3.4-.01-7.72 1.67-9.85-2.46-2.2-4.28 2.13-5.25 4.27-7.52 1.34-1.42 1.36-4.15 1.8-6.33 11.76-57.47 42.88-102.51 88.89-137.83 33.69-25.86 71.13-44.32 112.13-55.41 4.83-1.3 7-3.2 6.56-8.41-.46-5.53-.12-11.13-.11-16.7.05-22.14 8.79-33.69 30.78-37.7 8.98-1.63 11.16-4.77 11.13-13.68-.34-117-.39-234-.1-351 .08-34.31.64-68.67.44-102.94-.27-45.3.1-90.61-.54-135.91m-412.19 33.54c2.02-1.31 4.04-.06 6.06-.02-.08 22.71-.21 45.42-.2 68.13 0 17.54.24 35.09.25 52.63.04 66.61.07 133.21-.06 199.82-.01 4.65.89 6.69 6.01 7.57 11.51 1.99 16.37 8.46 16.62 20.2.03 1.51.07 3.03.09 4.54.09 8.74.02 9.01 7.99 11.01 17.68 4.43 33.44 12.86 48.48 22.8 17.83 11.78 32.45 26.66 43.06 45.3 5.94 10.44 10.27 21.51 12.8 33.29.54 2.5.45 5.18 3.17 7.12 1.87 1.33.78 3.39-1.6 3.73-1.78.26-3.63.11-5.45.11-34.53 0-69.06-.01-103.59-.01-34.12 0-68.23 0-102.35.01-21.56 0-43.13.02-64.69-.03-1.85-.01-4.2.9-5.36-1.34-1.2-2.33 1.16-2.86 2.33-4.09.72-.77.73-2.26.98-3.44 6.39-31.25 23.31-55.73 48.32-74.94 18.31-14.05 38.67-24.09 60.96-30.12 2.62-.71 3.81-1.74 3.57-4.57-.25-3.01-.07-6.05-.06-9.08.03-12.04 4.78-18.32 16.73-20.49 4.89-.89 6.07-2.6 6.05-7.44-.18-63.61-.21-127.22-.05-190.83.05-18.66.34-37.33.24-55.97-.15-24.62.05-49.26-.3-73.89M1584.86-994.6H397.63v597.69h1187.23z"/><path class="st2" d="M1480.86-925.43H485.7v472.44h995.16z"/><path class="st1" d="M1619.25-1898.83H397.62v672.09h1221.63z"/><path class="st3" d="M1592.72-1873.66h-1171v626.35h1171z"/><path class="st4" d="M2210.52 2499.64c0 25.13-172.77 45.51-385.91 45.51-213.13 0-385.91-20.38-385.91-45.51s172.78-45.5 385.91-45.5c213.14 0 385.91 20.37 385.91 45.5"/><path d="M1586.03 1617.88l-2.44 121.65-7.51 373.44-116.54 2.49-12.95-134.77c-7.93-82.47-6.5-165.59 4.67-247.68 2.75-20.22 5.68-37.38 8.51-48.08 9.31-35.31 23.47-69.75 43.77-74.25 7.95-1.76 15.77-2.63 23.23-2.88 33.15-1.1 59.26 10.08 59.26 10.08" fill="#b2937d"/><path class="st6" d="M1556.01-547.57h-30.53v364.29h30.53z"/><path class="st7" d="M1586.03 1617.88l-2.44 121.65c-38.81 62.99 234.09 418.63-19.95 404.24-59.6-3.38-82.93-77.45-82.78-267.81.11-148.91 45.91-268.16 45.91-268.16 33.15-1.1 59.26 10.08 59.26 10.08m-16.83 540.28v359.19l-13.19 5.1v-364.29z"/><path class="st6" d="M1785.82-547.57h-30.53v364.29h30.53z"/><path class="st7" d="M1799.02 2158.16v359.19l-13.19 5.1v-364.29z"/><path class="st6" d="M1635.38-547.57h-25.92v309.32h25.92z"/><path class="st7" d="M1646.59 2158.16v304.99l-11.21 4.33v-309.32z"/><path d="M1848 2174.56h-385.56c-6.8 0-12.37-5.57-12.37-12.38v-36.83c0-6.81 5.57-12.38 12.37-12.38H1848c6.8 0 12.37 5.57 12.37 12.38v36.83c0 6.81-5.57 12.38-12.37 12.38" fill="#b99d89"/><path class="st9" d="M1417.44 1223.88c-33.68-17.2-54.46-56.03-62.62-88.56-7.87-31.38-2.99-53.13-2.99-53.66l2.1-6.23s9.28-14.22 45.3 42.7c36.03 56.93 36.69 114.42 18.21 105.75"/><path d="M1897.67 2426.66s-16.11 66.24-17.8 74.78l155.17 30.8s21.34-21.91-18.05-37.57c-40.46-16.09-64.83-32.1-76.17-61.12-11.34-29.01-43.15-6.89-43.15-6.89m158.88-34.78s-16.1 66.24-17.8 74.78l155.18 30.8s21.34-21.91-18.06-37.57c-40.45-16.09-64.82-32.1-76.17-61.12-11.34-29.01-43.15-6.89-43.15-6.89"/><path d="M2105.03 2399.44c-11.91 6.42-11.91 6.42-27.51 9.86-.27.06-.55.12-.83.18-15.38 3.17-32.34 1.94-32.34 1.94s-35.21-101.03-43.21-120.91c-8.12-20.16-46.48-101.42-47.18-103.34l-.01-.02c-3.38 42.63-9.97 253.49-9.97 253.49s-15.36 5.13-35.39 5.86c-17.49.65-17.4 1.86-17.4 1.86s-30.82-97.86-42.02-152.6c-11.25-55.04-31.19-194.97-31.19-194.97s-83.18 27-192.75 21c-109.58-6-102.98-92.64-102.98-92.64-20-33.46 89.99-47.43 173.34-66.8 1.63-.38 3.2-.89 4.82-1.13 13.78-2.1 32.54-2.29 51.83-1.57 42.66 1.61 87.94 7.72 87.94 7.72s129.77 10.44 152.97 14.57c23.19 4.12 52.78 88.85 67.98 182.59 15.2 93.74 43.9 234.91 43.9 234.91" fill="#424242"/><path d="M1908.59 2446.51l-17.4 1.85s-30.82-97.85-42.02-152.6c-11.25-55.04-29.43-182.79-29.43-182.79s-84.94 14.82-194.51 8.82c-109.58-6.01-109.08-89.6-109.08-89.6-20.01-33.46 96.09-50.47 179.44-69.84 94.13-13.61 57.89 14.51 57.89 14.51s-143.05 52.29-145.86 77.43c-4.8 43.01 64.99 46.94 163.97 29.26 102.78-18.37 73.33 15.23 88.78 93.72 7.06 35.83 40.16 231.22 48.22 269.24" fill="#262626"/><path d="M2077.52 2409.3c-.27.05-.55.12-.83.18-15.38 3.17-32.34 1.94-32.34 1.94s-35.21-101.03-43.21-120.91c-8.12-20.16-46.48-101.42-47.18-103.33-.01-.03-.01-.04-.01-.04s-14.39-162.84-26.39-178.58c-12-15.76-174.08-31.7-174.08-31.7-4.53-12.19 33.92-5.24 33.92-5.24l99.57 12.94 36.59 9.56c36.59 9.56 46.9 94.3 61.9 171.91s92.06 243.27 92.06 243.27" fill="#141615"/><path class="st14" d="M1530.65 1872.71s-31.89 168.39-13.65 168.39c0 0 7.95-9.8 13.76-12.39 43.18-19.26 95.78-6.43 177.87-41.43 70.65-30.13 108.89-22.61 108.89-22.61s-15.95-102.81-13.8-141.43c2.15-38.63-273.07 49.47-273.07 49.47"/><path class="st15" d="M1826.7 1451.41c0 3.36-5.23 31.02-12.89 59.42-7.66 28.39-22.98 64.65-67.45 66.89 0 0-.81 11.45-1.08 22.06-.22 8.55-.09 16.55 1.08 17.55 2.61 2.24-26.16 9.9-50.26 0-24.11-9.9-36.44-25.6-36.44-25.6s28.03-29.1 27.47-54.91c-.56-25.81-32.51-45.43-14.58-73.45 17.94-28.03 113.24-63.53 128.37-34.01 0 0 10.25 7.43 17.83 13.77 4.43 3.7 7.95 7.04 7.95 8.28"/><path class="st16" d="M1818.75 1443.13c-4.53 7.38-8.71 12.64-8.71 12.64s-51.35-22.67-60.32-4.36c-8.97 18.31-2.61 36.25-30.27 53.06-27.65 16.82-31.76 76.24-14.57 85.58 17.02 9.26 39.76 9.79 40.4 9.73-.22 8.55-.09 16.55 1.08 17.55 2.61 2.24-26.16 9.9-50.26 0-24.11-9.9-36.44-25.6-36.44-25.6s28.03-29.1 27.47-54.91c-.56-25.81-32.51-45.43-14.58-73.45 17.94-28.03 113.24-63.53 128.37-34.01 0 0 10.25 7.43 17.83 13.77"/><path d="M1843.89 1462.62c-29.78-2.9-52.66-13.19-65.08-20.06-2.05-1.15-3.82-2.19-5.29-3.09-5.91-3.65-12.99-5.14-19.8-3.77-25.41 5.13-19.73 43.92-22.31 49.72-2.99 6.72-4.86 1.86-4.86 1.86-.75-29.52-38.86-42.97-45.21-19.43-6.36 23.54 8.59 34.75 8.59 34.75 1.12 20.93-4.1 25.62-4.1 25.62-14.19 8.05-38.87-5.81-38.87-5.81s-1.13-16.82 4.86-59.79c.94-6.77 2.44-13.66 4.55-20.46 11.29-36.4 40.07-70.62 94.85-74.08 65.02-4.12 85.2 44.84 83.33 63.52-1.87 18.69 9.34 31.02 9.34 31.02" fill="#2e150c"/><path d="M1778.81 1442.55v.01c-2.05-1.15-3.82-2.19-5.29-3.09-5.91-3.65-12.99-5.14-19.8-3.77-25.41 5.13-19.73 43.92-22.31 49.72-2.99 6.72-4.86 1.86-4.86 1.86-.75-29.52-38.86-42.97-45.21-19.43-6.36 23.54 8.59 34.75 8.59 34.75 1.12 20.93-4.1 25.62-4.1 25.62-14.19 8.05-38.87-5.81-38.87-5.81s-1.13-16.82 4.86-59.79c.94-6.77 2.44-13.66 4.55-20.46 22.6 3.23 59.12 5.9 77.66-6.45 28.02-18.68 44.78 6.84 44.78 6.84m-131.85 79.86s-79.79 11.58-58.49 67.64c0 0 32.76-8.97 35.72-30.83 2.96-21.86 22.77-36.81 22.77-36.81" fill="#190703"/><path d="M1863.7 1879.29h-120.52c-29.14 0-120.51-4.44-120.51-4.44-21.31 16.84-92.31 27.98-92.31 27.98-48.2 8.22-57.17-8.59-57.17-8.59-23.17-66.52 57.55-246.27 81.83-271.97 24.3-25.7 58.31-23.62 81.1-28.85 10.21-2.35 15.98-5.28 19.41-8.19 4.26-3.59 4.98-7.16 6.19-9.57 2.99-5.98 8.51 3.16 8.51 3.16 24.03 24.64 47.36 31.03 59.31 29.92 11.96-1.13 15.74-8.95 15.74-8.95 6.04-4.84 8.18 1.47 8.18 1.47.82 5.72 3.02 9.34 6.88 12.3 6.74 5.17 18.54 8.29 36.84 16.85 28.77 13.45 36.25 47.65 40.74 86.89 4.48 39.23 25.78 161.99 25.78 161.99" fill="#f8bc40"/><path class="st14" d="M1803.72 1711.13l5.22 178.25 31.78-10.09z"/><path class="st14" d="M1808.94 1871.51s-39.04 13.01-91.36 13.29c-52.31.28-94.91-9.96-94.91-9.96s45.59-16.48 51.56-19.47c5.98-2.99 3.74-7.47 3.74-7.47l-.03.03c-3.98 2.24-9.31-1-13.3-6.58-3.86-5.4-6.45-13-5.35-19.98 2.16-13.7 11.62-12.45 12.29-12.35.01 0 .02.01.04.01 0 0 2.99-10.83-26.54-1.11-29.52 9.71-85.2 20.92-85.2 20.92 1.13-8.41 38.68-109.3 38.68-109.3s-11.77 78.66-14.01 86.88c-2.24 8.22 58.67-4.11 79.22-7.1 3.78-.55 11.08 1.55 20.48 5.33 41.7 16.79 124.69 66.86 124.69 66.86"/><path class="st15" d="M1808.94 1871.51l-66.89 1.2s-2.23-1.83-5.03-6.12c0 0-16.17-3.5-29.86-11.99-.01-.01-.02-.01-.02-.01-6.32-3.92-12.1-8.9-15.53-15.1l-13.64 8.41-.01.01c-7.84 4.47-20.91-12.35-18.67-26.54 2.16-13.7 11.62-12.45 12.29-12.35.01 0 .02.01.04.01 0 0 6.02-2.2 12.63-4.38 6.73-2.21 14.07-4.4 16.33-4.21 4.49.37 86.14 36.44 90.06 40.54.27.29.6.68.97 1.17 4.88 6.49 17.33 29.36 17.33 29.36"/><path class="st16" d="M1691.61 1839.49l-13.64 8.41-.03.03c-3.98 2.24-9.31-1-13.3-6.58 12.19-6.91 22.04-16.44 23.05-12.52 1.49 5.79 3.92 10.66 3.92 10.66m117.33 32.02l-66.89 1.2s-2.23-1.83-5.03-6.12c0 0-16.17-3.5-29.86-11.99.74.32 26.71 11.38 50.29 4.51 14.17-4.13 26.51-10.98 34.16-16.96 4.88 6.49 17.33 29.36 17.33 29.36"/><path class="st20" d="M1622.67 1874.84v23.88h221.41v-27.84z"/><path class="st16" d="M1746.36 1577.72s-32.26-1.45-37.25-28.78c0 0-3.24 13.06 4.99 27.33 8.22 14.28 31.59 12.78 31.59 12.78z"/><path class="st14" d="M1760.34 1613.56s-56.93 19.63-104.81-28.33c4.26-3.6 4.98-7.16 6.18-9.57 3-5.98 8.52 3.16 8.52 3.16 24.03 24.64 47.36 31.03 59.31 29.92 11.96-1.13 15.74-8.95 15.74-8.95 6.04-4.84 8.18 1.47 8.18 1.47.82 5.72 3.02 9.34 6.88 12.3"/><path class="st20" d="M2225.54 1688.94l-86.49 203.28h-321.07l89.83-214.77c2.3-5.49 7.67-9.07 13.63-9.07h290.5c10.6 0 17.75 10.81 13.6 20.56"/><path class="st21" d="M610.47 1858.19c4.15 16.31 5.58 32.06 6.04 47.62.63 15.59-.11 30.91-1.61 46.07-2.33 30.46-14.91 58.85-23.04 88.13-8.09 29.3-16.6 58.51-25.53 87.63-9.37 29.03-18.02 58.21-28.02 87.12l-5-1.01c2.03-30.52 5.41-60.77 8.06-91.16 3.1-30.31 6.62-60.52 10.55-90.66 3.9-30.14 3.34-61.19 13.05-90.15 4.51-14.56 9.78-28.95 16.43-43.08 6.47-14.15 13.92-28.11 24.08-41.52zm-217.16 232.57c7.6.61 13.75 2.55 19.38 4.97 5.73 2.33 10.72 5.34 15.3 8.72 9.57 6.39 13.6 17.88 20.06 27.14 6.47 9.25 12.71 18.7 18.73 28.36 5.79 9.87 11.96 19.4 17.4 29.58l-2.65 2.45c-9.7-6.28-18.67-13.22-28.04-19.81-9.12-6.8-18.02-13.81-26.7-21.02-8.68-7.21-19.8-12.18-25.38-22.25-2.98-4.85-5.56-10.07-7.41-15.97-1.94-5.82-3.37-12.11-3.34-19.73z"/><path class="st22" d="M647.04 2021.76c2.09 10.97 1.78 20.55.62 29.65-1.01 9.17-3.23 17.65-6.13 25.74-5.15 16.55-19.48 27.81-29.78 41.39a1043.873 1043.873 0 01-31.98 40.11c-11.42 12.93-22.21 26.22-34.19 38.83l-4.41-2.54c4.93-16.68 11.06-32.67 16.54-49.03 5.88-16.13 12.13-32.05 18.75-47.75 6.61-15.71 9.19-33.75 20.95-46.48 5.55-6.56 11.79-12.72 19.23-18.19 7.29-5.55 15.44-10.61 25.99-14.28z"/><path class="st21" d="M680.42 2112.9c-1.89 8.04-4.96 14.26-8.44 19.82-3.42 5.67-7.43 10.42-11.78 14.66-8.36 8.96-21.25 10.92-32.15 15.95-10.9 5.04-21.97 9.8-33.23 14.28-11.46 4.17-22.6 8.84-34.33 12.59l-2.17-3.37c8.26-9.13 17.11-17.35 25.64-26.06 8.73-8.41 17.64-16.53 26.73-24.38 9.09-7.85 16.19-18.77 27.81-22.69 5.65-2.21 11.63-3.9 18.21-4.67 6.5-.88 13.43-1.1 21.54.5zm-174.33-306.51c15.56 34.92 22.51 70.21 27.45 105.58 5.24 35.36.14 71.16-.56 106.77-.6 35.61-1.63 71.24-3.09 106.88-1.91 35.67-3.09 71.3-5.64 106.99l-5.09.22c-5.58-35.35-9.78-70.75-14.72-106.12-4.48-35.4-8.54-70.81-12.17-106.23-3.72-35.43-11.85-70.66-9.63-106.34 1.92-35.67 5.84-71.42 18.37-107.53z"/><path class="st22" d="M420.56 1942.63c10.43 8.55 18.22 17.94 25.07 27.64 7.01 9.65 12.69 19.72 17.63 30.04 10.54 20.41 11.13 44.04 16.03 66.27 4.94 22.23 9.48 44.58 13.61 67.06 3.7 22.63 8.09 45.02 11.18 67.84l-4.85 1.57c-10.83-20.32-20.35-41.07-30.57-61.59-9.79-20.65-19.17-41.44-28.15-62.36-9.02-20.91-22.35-40.42-25.73-63.15-2.02-11.26-3.3-22.75-3.25-34.68-.11-11.87.72-24.05 4.19-37.07z"/><path class="st21" d="M619.37-524.62H437.42v45.28h181.95z"/><path class="st22" d="M605.22-479.34H451.57v137.25h153.65z"/><path class="st23" d="M2361.82 2435.04s2.62 31.03-6.12 39.73c-8.75 8.69 39.07 10.89 42.13 8.71 3.07-2.19 2.17-51.91 2.17-51.91zm222.18-25.58s12.4 26.77 7.44 37.34c-4.97 10.58 36.38-1.84 38.39-4.78 2.02-2.94-11.01-47.51-11.01-47.51z"/><path d="M2278.57 1293.72l-19.45 125.69s20.87-5.56 39.42 5.76c18.56 11.32 101.58-3.77 112.27-26.73 10.69-22.96 27.67-110.69 15.41-120.76-12.27-10.06-35.89-6.05-35.89-6.05z" fill="#e2b370"/><path d="M2632.04 2410.97c-7.08 3.23-14.72 5.7-22.29 7.61-.03.01-.04.01-.04.01-25.56 6.42-37.72 5.79-37.72 5.79s-4.89-5.79-29.54-90.38c-24.61-84.53-49.38-138.06-48.26-178.83 1.13-40.78-29.17-119.71-46.01-203.85-16.83-84.13-25.06-88.93-25.06-88.93s-18.71 186.53-8.08 272.95c10.64 86.43-2.1 306.9-2.1 306.9-50.13 19.45-66.24 1.98-66.24 1.98 7.86-115.22-45.55-349.28-48.91-402.03-1.28-19.95-4.96-59.52-9.05-100.99-6.72-68.14-6.31-142.64-6.31-142.64-3.08-29.22 163.51-103.18 190.44-108.78 26.93-5.62 59.69 87.97 85.3 121.21 25.6 33.23 25.81 329.96 54.62 384.42.27.52.54 1.03.8 1.56 27.7 55.67 18.53 212.59 18.45 214" fill="#102166"/><path class="st26" d="M2632.04 2410.97v.01c-11.91 5.68-21.64 7.49-22.29 7.6-.03.01-.04.01-.04.01-12.4-86.54-59.69-407.11-95.79-521.16-41.9-132.36-130.87-29.6-150.06 0-19.04 29.37-74.28 43.55-75.12 43.77-6.72-68.14-6.27-148.54-6.27-148.54-3.08-29.21 163.47-97.28 190.4-102.88 26.93-5.62 59.69 87.97 85.3 121.21 25.6 33.23 25.81 329.96 54.62 384.42.27.52.54 1.03.8 1.56 27.7 55.67 18.53 212.59 18.45 214"/><path class="st27" d="M2326.61 1358.17s8.56 34.5 1.8 57.94c-7.34 25.39 56.3 5.91 64.47 1.51 8.18-4.4-.12-18.53-.12-18.53s-11.83-33.04-15.29-67.63c-3.45-34.59-50.86 26.71-50.86 26.71"/><path class="st23" d="M2407.66 1283.03c-1.57 16.67-14.46 26.73-14.46 26.73-5.98 26.42-14.25 37.22-24.53 46.54a44.633 44.633 0 01-17.09 9.67c-17.14 5.19-35.71-.02-45.49-7.47-13.21-10.06-59.12-66.04-46.54-115.09.88-3.45 1.81-6.58 2.77-9.38 12.63-37.03 30.56-20.18 30.56-20.18l85.54-1.26s30.54 56.65 29.24 70.44"/><path class="st27" d="M2407.66 1283.03c-1.57 16.67-14.46 26.73-14.46 26.73-5.98 26.42-14.25 37.22-24.53 46.54a44.633 44.633 0 01-17.09 9.67c.01-.01.02-.01.02-.02 20.35-11.65 46.89-75.75 9.24-76.91-37.65-1.16-68.57-25.06-73.95-42.61-5.38-17.56-19.07 0-19.07 0s-3.12-4.68-5.5-12.4c12.63-37.03 30.56-20.18 30.56-20.18l85.54-1.26s30.54 56.65 29.24 70.44"/><path class="st28" d="M2504.28 1760.8s-106.77 79.08-200.33 27.99l-.63-19.21-9.24-282.75-.04-1.21s6.91-65.12 11.31-68.55c4.41-3.42 15.42-10.46 16.02-6.5 0 0-.73 10.66 12.48 13.59 13.21 2.94 48.06-1.09 53.57-17.6l5.5-16.52s16.51-17.34 29.35-8.67c12.85 8.67 60 105.9 56.7 157.09-3.31 51.18 25.31 222.34 25.31 222.34"/><path class="st29" d="M2504.28 1760.8s-106.77 79.08-200.33 27.99l-.63-19.21c35.59 25.94 98.04 28.54 123.17 3.19 31.52-31.8-10.03-265.75-21.41-303.41-11.38-37.65-56.25-41.85-73.39-20.55-10.45 12.98-7.32 73.05-7.32 73.05s-16.08-12.17-30.29-35.03l-.04-1.21s6.91-65.12 11.31-68.55c4.41-3.42 24.4-14.76 24.99-10.79 0 0-4.7 15.65 8.5 18.59 13.22 2.93 43.07-1.8 48.58-18.31l5.5-16.52s16.51-17.34 29.35-8.67c12.85 8.67 60 105.9 56.7 157.09-3.31 51.18 25.31 222.34 25.31 222.34"/><path class="st30" d="M2275.46 1891.48l-37.73.74s31.51-132.73 34.15-274.68c0 0 6.11 234.74 3.58 273.94m45.55-404.94c-5.14-51.99-1.43-77.78-1.43-77.78-1.4-7.21-55.81 24.95-63.31 32.54s-67.66 415.38-67.66 415.38l49.12 35.54 93.96 10.4s-5.08-359.45-10.68-416.08"/><path class="st9" d="M2271.95 1620.12c.19 7.71.81 32.04 1.5 63.29-.47-21.87-.99-43.32-1.5-63.29"/><path class="st31" d="M2237.73 1892.23s31.51-132.74 34.15-274.69v.03c-1.61-62.46-3.16-109.93-3.16-109.93-7.15-7.16-10.8 38.85-12.45 98.84-1.65 59.99-32.99 251.31-32.99 251.31s-17.06-15.74-31.18.23c-3.73 4.23 2 33.69 2 33.69z"/><path d="M2209.51 1858.74s7.69 1.71 12.06 11.22c4.37 9.5 7.8 21.75 7.8 21.75h-35.27z" fill="#6d0500"/><path class="st30" d="M2440.62 1378.94s74.12 2.11 93.93 51.92c19.81 49.81 21.28 106.81 35.96 161.6 14.67 54.79 34.12 194.58 44.03 237.26l-24.95 31.8s-50.64 15.41-79.26 0c-28.62-15.41-84.6-453.21-89.16-467.81-4.55-14.59 19.45-14.77 19.45-14.77"/><path d="M2275.23 1242.94s3.87-19.32 16.35-.3c7.13 10.86 9.07 59.31 87.11 37.46 0 0 18.73-6.24 21.1 31.51 2.38 37.76-16.35 89.78-32.7 99 0 0 43.11 8.32 68.68-19.32 25.56-27.65 13.67-118.62-44-177.48-57.68-58.87-111.78-4.17-111.78-4.17s-16.72.9-23.45 28.1c-6.73 27.2 8.88 160.98-13.86 178.37 0 0 23.63 16.05 29.87-18.28 0 0 9.82-59.76-5.79-124.42 0 0-4.02-33.59 8.47-30.47" fill="#f5d9a1"/><path class="st31" d="M2496.02 1488.93s15.78 124.56 29.72 182.53c13.95 57.98 50.64 184.19 50.64 184.19s5.38-13.94 16.38-18.83c11.01-4.89 17.23 9.18 17.23 9.18l-20.4 15.52s-15.7 5.04-30.35 5.95c0 0-51.84-148.31-63.22-278.19-11.37-129.89 0-100.35 0-100.35"/><path class="st23" d="M2223.9 1875.17s-13.29 7.41-20.7 13.52c-7.41 6.11-18.06 3.62-22.57-.31-4.53-3.93-26.93 9.55-36.03 1.18-9.1-8.38.58-4.04 19.07-15.09 0 0-15.85-6.71-23.47-12.55l-7.62-5.83s-10.95 9.53-20.67 12.69c0 0-10.34 23.65-18.65 23.19-8.31-.47-1.97-7.87-.53-11.24 1.45-3.38 9.24-21.91 12.26-25.26 3.02-3.34 16.31-8.49 22.62-11.67 6.31-3.18 5.54-7.54 18.08-3.36s45.17 19.96 50.75 18.34c.19-.05 2.91-1.41 3.1-1.46 13.16-4.01 22.35 7.39 24.36 17.85"/><path class="st4" d="M2740.82 2522.73c0 14.08-113.34 25.49-253.15 25.49s-253.14-11.41-253.14-25.49c0-14.08 113.33-25.49 253.14-25.49s253.15 11.41 253.15 25.49"/><path class="st23" d="M2580.38 1848.16s3.85 5.51 4.66 16.22c.81 10.72 12.1 17.84 19.48 18.75 7.38.91 14.31 29.65 29.59 31.14 15.28 1.49 3.14-3.45-2.65-27.12 0 0 9.18 5.82 20.91 7.94 11.74 2.12 13.85.21 13.85.21s-2.09 6.12 3.34 16.62c0 0-9.58 15.97-2.09 22.61 7.49 6.64 8.75-4.13 10.56-7.82 1.81-3.69 8.95-13.76 9.39-18.75.44-5-3.41-9.86-5.91-17.51-2.51-7.64 2.07-10.19-12.36-17.66-14.43-7.47-48.15-18.83-51.44-24.71-3.28-5.87-6.75-13.8-6.75-13.8s-20.23-5.27-30.58 13.88"/><path d="M2358.44 2470.62s21.71 13.7 38.43 0c0 0 2.43-2.64 4.76 0 2.33 2.63 6.71 52.8 4.08 59.22h-128.62s-13.12-4.09-11.66-16.04c1.45-11.96 63.87-27.13 77.87-35.88 14-8.75 15.14-7.3 15.14-7.3m234.1-28.4s23.76 5.15 34.2-12.46c0 0 1.3-3.14 4.24-1.55 2.93 1.59 23.1 44.82 22.84 51.38l-114.47 41.73s-13 .62-15.59-10.49c-2.58-11.12 48.05-44.87 57.67-57.2 9.62-12.33 11.11-11.41 11.11-11.41" fill="#63473a"/><path class="st26" d="M2402.48 1306.2c0 5.39-4.37 9.75-9.75 9.75-5.39 0-9.76-4.36-9.76-9.75s4.37-9.75 9.76-9.75c5.38 0 9.75 4.36 9.75 9.75"/><path d="M2687.78-814.02H1189.76v26.6h1498.02z" fill="#878787"/><path d="M2601.65-787.65h-25.8v654.06h25.8zm-1310.1 0h-25.8v654.06h25.8z" fill="#727272"/><path class="st2" d="M2754.87-1510.14h-10.53v1060.25h10.53zm44.87 3790.42h-100.27c0-21.83 22.45-39.53 50.13-39.53 27.69 0 50.14 17.7 50.14 39.53m-124.6 28.54h154.36c1.27 0 2.3-1.03 2.3-2.29v-23.96c0-1.27-1.03-2.29-2.3-2.29h-154.36c-1.27 0-2.3 1.02-2.3 2.29v23.96c0 1.26 1.03 2.29 2.3 2.29"/><path class="st1" d="M2931.96 1177.62s-24.93 22.46-181.76 22.46c-156.83 0-181.75-22.46-181.75-22.46l95.92-215.78h171.66z"/><path class="st2" d="M2836.03 961.84h-2.12c-8.96 144.41-123.79 223.7-246.39 172.87l-19.07 42.91s24.92 22.46 181.75 22.46c156.83 0 181.76-22.46 181.76-22.46z"/><path class="st4" d="M1323.68 2673.33c0 17.9-106.65 32.41-238.22 32.41-131.56 0-238.22-14.51-238.22-32.41 0-17.89 106.66-32.4 238.22-32.4 131.57 0 238.22 14.51 238.22 32.4"/><path class="st28" d="M1113.17 2565.15s-3.11 73.21-3.11 82.58h170.06s17.91-27.57-26.91-35.85c-46.02-8.49-75.06-20.27-93.1-48.49-18.03-28.23-46.94 1.76-46.94 1.76m-115.29 20.73s-3.91 16.36-17.07 28.81-72.91 45.88-75.05 55.49c-2.13 9.6-2.13 15.65 19.21 18.49 21.34 2.85 126.26-28.45 128.75-34.14 2.49-5.69-7.35-50.12 6.05-76.47 13.4-26.35-61.89 7.82-61.89 7.82"/><path class="st37" d="M1205.64 1698.43s-19.04 53.94-19.04 95.83 26.02 116.14 26.02 116.14 74.28-27.37 74.27 26.93c0 0 28.55-38.35-10.17-134.82-38.71-96.47-71.08-104.08-71.08-104.08"/><path class="st38" d="M1207.55 2300.71c-19.67 105.35-24.12 274.17-24.12 274.17-31.63 12.85-53.54 11.82-66.9 8.25-11.04-2.94-16.23-7.62-16.23-7.62 1.26-43.79-10.16-233.55-10.16-233.55-3.18 32.36-17.77 251.95-17.77 251.95-53.31 20.95-102.18 2.54-102.18 2.54s-9.52-326.2-7.62-380.78c1.22-34.73-4.06-141.12-8.05-213.92-2.29-41.63-4.16-72.28-4.16-72.28 1.32-52.64 169.61-213.06 243.23-147.06 10.7 9.6 19 25.13 25.31 45v.01c37.1 116.79 5.47 383.26-11.35 473.29"/><path class="st37" d="M1153.6 1841.11c-1.27 10.26 13.96 30.62-16.5 63.6-30.3 32.81-181.01 96.37-182.58 97.04-2.29-41.63-4.16-72.28-4.16-72.28 1.32-52.64 169.61-213.06 243.23-147.06 10.7 9.6 19 25.13 25.31 45v.01s-64.02 3.44-65.3 13.69m-31.09 535.33c4.67 82.16-4.56 164.97-5.98 206.69-11.04-2.94-16.23-7.62-16.23-7.62 1.26-43.79-10.16-233.55-10.16-233.55s10.37-109.37 10.37-137.3c0-27.92 33.84-280.09 39.76-274.17 5.92 5.93-24.21 332.56-17.76 445.95"/><path class="st39" d="M1099.24 1334.78s-6.35 11.28-34.13 18.88c0 0-.43 26.25 14.52 68.55 14.96 42.31-48.23 49.94-52.74 46.26-1.46-1.18-5.43-5.86-10.13-11.68-9.93-12.25-23.16-29.49-23.16-29.49s11.01-5.93 7.06-31.04c-3.95-25.1-31.32-64.59-37.24-67.41-5.92-2.81-25.95-22.84-16.92-58.38 9.02-35.54 59.79-81.52 69.39-84.34 9.58-2.82 31.3-9.59 31.3-9.59s9.17 8.4 19.02 23.05c2.84 4.22 5.73 8.97 8.48 14.19l12.27 23.26s38.93 60.93 12.28 97.74"/><path class="st40" d="M1010.8 1322.92c-19.54 40.61 39.78 131.23 39.78 131.23s-14.18 2.78-33.82 2.64c-9.93-12.25-23.16-29.49-23.16-29.49s11.01-5.93 7.06-31.04c-3.95-25.1-31.32-64.59-37.24-67.41-5.92-2.82-25.95-22.84-16.92-58.38 9.02-35.54 59.79-81.52 69.39-84.35 9.58-2.81 31.3-9.58 31.3-9.58s9.17 8.4 19.02 23.05c0 0-20.71-3.17-31.29 13.34-10.57 16.49-19.88 33-35.11 36.81-15.23 3.8 30.53 32.56 10.99 73.18"/><path class="st37" d="M1032.81 1828.39s75.59 5.36 122.98-4.51c47.39-9.88 56.5-13.99 56.5-13.99s-3.47-22.12-4.32-22.68c-.85-.57-156.55-11.85-175.16 41.18"/><path class="st2" d="M1222.78 1788.55c-2.79 6.03-21.26 12.36-46.76 17.66-44.27 9.22-109.72 15.38-150.97 11.67-52.96-4.77-40.24-229.66-33.7-312.91 1.49-18.96 2.66-30.57 2.66-30.57s37.67-34.42 64.75-13.82c0 0 25.35-23.7 45.82-8.18 20.46 15.51 95.98 203.08 95.98 203.08s29.84 116.57 22.22 133.07"/><path d="M1076 1215.33l-9.79-15.75s-4.63-15.99-27.76-4.15c-5.2 2.66-8.58 6.1-11.33 9.98-.04.04-.06.08-.08.12-9.43 13.39-11.44 31.93-53.75 41.52 0 0 25.11 19.18 28.77 40.34 3.67 21.15-2.81 16.64-2.81 16.64s-10.16-18.05-25.96-14.95c-15.79 3.1-19.18 26.23-10.15 31.31 9.03 5.08 14.95 7.9 14.95 7.9s19.49 30.44 11.57 38.21c0 0-3.67 3.51-11.57 0-7.9-3.52-18.05-22.45-45.7-43.58-27.64-21.15-41.46-80.67 18.34-109.43 0 0-6.78-40.62 49.64-60.64 50.27-17.86 72.01 14.9 77.21 28.25.02.02.03.04.04.07.62 1.61 1 2.92 1.16 3.83 1.98 11-2.78 30.33-2.78 30.33" fill="#72351f"/><path d="M1076 1215.33l-9.79-15.75s-4.63-15.99-27.76-4.15c-5.2 2.66-8.58 6.1-11.33 9.98 2.38-3.92 35.46-57.19 50.46-24.31.02.02.03.04.04.07.62 1.61 1 2.92 1.16 3.83 1.98 11-2.78 30.33-2.78 30.33" fill="#54190c"/><path class="st40" d="M1065.11 1353.66s-23.56 2.27-49.23-8.73c0 0-2.06 3.6 10.5 15.44 12.56 11.85 40.91 15.02 40.91 15.02s-2.25-13-2.18-21.73"/><path class="st43" d="M1075.94 1411.13s2.56 25.75-17.18 49.45c0 0 21.15-14.11 55.28 11 0 0-35.02-67.86-38.1-60.45"/><path class="st29" d="M1200.56 1655.48s-75.52-187.57-95.98-203.08c-20.47-15.52-45.82 8.18-45.82 8.18-27.08-20.6-64.76 13.82-64.76 13.82s-1.16 11.61-2.65 30.57c11.54 12.4 27.08 14.27 27.08 14.27s5.35-18.9 18.15-33.46c.07-.06 7.14-6.25 11.72 4.7 4.61 11 45.61 54.01 37.49 327.4l18.79-1.43s5.16-82.28-11.31-182.97c-16.46-100.69-28.77-161.34-36.79-161.9 7.89-2.85 17.15-3.38 27.95 0 48.23 15.09 126.05 309.77 91.58 334.62l.01.01c25.5-5.3 43.97-11.63 46.76-17.66 7.62-16.5-22.22-133.07-22.22-133.07"/><path class="st31" d="M1037.46 1461.28s9.17 27.79 18.48 28.35c9.31.56 20.45-4.09 22.14-6.91 1.69-2.82.27-17.18-3.39-32.35 0 0-10.29 5.27-15.93 10.21 0 0-6.77-7.2-21.3.7"/><path class="st30" d="M1076.48 1484.26s30.79 89.78 46.03 197.03c15.23 107.26 19.03 149.78 19.03 149.78s-8.03 32.86-23.27 48.09c0 0-17.56-35.26-25-45.69 0 0 8.72-238.64-35.14-344.63 0 0 17.47-7.02 18.35-4.58"/><path class="st43" d="M1058.76 1460.58s-6.21-7.05-24.82-15.23c-18.62-8.18-33.79-28.22-33.79-28.22s-8.52 1.98-8.81 16.93c-.28 14.95 22.01 83.21 22.01 83.21s20.59-70.23 45.41-56.69"/><path class="st38" d="M1035.56 1916.11l-107.25 39.99s20.3-185.32 12.68-284.96c0 0-41.6 64.45-41.6 72.63 0 8.18 9.59 27.36 15.24 59.8 5.63 32.43 11.28 54.71 11.28 54.71s-9.87 12.7-33 18.62c-23.13 5.92-30.19 5.92-30.19 5.92-.28-1.41-42.69-155.31-40.4-167.26 11.78-61.39 74.46-228.18 101.33-243.98 26.86-15.8 52.89-26.37 52.89-26.37s-.01-.01-.02-.03c-.19-.3-1.59-2.83 2.77-10.56 4.65-8.24 12-14.51 13.51-9.38 0 0 15.04 52.12 27.53 84.91 6.97 18.32 22.2 62.46 27.97 142.79.02.23.04.47.05.7 4.5 63.38 3.11 149.19-12.79 262.47"/><path class="st44" d="M1003.76 1584.12c3.1-5.64 11.56-46.26 11.56-46.26-6.2-11-42.03-22.28-42.03-22.28l3.25-70.37s-.01-.01-.02-.03c-.19-.3-1.59-2.83 2.77-10.56 4.65-8.24 12-14.51 13.51-9.38 0 0 15.04 52.12 27.53 84.91 6.97 18.32 22.2 62.46 27.97 142.79-1.73-22.45-44.54-68.82-44.54-68.82"/><path class="st37" d="M979.22 1591.17l-38.23 79.97 1.71 52.32s58.8-162.19 36.52-132.29"/><path class="st45" d="M866.39 1872.11l12.41 30.46s23.69 4.52 50.49-18.33l-8.74-32.44-54.16 20.31z"/><path d="M1078.5 1904.69s-24.96 13.62-41.25 14.53c-16.29.91-3.81 16.99 9.1 18.05 12.9 1.05 41.67-9.95 32.15-32.58" fill="#9c9c9c"/><path class="st3" d="M1062.85 1935.78c-31.1 11.43-81.97 25.7-81.97 25.7l-34.61 8.06-33.02 7.67-12.31 2.86s-39.48 14.74-96.18 44.35c0 0-14.31-2.26-22.33-17.19-4.01-7.46-6.44-18.08-4.75-33.15 0 0 48.29-9.46 106.8-25.18 5.5-1.48 11.1-3.02 16.77-4.6 16.13-4.53 32.75-9.5 49.11-14.83 12.36-4.02 24.57-8.26 36.31-12.68 27.47-10.33 52.38-21.67 70.68-33.68 0 0-4.7 18.19-2.09 30.29 1.26 5.89 4.24 10.33 10.34 10.54 18.27.62 13.12-18.5 12.91-19.23.47.59 14.96 19.83-15.66 31.07"/><path class="st2" d="M913.25 1977.21l-12.31 2.86s-39.48 14.74-96.18 44.35c0 0-14.3-2.26-22.33-17.19 28.17 4.06 92.39-22.41 99.76-28.5 8.46-6.98 2.29-29.83 2.29-29.83 5.5-1.48 11.1-3.02 16.77-4.6 4.03 5.82 6.94 17.51 10.98 22.79 1.7 2.24 1.93 5.69 1.02 10.12m149.6-41.43c-31.1 11.43-81.97 25.7-81.97 25.7l-34.61 8.06c-2.04-4.28-2.8-10.18-1.89-18.1 1.1-9.46 3.23-16.6 5.98-21.97 12.36-4.02 24.57-8.26 36.31-12.68h.01s-17.65 11.61-12.69 28.37c3.42 11.5 50.21-12.7 81.27-31.76 1.26 5.89 4.24 10.33 10.34 10.54 18.27.62 13.12-18.5 12.91-19.23.47.59 14.96 19.83-15.66 31.07"/><path class="st39" d="M980.24 1969.84c-8.25 10.9-16.93-3.38-20.09 1.7-3.18 5.08-11.22 4.55-13.23 3.49-2.01-1.06-3.92 3.6-7.83 6.77-3.91 3.17-10.15 1.9-12.79 1.16-2.65-.74-4.87 2.44-10.05 4.86-5.19 2.44-10.68-1.05-10.68-1.05-11.75-13.23-14.36-40.48-14.64-59.1-.28-18.61-4.79-32.15-4.79-32.15l31.31-14.67s5.07 15.66 8.31 19.47c3.25 3.81 36.81 10.43 45 12.54 8.17 2.13 8.67 6.36 8.67 6.36s-11.15 5.35-13.26 10.85c-1.91 4.96-1.37 15.23 3.81 22.85 5.19 7.61 10.9 8.56 10.9 8.56.43.78.69 1.56.8 2.32.51 3.26-1.44 6.04-1.44 6.04"/><path class="st40" d="M981.68 1963.8c-16.7 7.97-29.42-19.36-24.61-31.61 5.08-12.9 22.36-12.97 22.36-12.97s-11.15 5.35-13.26 10.85c-1.91 4.96-1.37 15.23 3.81 22.85 5.19 7.61 10.9 8.56 10.9 8.56.43.78.69 1.56.8 2.32"/><path class="st38" d="M1255.14 1723.46c80.54 163.25 32.58 213.03 31.75 213.87.3-.89 16.7-49.25-28.57-127.84-33-57.28-64.31-121.4-86.59-175.98 0-.01 0-.02-.01-.03-8.57-21-15.81-40.59-21.29-57.82-19.74-62.05-70.87-162.93-70.87-162.93-2.51-11.8 20.96 15.67 21.57 16.38l.01.01s26.02 4.24 43.37 8.05c17.34 3.8 71.32 68.05 71.32 68.05-5.36-16.92-5.75-81.83-5.75-81.83 30.47-14.85 51.41-10.66 51.41-10.66s28.56 67.38 38.09 125.44c5.39 32.94 2.24 66.92-2.96 90.71-3.95 18.12-9.08 30.34-12.49 31.68-6.26 2.46-57.54-15.44-57.54-15.44 9.52 46.32 28.55 78.34 28.55 78.34"/><path class="st44" d="M1171.72 1633.48c-8.57-21-15.81-40.59-21.29-57.82-19.74-62.05-70.87-162.93-70.87-162.93-2.51-11.8 20.96 15.67 21.57 16.38l.01.01s48.65 63.89 47.6 68.97c-1.06 5.08-6.77 20.74-6.77 20.74l26.65 21.15s1.57 85.94 3.1 93.5"/><path class="st37" d="M1296.62 1628.88c-3.95 18.12-9.08 30.34-12.49 31.68-6.26 2.46-57.54-15.44-57.54-15.44l-52.03-127.81c1.22 2.65 67.97 147.35 105.37 132.41 5.15-2.06 16.69-20.84 16.69-20.84"/><path class="st37" d="M1215.83 1505.22s13.01 77.77 33.32 92.72c0 0-56.03-37.64-43.81-104.85z"/><path class="st45" d="M1245.83 1425.95c-.83 3.81-28.97 4.45-28.97 4.45l-4.65-23.91s1.45-.83 3.68-1.94c4.22-2.12 11.2-5.27 16.14-5.63 1.53-.1 2.87.05 3.87.59 5.92 3.17 10.78 22.64 9.93 26.44z"/><path class="st9" d="M1184.52 1272.16l66.61 182.35s28.77-6.34 52.88-24.11c0 0-50.36-76.57-63.47-166.27 0 0-52.4-2.98-56.02 8.03"/><path d="M1244.27 1284.93s-23.35 6.96-48.65 17.61l-11.1-30.38 56.02-8.03z" fill="#ae3229"/><path class="st39" d="M1207.97 1343.03s17.15 32.98 24.06 55.89c-4.94.36-11.92 3.5-16.14 5.63-3.98-5.61-10.37-14.54-15.11-20.91-7.4-9.94-20.31-21.78-15.02-42.31 5.29-20.52 17.14-40.19 23.06-38.5 5.92 1.7 29.4 1.49 31.3 4.86 1.91 3.39-2.11 16.3-24.54 18.41 0 0-3.37 14.39-7.61 16.93"/><path class="st39" d="M1281.79 1356.75c.03-.13.08-.25.11-.37.82-4.26.44-12.97-6.16-14.23 1.75-1.62 3.08-3.38 3.82-5.16 2.55-6.14-1.93-14.78-5.28-14.94 0 0-1.22-.25-3.35-.16.61-1.97 1.07-5.88-1.72-11.53 0 0-5.86-8.33-16.44-2.53-10.59 5.81-18.58 9.56-17.4 13.12 1.18 3.55 3.2 7.41 15.77 7.02 1.06-.04 2.07-.11 3.05-.19-3.28 2.08-5.52 4.12-10.13 6.78-7.01 4.06 1.48 14.64 12.48 14.67 3.2 0 6.27-.52 9.08-1.4-3.53 3.24-7.9 6.97-10.81 8.44-5.57 2.83-.84 11.27 7.85 10.78 3.09-.18 6.29-.95 9.18-2.08-.09.84-.08 1.75.07 2.72 1.23 7.65 9.26 7.99 12.86 5.12 3.15-2.52 4.28-13.7-2.98-16.06"/><path d="M1421.96 1225.07s-151.81 32.28-253.35 67.82l-18.45-57.05s165.67-104.56 203.77-160.41c0 1.1.17 114.97 68.03 149.64" fill="#f65b4d"/><path d="M1107.69 1263.12l46.96-36.39 28.69 66.34-51.96 14.9z" fill="#f5ce7f"/></svg>