<svg xmlns="http://www.w3.org/2000/svg" width="3017.29" height="2400"><style>.st25{fill:#f8bc3e}.st26{fill:#f5b400}.st24{fill:#1f2a83}.st22{fill:#db3737}.st20{fill:#8fc0fa}.st2{fill:#fff}.st4{fill:#e2eaf7}.st3{fill:#c7defe}.st6{fill:#2946fb}.st12{fill:#f8bc3f}.st5{fill:#f3f6fc}.st8{fill:#f3a566}.st10{fill:#397cf2}.st7{fill:#f9c89a}.st9{fill:#f47722}</style><path d="M1102.58 2375.57S-89.25 2313.75 5.34 1061.36C99.95-191.03 1331.06-179.18 1732.47 300.73c401.41 479.92 1325.77 231.33 1283.4 1118.51-42.36 887.17-1274.36 1053.17-1913.29 956.33" fill="#eef2f9"/><path d="M663.69 1398.22l-4.19-15.44m-8.15-30.04l-126.3-465.62m-4.07-15.02l-4.19-15.45 15.59-3.58m31.14-7.17l1292.22-297.33m15.57-3.58l15.59-3.59 12.05 10.52m24.73 21.58l630.54 550.41m12.37 10.79l12.05 10.53-8.08 13.81m-15.66 26.75l-305.39 521.77m-7.83 13.38l-8.08 13.81" stroke="#8fc0fa" fill="none" stroke-width="7"/><path class="st2" d="M2157.28 1719.85H880.95c-23.17 0-41.95-18.78-41.95-41.95V838.95c0-23.16 18.78-41.94 41.95-41.94h1276.33c23.17 0 41.95 18.78 41.95 41.94v838.95c0 23.17-18.78 41.95-41.95 41.95"/><path class="st3" d="M1254.85 1585.94H950.41a5.65 5.65 0 01-5.65-5.65V1008.2a5.65 5.65 0 015.65-5.65h304.44c3.13 0 5.66 2.53 5.66 5.65v572.09c0 3.12-2.53 5.65-5.66 5.65"/><path class="st4" d="M1254.85 1585.94H950.41a5.65 5.65 0 01-5.65-5.65V1008.2a5.65 5.65 0 015.65-5.65h304.44c3.13 0 5.66 2.53 5.66 5.65v572.09c0 3.12-2.53 5.65-5.66 5.65"/><path class="st5" d="M2055.38-1397.44h-753.39v14.29h753.39zm0 29.7h-753.39v14.29h753.39zm0 29.7h-753.39v14.28h753.39zm0 29.69h-753.39v14.29h753.39zm0 29.7h-753.39v14.29h753.39zm0 29.7h-753.39v14.28h753.39z"/><path class="st6" d="M2187.85 1671.89c0 20.69-18.33 37.52-40.87 37.52H891.25c-2.49 0-4.91-.2-7.26-.6-19.08-3.15-33.61-18.51-33.61-36.92V856.65h1337.47zm-6.08-940.36c-9.36-7.38-21.51-11.83-34.79-11.83H891.25c-29.54 0-53.58 22.07-53.58 49.18v903.01c0 22.17 16.05 40.95 38.04 47.07a57.793 57.793 0 0015.54 2.11h1255.73c29.54 0 53.58-22.05 53.58-49.18V768.88c0-14.94-7.29-28.34-18.79-37.35"/><path class="st2" d="M1899.51 822.41h-575.48c-18.55 0-33.59-13.81-33.59-30.84 0-17.02 15.04-30.83 33.59-30.83h575.48c18.55 0 33.59 13.81 33.59 30.83 0 17.03-15.04 30.84-33.59 30.84M891 808.77c-1.64 0-3.28-.58-4.53-1.72-2.5-2.3-2.5-6.02 0-8.32l30.71-28.2c2.5-2.29 6.56-2.29 9.06 0 2.5 2.3 2.5 6.02 0 8.32l-30.71 28.2c-1.25 1.14-2.89 1.72-4.53 1.72"/><path class="st2" d="M921.71 808.77c-1.64 0-3.28-.58-4.53-1.72l-30.71-28.2c-2.5-2.3-2.5-6.02 0-8.32 2.5-2.29 6.56-2.29 9.06 0l30.71 28.2c2.5 2.3 2.5 6.02 0 8.32-1.25 1.14-2.89 1.72-4.53 1.72m121.75-19.98c0-4.53 4.01-8.22 8.95-8.22 4.93 0 8.94 3.69 8.94 8.22 0 4.53-4.01 8.21-8.94 8.21-4.94 0-8.95-3.68-8.95-8.21m8.95-19.98c-12 0-21.77 8.97-21.77 19.98 0 2.93.7 5.71 1.94 8.21 3.41 6.94 11.01 11.77 19.83 11.77 8.81 0 16.41-4.83 19.83-11.77 1.24-2.5 1.93-5.28 1.93-8.21 0-11.01-9.76-19.98-21.76-19.98m-58.55 25.86h-32.9c-3.54 0-6.41-2.63-6.41-5.88s2.87-5.88 6.41-5.88h32.9c3.54 0 6.41 2.63 6.41 5.88s-2.87 5.88-6.41 5.88"/><path class="st4" d="M2055.38-1187.23h-743.86v373.18h743.86z"/><path class="st7" d="M1261.1 1322.68c-3.16 8.22-22.16-4.85-31.65 11.59-9.48 16.44-23.4 44.5-39.84 47.23-16.43 2.73-65.13-16.24-65.13-16.24-1.89 6.95-12.64 30.36-8.85 39.84 2.16 5.4 9.16 11.01 14.77 14.84 4.23 2.89 7.68 4.76 7.68 4.76s25.61 17.07 16.76 31.61c-8.85 14.54-80.31 34.15-98.64 17.71-18.34-16.44-41.74-75.25-41.74-75.25l8.85-11.07s1.52-.91 3.87-2.71c6.42-4.95 19.03-16.63 23.66-34.83 2.2-8.68 2.6-18.82-.34-30.43-8.21-32.41 1.69-83.91 30.65-106.97 11.17-8.9 25.17-13.56 42.07-11.28 60.7 8.22 106.23 8.86 106.23 8.86s15.18 38.57 10.12 67.02c-5.06 28.45 24.69 37.1 21.53 45.32"/><path class="st8" d="M1154.84 1456.31c-8.86 14.54-80.31 34.15-98.65 17.71-18.33-16.44-41.73-75.25-41.73-75.25l8.85-11.07s1.52-.91 3.87-2.71c40.85 62.09 87.5 69.43 100.15 62.16 12.64-7.28 3.07-27.21 3.07-27.21 4.23 2.89 7.68 4.76 7.68 4.76s25.61 17.07 16.76 31.61"/><path class="st7" d="M2054.96 1443.04c-2.21 14.54-98.32 17.7-93.9-12.02.56-3.75.68-7.66.45-11.64-1.57-27.52-19.58-58.32-20.68-63.29-1.27-5.69-39.21 5.06-59.44 5.06-20.24 0-34.17-46.21-36.38-55.38-2.22-9.17-12-8.81-18-16.39-6.01-7.59 25.93-26.57 27.82-54.07 1.9-27.5 19.28-61.97 19.28-61.97s111.61 6.32 143.23 25.93c31.62 19.6 7.9 69.24 9.48 111.92 1.03 27.9 10.58 65.53 17.07 88.25 3.43 12.03 6.01 19.88 6.01 19.88s7.28 9.17 5.06 23.72"/><path class="st8" d="M2054.96 1443.04c-2.21 14.54-98.32 17.7-93.9-12.02.56-3.75.68-7.66.45-11.64.6.25 31.09 13.07 54.56-2.27 9.74-6.37 19.6-12.57 27.82-17.67 3.43 12.03 6.01 19.88 6.01 19.88s7.28 9.17 5.06 23.72m-189.06-250.89s27.71 12.07 51.32 17.13c23.61 5.06 39.84 30.99 42.37 48.69 2.52 17.71 10.97 10.4 10.97 10.4s1.41-34.32 8.36-38.75c6.96-4.43 30.99-4.74 36.05 11.7 5.06 16.44 3.4 23.22 3.4 23.22s-11.62 52.98-4.67 64.99c6.96 12.01 16.6 12.07 16.6 12.07l-2.37-17.6s22.61-113.35-3.32-128.84c-25.93-15.49-97.06-30.04-120.14-27.19-23.08 2.84-36.12 18.12-36.12 18.12z"/><path class="st9" d="M1966.44 1263.13s-.96-40.78-25.62-54.69c-24.66-13.91-181.95-24.66-131.68-124.26 50.27-99.59 125.84-10.27 120.62 48.06-5.22 58.33 103.23-18.18 137.85 70.03 34.62 88.21-38.88 129.27-38.88 129.27s-11.39 6.37-11.39-9.76c0-16.12 1.9-34.14 1.9-34.14s5.48-57.28-30.57-49.27c0 0-11.17.63-14.75 20.23s-7.48 4.53-7.48 4.53"/><path class="st10" d="M2328.45 2048.81s-4.86 1.42-13.6 2.67c-11.45 1.65-29.57 3-52.17.49h-338.29s-19.6-261.78-19.6-290.87c0 0-30.2 38.25-91.38 37.78-74.61-.58-184.32-25.77-184.32-25.77s-2.53-49.96 4.42-65.76c0 0 148.6.63 159.98-13.28 11.39-13.92 117.62-185.91 139.75-203.61 22.13-17.71 11.51-74.92 28.38-67.19 0 0 30.94 27.83 85.06-14.31 0 0 5.44-9.56 13.66 1.4 8.22 10.97 237.75 196.45 268.11 638.45"/><path d="M1904.78 1761.1s85.05-152.87 91.69-149.55c6.64 3.32-44.72 210.26-86.62 237.68zm410.07 290.38c-11.45 1.65-29.57 3-52.16.49.63-221.63-74.62-426.19-74.62-426.19 1.67-86.09 102.79 326.5 126.78 425.7" fill="#2c5bf3"/><path class="st7" d="M1635.09 1767.58c-27.51-9.96-111.45 19.44-134.21 11.38-3.74-1.32-7.19-3.2-10.33-5.41-16.01-11.24-24.29-31.11-24.29-31.11l-4.27-9.01s56.92-41.26 76.36-44.11c16.3-2.38 70.67 17.07 87.78 23.4 3.3 1.22 5.21 1.95 5.21 1.95s31.26 62.87 3.75 52.91"/><path class="st8" d="M1557.14 1698.51s16.93 18.11 14.61 25.7c-2.31 7.59-20.02 6.79-33.72 1.82-13.7-4.98-67.56 24.59-67.56 24.59l-4.21-5.63 74.3-36.59z"/><path class="st7" d="M1567.75 1724.11c-15.61 5.92-30.91-2.63-31.29-2.84l-.01-.01c-12.33-1.58-67.9 25.91-67.9 25.91a62.81 62.81 0 00-4.09-3.75c-4.67-3.91-10.3-7.66-16.05-11.06-15.64-9.25-32.1-15.84-32.1-15.84-29.73-24.98 13.27-51.86 13.27-51.86s13.2 7.33 27.53 14.46c13.29 6.61 27.54 13.07 33.18 13.37 11.7.63 45.21-7.27 54.38-11.7 9.17-4.43 11.06 23.72 20.23 31.93 9.17 8.22 2.85 11.39 2.85 11.39"/><path class="st8" d="M1536.45 1721.26c-21.82 3.31-67.9 25.91-67.9 25.91a62.81 62.81 0 00-4.09-3.75c3.56-2.6 8.94-5.53 16.97-8.67 30.99-12.11 40.16-34.99 43.32-28.83 3.17 6.15 11.7 15.34 11.7 15.34m98.64 46.32c-27.51-9.96-111.45 19.44-134.21 11.38-3.74-1.32-7.19-3.2-10.33-5.41 6.22.85 19.85 1.41 26.13-4.54 34.42-32.57 64.92-26.51 83.53-24.02 17.28 2.32 25.92-32.27 25.92-32.27 3.3 1.22 5.21 1.95 5.21 1.95s31.26 62.87 3.75 52.91"/><path class="st7" d="M1522.29 1781.03s10.05 14.89 38.19 5.49c28.14-9.39 33.2-12.71 31.3-29.84-1.9-17.13-82.39 5.59-69.49 24.35"/><path class="st8" d="M1448.41 1732.36c-15.64-9.25-32.1-15.85-32.1-15.85-29.72-24.97 13.27-51.85 13.27-51.85s13.2 7.32 27.53 14.46c-5.68 8.7-13.67 26.49-8.7 53.24"/><path class="st12" d="M1447.18 1674.07s-25.52 15.6-15.71 49.26c0 0 1.91 4.88-5.36 4.88-7.27 0-86-31.29-123.94-50.27-37.94-18.96-128.05-63.89-128.05-63.89s-34.46 378.48-28.14 431.59H774.8s-6.64-268.31 9.49-310.89c16.12-42.58-19.77-100.11-19.77-100.11s87.11-202.36 139.28-225.12c52.17-22.76 119.51-21.82 119.51-21.82s15.17 42.21 52.17 62.6c36.99 20.4 80.62 0 62.6-25.6 0 0-1.42-8.07 8.06-1.9 9.49 6.16 78.89 56.91 116.83 109.39 31.63 43.77 152.83 111.61 180.35 134.27 5.49 4.5 7.26 7.23 3.86 7.61"/><path d="M773.46 1917.6s59.34 10.27 82.05 30.19c22.72 19.92 77.76 29.88 111.4 18.97 33.64-10.9 89.99-25.61 109.21-25.13 19.22.47 18.35-109.08 18.35-109.08L773.46 1898zm188.2-378.14s-60.23 125.68-65.45 134.22c-5.21 8.53 65.45 1.89 65.45 1.89s-26.56-4.26-16.13-43.63c10.44-39.36 37.94-112.87 16.13-92.48m485.52 134.61s-25.52 15.6-15.71 49.26c0 0 1.91 4.88-5.36 4.88-7.27 0-86-31.29-123.94-50.27-37.94-18.96-128.05-63.89-128.05-63.89s5.38-52.14 17.71-63.84c12.33-11.7-12.65 55.02 32.25 79.05 44.89 24.02 197.6 96.11 199.98 79.99 1.88-12.8 4.78-35.78 19.26-42.79 5.49 4.5 7.26 7.23 3.86 7.61" fill="#f6a438"/><path class="st3" d="M1095.87 1788.92c.86 21.77-2.02 51.55-5.5 78.03-4.41 33.5-9.78 61.71-9.78 61.71l-68.44-6.32 4.61-13.25 55.87-160.48 12.39-35.57 5.86.98 15.83 2.65s-12.79 22.93-10.84 72.25"/><path class="st2" d="M1094.47 1699.13s-1.43 5.44-3.59 14.89c-4.52 19.8-12.21 57.17-16.59 98.83-3.44 32.83-4.82 68.33-.95 100 0 0-22.86-1.33-56.58-3.76-84.6-6.12-237.58-19.16-269.4-35.44-36.78-18.81-30.63-172.77-27.38-225.67.68-11.12 1.23-17.77 1.23-17.77s311.52 18.33 373.26 68.92"/><path d="M1061.62 1726.48l-15.78 184.63-.78 9.09c-.66 7.81-6.78 13.5-13.65 12.7l-339.95-39.68c-6.91-.81-11.91-7.9-11.08-15.75l22.07-208.86c.83-7.88 7.21-13.45 14.13-12.31l172.32 28.24 162.11 26.57c6.58 1.08 11.25 7.85 10.61 15.37" fill="#e32b2c"/><path d="M1045.84 1911.11l-.78 9.09c-.66 7.81-6.78 13.5-13.65 12.7l-131.08-15.3-78.93-9.21-129.94-15.17c-6.91-.81-11.91-7.9-11.08-15.75l22.07-208.86c.83-7.88 7.21-13.45 14.13-12.31l44.85 7.35 18.6 3.05 108.87 17.84s36.55 156.52 156.94 226.57" fill="#ca1017"/><path d="M900.33 1917.6l-78.93-9.21s-58.46-137.18-66.26-180.18c-7.78-43 6.29-64.56 6.29-64.56l18.6 3.05s112.01 199.18 120.3 250.9" fill="#ad000d"/><path class="st7" d="M996.94 1930.74c-.75 6.77-15.36 8.99-15.36 8.99s.85.39 1.97 1.07h.01c1.63 1.01 3.81 2.65 4.66 4.62 1.42 3.32-15.65 9.96-15.65 9.96s-14.23 5.69-18.5 6.17c-4.27.47-28.45-1.43-35.57-5.7-7.11-4.26-39.36-21.81-50.59-36.51-6.92-9.05-33.25-50.64-52.47-81.28l-.01-.01c-.01-.01-.01-.03-.04-.06-11.99-19.12-21.21-33.96-21.21-33.96-3.38-30.42 49.87-63.48 68.83-47.36 6.31 5.37 10.42 15.65 13.35 27.66 5.89 24.07 7.04 55.01 11.79 66.72 7.11 17.54 78.72 29.4 84.89 46 6.17 16.6 18.49 20.87 23.2 30.3.61 1.24.82 2.37.7 3.39"/><path class="st8" d="M981.58 1939.73s-19.61-18.65-26.77-30.45c-6.59-10.85 18.07 18.77 42.13 21.46-.75 6.77-15.36 8.99-15.36 8.99m-105.22-155.4s-52.76-.38-59.19 22.93c-6.07 22-2.22 29.92-1.78 30.73-11.99-19.12-21.21-33.96-21.21-33.96-3.38-30.42 49.87-63.48 68.83-47.36 6.31 5.37 10.42 15.65 13.35 27.66"/><path class="st12" d="M764.52 1634.64s-28.29 53.11-19.44 78.4c8.86 25.29 44.9 95.48 44.9 95.48s40.79-48.53 84.42-27.66c0 0 9.48 6.16 9.8 2.05.31-4.11-22.13-65.44-19.92-72.08 2.21-6.64 44.57-62.16 44.57-62.16s-98.97-32.36-144.33-14.03"/><path class="st8" d="M972.57 1955.38s-14.23 5.69-18.5 6.17c-4.27.47-28.45-1.43-35.57-5.7 22.61 1.58 63.08-16.12 63.08-16.12s.85.39 1.97 1.07h.01c1.63 1.01 3.81 2.65 4.66 4.62 1.42 3.32-15.65 9.96-15.65 9.96m140.67-641.55c-10.81-2.03-18.9-11.49-29.97-.11-11.06 11.38-13.76 30.83-32.43 36.44 2.2-8.68 2.6-18.82-.34-30.43-8.21-32.41 1.69-83.91 30.65-106.97 14.74 18.09 25.17 43.64 25.17 43.64s-15.56 6.41-5.23 33.61c10.33 27.19 24.87 17.91 24.87 17.91s-1.48 8.01-12.72 5.91m11.24 51.43s-11.24-2.06-20.86-9.17c-9.99-7.39 11.27 45.56 11.27 45.56s-.84-10.47 9.59-36.39"/><path d="M1240.08 1212.76h-.01c-1.43 3.1-3.26 6.08-5.49 8.88a26 26 0 01-.96 1.16c-18.75-11.24-66.77 23.58-80.05 40.65-13.28 17.08-8.45 43.29-22.13 11.38-15.18-35.41-53.59 1.42-58.33 27.03-4.75 25.61-45.06 63.08-37.47 42.21 7.59-20.86-27.98-41.26-41.26-95.8-4.34-17.8-2.16-34 4.55-48.28 13.84-29.44 47.01-50.74 82.24-61.27 64.95-19.42 115.16 1.13 141.15 16.74 20.09 12.07 27.19 37.07 17.76 57.3" fill="#553130"/><path d="M1240.07 1212.76c-1.43 3.1-3.26 6.08-5.49 8.88a26 26 0 01-.96 1.16c-18.75-11.24-66.77 23.58-80.05 40.65-13.28 17.08-8.45 43.29-22.13 11.38-15.18-35.41-53.59 1.42-58.33 27.03-4.75 25.61-45.06 63.08-37.47 42.21 7.59-20.86-27.98-41.26-41.26-95.8-4.34-17.8-2.16-34 4.55-48.28 25.7 33.79 115.26 61.11 153.38 40.49 43.63-23.59 87.76-27.72 87.76-27.72" fill="#3a1616"/><path d="M2629.11 2053.36H350.48c-4.95 0-9-4.05-9-9v-21.33c0-4.95 4.05-9 9-9h2278.63c4.95 0 9 4.05 9 9v21.33c0 4.95-4.05 9-9 9" fill="#2e48fb"/><path class="st20" d="M744.12 1381.92c0 16.17-4.72 31.3-12.93 44.15-15.49 24.29-43.38 40.49-75.22 40.49-48.7 0-88.16-37.89-88.16-84.64 0-23.96 10.36-45.6 27.03-61 15.85-14.65 37.4-23.65 61.13-23.65 48.69 0 88.15 37.9 88.15 84.65"/><path class="st3" d="M744.12 1385.44c0 16.84-4.72 32.6-12.93 45.99-74.96-14.88-114.99-62.14-136.35-109.52 15.85-15.26 37.4-24.64 61.13-24.64 48.69 0 88.15 39.48 88.15 88.17"/><path class="st22" d="M651.2 1401.32l-1.42 1.73-2.09 2.54-11.4 13.9-1.95 2.38-8.35 10.19-1.15 1.39-1.06 1.31c-.65.79-1.57 1.28-2.59 1.38-.25.02-.51.02-.76 0-.74-.08-1.44-.37-2.03-.85a3.801 3.801 0 01-1.29-3.86c.06-.25.14-.48.25-.72 0-.01.01-.01.01-.03.13-.27.3-.53.49-.77l11.48-13.99 2.4-2.94 11.46-13.96 2.06-2.51a30.2 30.2 0 002.28 2.09c.48.41.96.8 1.46 1.18.71.53 1.44 1.05 2.2 1.54"/><path d="M656.76 1400.55c0 .07-.71 1.36-1.62 2.97-1.38-.66-2.69-1.4-3.94-2.2l-1.42 1.73-2.09 2.54c-1.55-2.16-3.29-4.66-4.49-6.57l2.06-2.51c-.39-.39-.77-.79-1.13-1.19 5.16-.24 12.63 5.06 12.63 5.23" fill="#ba1717"/><path class="st22" d="M696.66 1382.37a28.26 28.26 0 01-7.1 9.72 28.284 28.284 0 01-8.54 5.17c-5.61 2.16-11.63 2.48-17.33.96-1.44-.38-2.87-.88-4.26-1.5-6.89-3.05-12.18-8.61-14.89-15.64-2.68-6.95-2.53-14.51.43-21.33.03-.09.07-.17.1-.26 3.06-6.88 8.61-12.17 15.65-14.89 3.56-1.37 7.29-2 10.99-1.89 3.61.11 7.19.92 10.6 2.43 8.74 3.88 14.55 11.69 16.25 20.44 1.07 5.47.53 11.31-1.9 16.79m-11.12-44.53c-4.08-1.8-8.36-2.83-12.68-3.07-5.05-.28-10.15.51-15.02 2.39-8.57 3.31-15.43 9.6-19.46 17.81-.21.43-.41.86-.6 1.29a36.004 36.004 0 00-2.44 21.54 36.425 36.425 0 009.92 18.71c.72.73 1.49 1.43 2.28 2.1.48.4.96.79 1.46 1.17.71.53 1.44 1.05 2.2 1.54 1.25.81 2.56 1.54 3.94 2.2.34.17.7.34 1.06.5 2.07.92 4.19 1.63 6.35 2.14 7.05 1.69 14.43 1.21 21.34-1.46 4.65-1.79 8.79-4.46 12.26-7.84 3.25-3.18 5.9-6.98 7.8-11.26 8.09-18.24-.17-39.67-18.41-47.76"/><path class="st3" d="M779.61 905.44c0 131.06-103.03 238.05-232.51 244.39-4.03.2-8.08.3-12.16.3-135.14 0-244.68-109.55-244.68-244.69 0-105.33 66.57-195.13 159.93-229.6 26.4-9.76 54.95-15.08 84.75-15.08 135.13 0 244.67 109.55 244.67 244.68"/><path class="st10" d="M651.86-1552.46h-36.28v151.64h36.28zm-123.27 70.89h-36.28v80.75h36.28zm-61.63 27.39h-36.29v53.36h36.29zm123.27-59.3h-36.29v112.66h36.29z"/><path class="st24" d="M433.6 911.25l-5.86-10.62 184.91-102.09 5.86 10.62z"/><path class="st24" d="M641.78 788.04l-37.5 2 20.49 31.47z"/><path class="st6" d="M651.86 1028.78H405.18V803.85h4.85v220.08h241.83z"/><path class="st9" d="M1977.44 493.83c1.92 14.03 1.37 28.52-1.93 42.83v.01c-1.46 6.33-3.46 12.63-6.01 18.84-.74 1.8-1.52 3.57-2.34 5.31-26.94 57.45-94.55 84.17-153.84 59.75a122.6 122.6 0 01-7.97-3.63c-55.61-27.75-81.13-94.18-57.09-152.56 7.01-17.01 17.49-31.54 30.28-43.11 31.1-28.14 75.87-38.77 117.69-24.98 2.75.91 5.49 1.92 8.21 3.04 40.85 16.83 67.41 53.67 73 94.5"/><path class="st25" d="M1953.32 548.84a122.45 122.45 0 01-4.98 10.6c-27.16 51.23-87.66 75.75-142.99 57.5-2.75-.91-5.49-1.92-8.21-3.04-61.1-25.16-90.22-95.09-65.06-156.18 5.81-14.11 14-26.5 23.93-36.93l.03-.03a118.558 118.558 0 0120.79-17.36c31.95-21.03 73.4-26.4 111.43-10.74 2.72 1.12 5.38 2.33 7.97 3.63 55.61 27.75 81.13 94.18 57.09 152.55"/><path class="st26" d="M1931.42 539.82c-20.18 49-76.27 72.36-125.27 52.18s-72.36-76.26-52.17-125.26c20.18-49 76.26-72.36 125.26-52.18s72.36 76.26 52.18 125.26"/><path class="st9" d="M1758.54 474.42c20.18-49 76.27-72.36 125.27-52.18 18.34 7.56 33.09 20.15 43.31 35.51-10.13-18.82-26.57-34.41-47.88-43.19-49-20.18-105.08 3.18-125.26 52.18-11.43 27.75-8.89 57.76 4.36 82.25-5.14-12.66-7.61-26.4-7-40.32a95.692 95.692 0 017.2-34.25"/><path class="st5" d="M1868.74 453.98l4.17-10.12-10.3-4.24-4.17 10.12c-17.01-6.05-24.66-2.32-31.86 15.17-6.26 15.2-7.24 21.29-3.14 27.57 4.49 7.2 16.48 16.15 19.78 23.44 1.47 2.95 1.14 4.57-.28 8.1-.2.5-.42 1.05-.67 1.64-3.97 9.65-5.87 11.92-13.06 8.96-7.35-3.03-6.09-7.48-2.99-15 .87-2.12 1.71-3.69 2.41-4.93l-18.14-7.47c-1.7 2.74-3.58 6.36-5.4 10.78-7.13 17.32-1.96 25.19 12.15 31.77L1812 562.5l10.3 4.24 5.31-12.9c17.05 5.62 25 .67 33.77-18.67.76-1.65 1.51-3.41 2.28-5.28 6.94-16.84 2.7-20.49-3.17-27.12-4.22-4.6-9.36-8.82-14.26-14.09-4.55-4.74-4.71-5.76-1.2-14.26 3.36-8.17 5.8-9.46 11.69-7.04 6.86 2.83 6.43 6.67 3.6 13.53-1.01 2.45-1.68 4.09-2.45 5.49l17.98 7.4c1.34-2.31 2.94-5.28 4.76-9.69 6.39-15.53 3.22-23.15-11.87-30.13"/><path class="st9" d="M2746.32 1579.79a98.36 98.36 0 01-13.8 32.61v.01c-2.96 4.48-6.31 8.79-10.08 12.86a90.32 90.32 0 01-3.33 3.44c-37.36 36.75-97.39 38.01-136.29 2.07a94.97 94.97 0 01-5.13-5.1c-35.09-37.46-35.77-96.24-.38-134.53 10.31-11.16 22.61-19.41 35.84-24.69 32.16-12.86 69.89-8.22 98.3 14.47 1.87 1.49 3.7 3.06 5.49 4.71 26.8 24.77 36.78 60.93 29.38 94.15"/><path class="st25" d="M2711.83 1615.46c-2.21 2.39-4.51 4.65-6.9 6.78-35.75 31.87-89.64 33.47-127.24 3.44-1.87-1.49-3.7-3.06-5.49-4.71-40.08-37.04-42.54-99.56-5.51-139.63 8.56-9.26 18.46-16.5 29.14-21.72.01-.01.03-.01.04-.02a98.283 98.283 0 0120.82-7.41l.27-.06c30.77-7.1 64.41.65 89.36 23.7a94.97 94.97 0 015.13 5.1c35.09 37.46 35.77 96.24.38 134.53"/><path class="st26" d="M2697.46 1602.18c-29.7 32.15-79.84 34.13-111.99 4.42-32.14-29.71-34.12-79.84-4.41-111.99 29.7-32.14 79.84-34.12 111.99-4.42 32.14 29.71 34.12 79.85 4.41 111.99"/><path class="st9" d="M2582.39 1501.87c29.71-32.15 79.84-34.12 111.99-4.42 12.03 11.13 19.84 25.11 23.34 39.95-2.44-17.49-10.69-34.28-24.67-47.21-32.15-29.7-82.29-27.72-111.99 4.42-16.82 18.2-23.48 42.18-20.25 64.94a79.18 79.18 0 016.16-33.22c3.5-8.79 8.62-17.1 15.42-24.46"/><path class="st5" d="M2673.59 1517.7l6.13-6.63-6.75-6.25-6.13 6.64c-11.44-9.57-18.43-8.88-29.04 2.59-9.21 9.97-11.72 14.41-10.35 20.45 1.41 6.87 8.12 17.25 8.59 23.84.28 2.7-.44 3.86-2.54 6.19-.31.33-.64.69-1 1.08-5.84 6.32-7.97 7.54-12.68 3.18-4.83-4.45-2.57-7.54 1.99-12.47a34.97 34.97 0 013.28-3.13l-11.9-11c-2.1 1.64-4.6 3.9-7.28 6.8-10.5 11.36-8.75 18.94.29 28.09l-7.72 8.35 6.75 6.24 7.82-8.46c11.59 9.25 19.17 7.7 31.52-4.75 1.06-1.06 2.15-2.21 3.28-3.44 10.21-11.04 7.98-15.09 5.34-21.9-1.95-4.78-4.72-9.53-7-15.01-2.16-4.98-1.99-5.82 3.17-11.39 4.95-5.36 7.21-5.66 11.07-2.09 4.5 4.16 3.07 7.01-1.09 11.51-1.49 1.61-2.48 2.68-3.48 3.54l11.8 10.9c1.7-1.41 3.79-3.25 6.47-6.14 9.41-10.18 9.14-16.99-.54-26.74"/><path class="st9" d="M536.41 1632.35a120.79 120.79 0 0127.29 33.94c3.15 5.81 5.86 11.95 8.07 18.41.65 1.86 1.24 3.74 1.79 5.62 18.05 61.88-15.55 127.65-77.15 148.85-2.82.97-5.66 1.84-8.51 2.59-61.02 16.19-125.09-17.31-145.96-77.95-6.09-17.67-7.86-35.79-5.88-53.21 4.81-42.33 31.8-80.5 72.94-98.07 2.7-1.16 5.47-2.22 8.3-3.19 42.44-14.62 87.43-4.37 119.11 23.01"/><path class="st25" d="M554.96 1690.48c1.31 3.79 2.41 7.6 3.33 11.42 13.7 57.29-15.96 116.61-70.39 139.86-2.7 1.16-5.47 2.23-8.3 3.2-63.47 21.85-132.63-11.89-154.48-75.36-5.04-14.65-7.12-29.61-6.56-44.22.01-.02.01-.03.01-.05.35-9.15 1.75-18.16 4.1-26.88l.09-.32c10.23-37.48 38.22-69.41 77.73-83.01 2.82-.97 5.66-1.84 8.51-2.59 61.02-16.19 125.09 17.31 145.96 77.95"/><path class="st26" d="M532.21 1698.31c17.53 50.91-9.53 106.38-60.44 123.9-50.9 17.52-106.37-9.54-123.9-60.44-17.52-50.91 9.54-106.38 60.45-123.9 50.9-17.52 106.37 9.54 123.89 60.44"/><path class="st9" d="M356.51 1764.55c-17.52-50.9 9.54-106.37 60.44-123.89 19.07-6.57 38.77-6.87 56.87-2.02-20.37-7.55-43.36-8.39-65.5-.77-50.91 17.52-77.97 72.99-60.45 123.9 9.93 28.82 32.02 49.99 58.57 59.76-12.42-6.19-23.53-15.01-32.41-26.03a96.885 96.885 0 01-17.52-30.95"/><path class="st5" d="M426.79 1674.97l-3.62-10.51-10.7 3.68 3.62 10.51c-17.03 6.81-20.36 14.8-14.1 32.96 5.43 15.79 8.78 21.1 16.12 23.13 8.26 2.47 23.41 1.25 30.83 4.58 3.09 1.26 3.92 2.72 5.22 6.36.18.52.38 1.09.59 1.7 3.45 10.03 3.53 13.03-3.94 15.61-7.64 2.63-9.66-1.61-12.35-9.43-.76-2.2-1.18-3.96-1.48-5.38l-18.84 6.49c.54 3.23 1.54 7.25 3.12 11.84 6.2 18 15.42 20.52 30.6 16.06l4.55 13.22 10.7-3.68-4.61-13.4c16.77-7.17 19.5-16.28 13.21-36.91-.54-1.77-1.15-3.62-1.82-5.56-6.02-17.49-11.7-17.43-20.62-18.54-6.31-.67-13.07-.44-20.34-1.16-6.65-.56-7.46-1.24-10.49-10.07-2.93-8.49-1.93-11.11 4.18-13.21 7.13-2.45 9.38.76 11.83 7.89.88 2.55 1.47 4.25 1.82 5.83l18.68-6.43c-.54-2.66-1.31-6-2.88-10.59-5.56-16.13-13.09-19.8-29.28-14.99"/><path class="st3" d="M2731.28 1143.86c-13.45 60.95-52.44 109.67-103.24 137.39-42.41 23.15-93.05 31.67-143.95 20.44-111.84-24.68-182.5-135.35-157.82-247.19 11.74-53.22 42.96-97.12 84.51-125.86 45.76-31.64 104.06-44.9 162.67-31.97 111.84 24.68 182.5 135.35 157.83 247.19"/><path class="st6" d="M2607.75 1167.5c-.11.16-.73 5.3-1.29 10.16-.65 5.57-3.15 11.44-7.06 16.6l-27.37 35.92c-4.49 5.92-4.47 13.05.05 15.52 3.92 2.13 9.94-.02 14.03-5.02l48.8-58.39z"/><path class="st2" d="M2371.57 1109.93s96.27-17.08 197.44 66.04l42.68-51.94c-101.17-83.12-103.08-180.89-103.08-180.89z"/><path class="st6" d="M2508.61 943.14c-18.75-15.41-64.64 9.44-102.48 55.49-37.84 46.06-53.32 95.89-34.56 111.3 18.75 15.41 64.64-9.43 102.48-55.49s53.32-95.89 34.56-111.3"/><path d="M2504.86 947.71c-15.94-13.09-57.58 11.24-93.01 54.36-35.43 43.12-51.23 88.69-35.29 101.79 15.94 13.09 57.58-11.25 93-54.36 35.43-43.12 51.23-88.69 35.3-101.79" fill="#1a2982"/><path d="M2638.31 1145.42l-35.15-28.88-.91 2.22a106.819 106.819 0 01-38.63 47.79l-3.55 2.42 35.15 28.89c11.27 9.25 27.62 7.96 36.54-2.89l10.8-13.15c8.92-10.85 7.01-27.15-4.25-36.4" fill="#003e61"/><path class="st20" d="M2560.07 1168.97l11.69 9.61 8.92 7.33 14.55 11.96c11.25 9.24 27.61 7.96 36.53-2.89l10.8-13.17c8.92-10.83 7.01-27.15-4.25-36.39l-16.05-13.19-8.05-6.62-11.06-9.07-.89 2.23c-7.95 19.37-21.34 35.96-38.64 47.78z"/><path class="st6" d="M2571.76 1178.58l8.92 7.33a150.824 150.824 0 0041.59-53.68l-8.06-6.62a150.656 150.656 0 01-42.45 52.97"/><path d="M2433.13 1019.56c-5.26 6.4-5.77 15.64-1.28 23.37l16.9 29.13c7.02-6.75 14.03-14.31 20.82-22.56 6.78-8.26 12.84-16.61 18.1-24.8l-31.86-10.93c-8.45-2.91-17.42-.62-22.68 5.79" fill="#d30f00"/><path class="st2" d="M2442.88 1027.57c-4.76 5.8-10.8 8.7-13.5 6.49-2.69-2.21-1.01-8.71 3.75-14.5 4.76-5.8 10.81-8.7 13.5-6.49 2.69 2.21 1.02 8.71-3.75 14.5"/><path d="M2372.43 830.57c2.18 1.91 4.16 3.92 6.09 5.96 1.93 2.03 3.76 4.12 5.56 6.23 3.57 4.23 6.94 8.57 10.12 13.02 6.37 8.89 12.06 18.14 17.26 27.66 5.19 9.52 9.87 19.33 13.88 29.49 2.02 5.08 3.83 10.27 5.44 15.57.79 2.66 1.56 5.33 2.21 8.06.67 2.72 1.28 5.48 1.69 8.34-2.18-1.9-4.17-3.9-6.09-5.94-1.94-2.04-3.77-4.13-5.58-6.23a200.98 200.98 0 01-10.11-13.02c-6.37-8.89-12.06-18.14-17.25-27.67-5.17-9.53-9.85-19.34-13.85-29.51a202.81 202.81 0 01-5.45-15.56c-.79-2.66-1.56-5.33-2.22-8.06-.67-2.72-1.28-5.48-1.7-8.34m21.63 152.63c-2.93-1.13-5.72-2.43-8.48-3.77-2.75-1.34-5.43-2.78-8.1-4.23-5.3-2.94-10.46-6.05-15.47-9.34-10.04-6.55-19.59-13.7-28.79-21.28-9.18-7.59-18-15.63-26.33-24.25-4.17-4.31-8.2-8.79-12.08-13.44-1.93-2.35-3.84-4.71-5.67-7.17-1.84-2.45-3.64-4.96-5.29-7.63 2.94 1.12 5.73 2.42 8.49 3.76 2.76 1.34 5.44 2.77 8.1 4.22 5.31 2.94 10.46 6.05 15.48 9.34 10.04 6.56 19.59 13.7 28.77 21.3 9.17 7.6 17.99 15.64 26.32 24.27 4.17 4.3 8.2 8.78 12.08 13.44 1.93 2.34 3.84 4.7 5.67 7.16 1.85 2.45 3.64 4.95 5.3 7.62m-31.21 48.6c-2.99-.16-5.89-.53-8.77-.96-2.88-.42-5.72-.94-8.54-1.5-5.64-1.15-11.18-2.5-16.64-4.06-10.93-3.1-21.57-6.92-31.99-11.24-10.41-4.35-20.6-9.22-30.49-14.8-4.96-2.79-9.82-5.78-14.6-8.98-2.38-1.62-4.74-3.26-7.07-5.02-2.32-1.75-4.62-3.56-6.84-5.58 2.99.16 5.9.52 8.78.95 2.88.41 5.72.94 8.54 1.49 5.64 1.14 11.18 2.49 16.64 4.06 10.93 3.11 21.56 6.92 31.98 11.27 10.4 4.36 20.59 9.23 30.48 14.82 4.95 2.78 9.82 5.77 14.6 8.97 2.38 1.62 4.75 3.26 7.07 5.02 2.33 1.74 4.63 3.55 6.85 5.56" fill="#20288a"/></svg>