<svg xmlns="http://www.w3.org/2000/svg" width="3017.29" height="2400"><style>.st30{fill:#9bc1e9}.st31{fill:#021149}.st27{fill:#0f0f0f}.st25{fill:#9c9c9c}.st24{fill:#757575}.st21{fill:#f6a438}.st22{fill:#91645e}.st20{fill:#77524e}.st16{fill:#011158}.st1{fill:#e3e9f6}.st17{fill:#d8e2f3}.st39{fill:#2f80db}.st4{fill:#81bcfd}.st14{fill:#dba78b}.st3{fill:#9bcafe}.st15{fill:#b78b73}.st12{fill:#d43d31}.st34{fill:#116ddb}.st5{fill:#ed442e}.st10{fill:#52a3fc}.st7{fill:#3694fc}.st11{fill:#f8bc3f}.st33{fill:#0d5dbc}.st9{fill:#c3dffe}.st18{fill:#071a6b}</style><path d="M1102.58 2375.57S-89.25 2313.75 5.34 1061.36C99.95-191.03 1331.06-179.18 1732.47 300.73c401.41 479.92 1325.77 231.33 1283.4 1118.51-42.36 887.17-1274.36 1053.17-1913.29 956.33" fill="#eef2f9"/><path class="st1" d="M2762.72-2248.69H1388.29v756.15h1374.43z"/><path d="M2732.87-2220.37H1415.4v704.69h1317.47z" fill="#fff"/><path class="st3" d="M1946.08 289.61h-450.81a.591.591 0 010-1.18h450.81a.591.591 0 010 1.18m0 45.96h-450.81a.585.585 0 110-1.17h450.81a.585.585 0 110 1.17m0 45.97h-450.81a.585.585 0 110-1.17h450.81a.585.585 0 110 1.17m0 45.97h-450.81a.585.585 0 110-1.17h450.81a.585.585 0 110 1.17m0 45.97h-450.81a.591.591 0 010-1.18h450.81a.591.591 0 010 1.18m0 45.97h-450.81c-.33 0-.59-.26-.59-.59 0-.33.26-.59.59-.59h450.81c.33 0 .59.26.59.59 0 .33-.26.59-.59.59m0 45.97h-450.81a.591.591 0 010-1.18h450.81a.591.591 0 010 1.18m0 45.97h-450.81a.591.591 0 010-1.18h450.81a.591.591 0 010 1.18"/><path class="st3" d="M1536.06 665.07c-.32 0-.59-.26-.59-.59V278.85c0-.32.27-.58.59-.58.33 0 .59.26.59.58v385.63c0 .33-.26.59-.59.59m53.61 0c-.32 0-.59-.26-.59-.59V278.85c0-.32.27-.58.59-.58.33 0 .59.26.59.58v385.63c0 .33-.26.59-.59.59m53.61 0c-.32 0-.59-.26-.59-.59V278.85c0-.32.27-.58.59-.58.33 0 .59.26.59.58v385.63c0 .33-.26.59-.59.59m53.61 0c-.32 0-.59-.26-.59-.59V278.85c0-.32.27-.58.59-.58.33 0 .59.26.59.58v385.63c0 .33-.26.59-.59.59m53.61 0c-.32 0-.59-.26-.59-.59V278.85c0-.32.27-.58.59-.58.33 0 .59.26.59.58v385.63c0 .33-.26.59-.59.59m53.61 0c-.32 0-.59-.26-.59-.59V278.85c0-.32.27-.58.59-.58.33 0 .59.26.59.58v385.63c0 .33-.26.59-.59.59m53.61 0c-.33 0-.59-.26-.59-.59V278.85c0-.32.26-.58.59-.58.33 0 .59.26.59.58v385.63c0 .33-.26.59-.59.59m53.61 0c-.33 0-.59-.26-.59-.59V278.85c0-.32.26-.58.59-.58.32 0 .59.26.59.58v385.63c0 .33-.27.59-.59.59"/><path class="st3" d="M1946.08 668.39h-454.73V270.78h7.84v389.76h446.89z"/><path class="st4" d="M1520.09 655.23a5.88 5.88 0 01-4.6-9.54l79.53-100.09 75.03 48.79 88.55-100.47 50.84 57.63 107.14-119.72a5.893 5.893 0 018.31-.46 5.894 5.894 0 01.46 8.31l-115.97 129.59-50.77-57.56-86.45 98.09-74.58-48.5-72.88 91.71a5.876 5.876 0 01-4.61 2.22"/><path class="st4" d="M1930.41 445.11c4.89-5.47 4.43-13.86-1.04-18.75-5.46-4.89-13.85-4.42-18.74 1.04-4.89 5.46-4.43 13.86 1.04 18.75 5.46 4.88 13.86 4.42 18.74-1.04"/><path class="st5" d="M1520.09 607.16c-1.26 0-2.52-.41-3.6-1.23a5.89 5.89 0 01-1.05-8.26l38.51-49.75c1.57-2.05 4.31-2.82 6.74-1.9l88.48 33.51c8.67-11.34 38.81-49.24 145.57-181.54a5.869 5.869 0 015.67-2.08l71.98 13.58 44.83-39.48c2.44-2.16 6.16-1.91 8.31.52a5.897 5.897 0 01-.53 8.31l-46.99 41.38a5.893 5.893 0 01-4.98 1.37l-71.34-13.46c-57.12 70.78-141.06 175.11-145.48 181.42a5.892 5.892 0 01-2.55 2.34c-1.45.68-3.11.75-4.61.18l-88.46-33.5-35.84 46.3a5.88 5.88 0 01-4.66 2.29"/><path class="st4" d="M1929.38 384.82c5.51-4.84 6.04-13.23 1.19-18.73-4.84-5.51-13.23-6.04-18.73-1.19-5.51 4.84-6.04 13.23-1.19 18.73 4.84 5.51 13.23 6.04 18.73 1.19"/><path d="M1520.09 588.11c-.66 0-1.34-.12-2-.36a5.871 5.871 0 01-3.53-7.53l60.94-168.3c1.1-3.05 4.46-4.64 7.51-3.54l81.17 28.97c8.46-9.88 35.31-39.17 122.13-132.64a5.878 5.878 0 017.63-.85l73.09 49.9 50.37-41.56c2.5-2.06 6.21-1.7 8.28.8a5.887 5.887 0 01-.79 8.29l-53.78 44.36a5.872 5.872 0 01-7.06.32l-72.56-49.53c-47.55 51.2-116.14 125.33-120.66 130.97-.52.8-1.23 1.47-2.08 1.95-1.48.81-3.24.95-4.83.39l-79.35-28.32-58.94 162.79a5.895 5.895 0 01-5.54 3.89" fill="#397cf2"/><path class="st4" d="M1929.08 327.41c5.65-4.67 6.46-13.04 1.79-18.69-4.66-5.66-13.03-6.46-18.69-1.79-5.65 4.66-6.46 13.03-1.79 18.69 4.67 5.65 13.03 6.45 18.69 1.79"/><path class="st1" d="M2289.85-2113.58h-223.39v21.84h223.39z"/><path class="st7" d="M2201.99-2113.58h-135.53v21.84h135.53z"/><path class="st1" d="M2289.85-2058.98h-223.39v21.84h223.39z"/><path class="st7" d="M2225.56-2058.98h-159.1v21.84h159.1z"/><path class="st1" d="M2289.85-2004.38h-223.39v21.84h223.39z"/><path class="st7" d="M2172.78-2004.38h-106.32v21.84h106.32z"/><path class="st1" d="M2289.85-1949.78h-223.39v21.84h223.39z"/><path class="st7" d="M2234.67-1949.78h-168.21v21.84h168.21z"/><path class="st1" d="M2289.85-1895.18h-223.39v21.84h223.39z"/><path class="st7" d="M2214.45-1895.18h-147.99v21.84h147.99z"/><path d="M2044.88 515.81h15.32v-1.3h-15.32m0-53h15.32v-1.29h-15.32m0-53h15.32v-1.3h-15.32m0-53h15.32v-1.3h-15.32m0-53h15.32v-1.29h-15.32" fill="#a1c6e5"/><path class="st9" d="M2047.49-2119.7h-5.22v252.47h5.22z"/><path class="st10" d="M1675.1 735.67h-181.78c-.65 0-1.19-.53-1.19-1.19v-6.12c0-.66.54-1.19 1.19-1.19h181.78c.65 0 1.19.53 1.19 1.19v6.12c0 .66-.54 1.19-1.19 1.19m0 18.78h-181.78c-.65 0-1.19-.53-1.19-1.19v-6.12c0-.66.54-1.19 1.19-1.19h181.78c.65 0 1.19.53 1.19 1.19v6.12c0 .66-.54 1.19-1.19 1.19m0 18.79h-181.78c-.65 0-1.19-.54-1.19-1.2v-6.12c0-.65.54-1.19 1.19-1.19h181.78c.65 0 1.19.54 1.19 1.19v6.12c0 .66-.54 1.2-1.19 1.2m-92.08 18.78h-89.7a1.2 1.2 0 01-1.19-1.19v-6.13c0-.65.54-1.19 1.19-1.19h89.7c.65 0 1.19.54 1.19 1.19v6.13a1.2 1.2 0 01-1.19 1.19"/><path class="st11" d="M2477.78 420.98l-86.95 6.47-9.14-122.73 86.95-6.48z"/><path class="st4" d="M2582.77 478.29l-83.2-26.07 36.8-117.45 83.2 26.07z"/><path class="st11" d="M2491.68 723.2l-86.95 6.48-9.14-122.74 86.95-6.48z"/><path class="st10" d="M2407.89 558.16l-61.85-19.38 27.36-87.32 61.85 19.38z"/><path class="st4" d="M2553.92 567.24l-62.08 18.67-26.36-87.62 62.08-18.68z"/><path class="st12" d="M2566.42 357.3c0 3.89-3.16 7.05-7.06 7.05-3.9 0-7.05-3.16-7.05-7.05 0-3.9 3.15-7.06 7.05-7.06s7.06 3.16 7.06 7.06m-57.52 149.34c0 3.9-3.16 7.06-7.06 7.06-3.89 0-7.05-3.16-7.05-7.06 0-3.9 3.16-7.05 7.05-7.05 3.9 0 7.06 3.15 7.06 7.05m-28.41 112.34c0 5.13-4.15 9.29-9.28 9.29-5.12 0-9.28-4.16-9.28-9.29 0-5.12 4.16-9.28 9.28-9.28 5.13 0 9.28 4.16 9.28 9.28m-16.24-305.8c0 3.9-3.16 7.05-7.06 7.05-3.89 0-7.05-3.15-7.05-7.05s3.16-7.06 7.05-7.06c3.9 0 7.06 3.16 7.06 7.06"/><path d="M1335.65 2174.46c0 15.8-97.9 28.61-218.66 28.61-120.76 0-218.66-12.81-218.66-28.61 0-15.8 97.9-28.6 218.66-28.6 120.76 0 218.66 12.8 218.66 28.6m1167.57-55.41c0 15.79-255.29 28.6-570.2 28.6-314.91 0-570.2-12.81-570.2-28.6 0-15.8 255.29-28.61 570.2-28.61 314.91 0 570.2 12.81 570.2 28.61" fill="#85b4fd"/><path class="st14" d="M1232.73 2164.26s-22.68 6.1-48.33-2c-25.64-8.1-38.34-102.63-38.34-102.63s5.95-93.78-4.16-141.7c-10.1-47.92-3.39-149.16 1.32-166.71 1.4-5.18 1.62-14.87 1.24-25.98-.91-26.53-5.28-61.08-5.28-61.08s89.09-41.18 101.24 5.39c2.55 9.79 3.14 23.4 2.37 39.19-2.85 59.35-24.74 149.24-32.74 180.17-10.12 39.14-19.54 154.46-7.39 202.39 12.15 47.92 30.07 72.96 30.07 72.96"/><path class="st15" d="M1240.42 1669.55c2.55 9.79 3.14 23.4 2.37 39.19-19.08 6.5-68.95 21.88-98.33 16.5-.91-26.53-5.28-61.08-5.28-61.08s89.09-41.18 101.24 5.39"/><path class="st16" d="M1472.55 1318.82l-68.92-258.28h286.9l62.41 258.28z"/><path class="st10" d="M1735.76 1299.28h-256.32l-4.39-16.63-3.84-14.63-51.41-195.54h257.6z"/><path class="st16" d="M1477.24 1290.97l7.01 27.85h363.88v-27.85z"/><path class="st17" d="M646.91 989.34H488.33c-1.13 0-2.06-.92-2.06-2.06v-24.4c0-1.14.93-2.06 2.06-2.06h158.58z"/><path class="st17" d="M646.33 986.03H487.89c-.9 0-1.62-.72-1.62-1.61v-18.67c0-.9.72-1.62 1.62-1.62h158.44c.9 0 1.62.72 1.62 1.62v18.67c0 .89-.72 1.61-1.62 1.61"/><path class="st17" d="M596.4 989.34H487.8c-.84 0-1.53-.68-1.53-1.53v-25.46c0-.84.69-1.53 1.53-1.53h108.6c.85 0 1.54.69 1.54 1.53v25.46c0 .85-.69 1.53-1.54 1.53m59.29-28.52H497.11c-1.14 0-2.06-.92-2.06-2.06v-24.4c0-1.14.92-2.06 2.06-2.06h158.58z"/><path class="st17" d="M655.11 957.51H496.67c-.9 0-1.62-.72-1.62-1.62v-18.67c0-.89.72-1.61 1.62-1.61h158.44c.9 0 1.62.72 1.62 1.61v18.67c0 .9-.72 1.62-1.62 1.62"/><path class="st17" d="M605.18 960.82h-108.6c-.84 0-1.53-.69-1.53-1.53v-25.46c0-.85.69-1.53 1.53-1.53h108.6c.85 0 1.54.68 1.54 1.53v25.46c0 .84-.69 1.53-1.54 1.53m43.87-28.52H490.47c-1.14 0-2.06-.93-2.06-2.07v-24.39c0-1.14.92-2.07 2.06-2.07h158.58z"/><path class="st17" d="M648.47 928.99H490.02c-.89 0-1.61-.73-1.61-1.62V908.7c0-.89.72-1.61 1.61-1.61h158.45c.89 0 1.61.72 1.61 1.61v18.67c0 .89-.72 1.62-1.61 1.62"/><path class="st17" d="M598.54 932.3h-108.6c-.85 0-1.53-.69-1.53-1.53v-25.46c0-.85.68-1.54 1.53-1.54h108.6c.85 0 1.53.69 1.53 1.54v25.46c0 .84-.68 1.53-1.53 1.53m118.19 502.93H558.16c-1.14 0-2.06-.92-2.06-2.06v-24.4c0-1.14.92-2.06 2.06-2.06h158.57z"/><path class="st17" d="M716.16 1431.92H557.71c-.89 0-1.62-.72-1.62-1.61v-18.67c0-.9.73-1.62 1.62-1.62h158.45c.89 0 1.61.72 1.61 1.62v18.67c0 .89-.72 1.61-1.61 1.61"/><path class="st17" d="M666.23 1435.23h-108.6c-.85 0-1.53-.68-1.53-1.53v-25.46c0-.84.68-1.53 1.53-1.53h108.6c.84 0 1.53.69 1.53 1.53v25.46c0 .85-.69 1.53-1.53 1.53m59.28-28.52H566.94c-1.14 0-2.07-.92-2.07-2.06v-24.4c0-1.14.93-2.06 2.07-2.06h158.57z"/><path class="st17" d="M724.94 1403.4H566.49c-.89 0-1.62-.72-1.62-1.62v-18.67c0-.89.73-1.61 1.62-1.61h158.45c.89 0 1.61.72 1.61 1.61v18.67c0 .9-.72 1.62-1.61 1.62"/><path class="st17" d="M675.01 1406.71h-108.6c-.85 0-1.54-.69-1.54-1.53v-25.46c0-.85.69-1.53 1.54-1.53h108.6c.84 0 1.53.68 1.53 1.53v25.46c0 .84-.69 1.53-1.53 1.53m276.18-419.69V813.91c0-.32.26-.58.58-.58h27.37c.32 0 .57.26.57.58v173.11c0 .32-.25.57-.57.57h-27.37c-.32 0-.58-.25-.58-.57"/><path class="st17" d="M958.47 909.83v-84.17c0-.31.26-.57.57-.57h12.82c.32 0 .58.26.58.57v84.17c0 .32-.26.58-.58.58h-12.82c-.31 0-.57-.26-.57-.58m-38.97 77.19V813.91c0-.32.26-.58.57-.58h27.38c.31 0 .57.26.57.58v173.11c0 .32-.26.57-.57.57h-27.38a.57.57 0 01-.57-.57"/><path class="st17" d="M926.78 909.83v-84.17c0-.31.26-.57.57-.57h12.82c.32 0 .57.26.57.57v84.17c0 .32-.25.58-.57.58h-12.82c-.31 0-.57-.26-.57-.58m-63.01 77.19V860.65c0-.32.25-.58.57-.58h19.72c.32 0 .58.26.58.58v126.37c0 .32-.26.57-.58.57h-19.72c-.32 0-.57-.25-.57-.57"/><path class="st17" d="M869.09 930.54v-61.29c0-.32.26-.58.58-.58h9.07c.32 0 .57.26.57.58v61.29c0 .31-.25.57-.57.57h-9.07c-.32 0-.58-.26-.58-.57m-28.51 56.48V860.65c0-.32.25-.58.57-.58h19.72c.32 0 .58.26.58.58v126.37c0 .32-.26.57-.58.57h-19.72c-.32 0-.57-.25-.57-.57"/><path class="st17" d="M845.9 930.54v-61.29c0-.32.26-.58.58-.58h9.07c.31 0 .57.26.57.58v61.29c0 .31-.26.57-.57.57h-9.07c-.32 0-.58-.26-.58-.57M555.85 680.38V507.27c0-.32-.26-.58-.57-.58H527.9c-.31 0-.57.26-.57.58v173.11c0 .31.26.57.57.57h27.38c.31 0 .57-.25.57-.57"/><path class="st17" d="M548.57 603.19v-84.17a.57.57 0 00-.57-.57h-12.82a.57.57 0 00-.57.57v84.17c0 .32.25.58.57.58H548c.32 0 .57-.26.57-.58m38.97 77.19V507.27c0-.32-.25-.58-.57-.58h-27.38c-.31 0-.57.26-.57.58v173.11c0 .31.26.57.57.57h27.38c.32 0 .57-.26.57-.57"/><path class="st17" d="M580.26 603.19v-84.17a.57.57 0 00-.57-.57h-12.82c-.31 0-.57.26-.57.57v84.17c0 .32.26.58.57.58h12.82c.32 0 .57-.26.57-.58m63.01 77.19V554.01c0-.32-.25-.58-.57-.58h-19.72c-.32 0-.58.26-.58.57v126.38c0 .31.26.57.58.57h19.72c.32 0 .57-.26.57-.57"/><path class="st17" d="M637.95 623.89v-61.28a.58.58 0 00-.58-.58h-9.07c-.31 0-.57.26-.57.58v61.28c0 .32.26.58.57.58h9.07c.32 0 .58-.26.58-.58m72.68 48.25l-46.37-117.56a.568.568 0 00-.74-.32l-18.35 7.23a.57.57 0 00-.32.75l46.36 117.56c.11.3.45.44.74.32l18.35-7.23c.3-.12.44-.45.33-.75"/><path class="st17" d="M684.95 621.55l-22.49-57.01a.56.56 0 00-.74-.32l-8.44 3.32c-.29.12-.44.45-.32.75l22.48 57.01c.12.3.45.44.75.33l8.43-3.33c.3-.12.44-.45.33-.75m233.65 809.8v-173.11c0-.32.26-.58.58-.58h27.37c.32 0 .58.26.58.58v173.11c0 .31-.26.57-.58.57h-27.37c-.32 0-.58-.26-.58-.57"/><path class="st17" d="M925.88 1354.16v-84.17c0-.32.26-.57.58-.57h12.81c.32 0 .58.25.58.57v84.17c0 .32-.26.58-.58.58h-12.81a.58.58 0 01-.58-.58m-33.11 77.19v-131.82c0-.32.26-.58.58-.58h20.61c.32 0 .58.26.58.58v131.82c0 .31-.26.57-.58.57h-20.61c-.32 0-.58-.26-.58-.57"/><path class="st17" d="M898.33 1372.45v-63.95c0-.32.25-.58.57-.58h9.51c.32 0 .57.26.57.58v63.95c0 .32-.25.58-.57.58h-9.51c-.32 0-.57-.26-.57-.58M486.27 1210.1v-173.11c0-.31.26-.57.58-.57h27.37c.32 0 .58.26.58.57v173.11c0 .32-.26.58-.58.58h-27.37a.58.58 0 01-.58-.58"/><path class="st17" d="M493.55 1132.92v-84.17c0-.32.26-.57.58-.57h12.81c.32 0 .58.25.58.57v84.17c0 .32-.26.58-.58.58h-12.81a.58.58 0 01-.58-.58m55.72 77.18v-118.69c0-.32.25-.57.57-.57h27.38c.31 0 .57.25.57.57v118.69c0 .32-.26.58-.57.58h-27.38c-.32 0-.57-.26-.57-.58"/><path class="st17" d="M556.55 1157.02v-57.52c0-.32.25-.58.57-.58h12.82c.31 0 .57.26.57.58v57.52c0 .32-.26.58-.57.58h-12.82c-.32 0-.57-.26-.57-.58m56.09 53.08v-118.69c0-.32.26-.57.58-.57h27.37c.32 0 .58.25.58.57v118.69c0 .32-.26.58-.58.58h-27.37a.58.58 0 01-.58-.58"/><path class="st17" d="M619.92 1157.02v-57.52c0-.32.26-.58.58-.58h12.81c.32 0 .58.26.58.58v57.52c0 .32-.26.58-.58.58H620.5a.58.58 0 01-.58-.58m56.1 53.08v-150.48c0-.31.26-.57.58-.57h27.37c.32 0 .57.26.57.57v150.48c0 .32-.25.58-.57.58H676.6a.58.58 0 01-.58-.58"/><path class="st17" d="M683.3 1142.94v-73.09c0-.31.26-.57.58-.57h12.81c.32 0 .58.26.58.57v73.09c0 .32-.26.58-.58.58h-12.81a.58.58 0 01-.58-.58m88.46 67.16v-150.48c0-.31.26-.57.58-.57h27.37c.32 0 .58.26.58.57v150.48c0 .32-.26.58-.58.58h-27.37a.58.58 0 01-.58-.58"/><path class="st17" d="M779.04 1142.94v-73.09c0-.31.26-.57.58-.57h12.81c.32 0 .58.26.58.57v73.09c0 .32-.26.58-.58.58h-12.81a.58.58 0 01-.58-.58m88.47 67.16v-150.48c0-.31.26-.57.57-.57h27.38c.31 0 .57.26.57.57v150.48c0 .32-.26.58-.57.58h-27.38c-.31 0-.57-.26-.57-.58"/><path class="st17" d="M874.79 1142.94v-73.09c0-.31.25-.57.57-.57h12.82c.31 0 .57.26.57.57v73.09c0 .32-.26.58-.57.58h-12.82c-.32 0-.57-.26-.57-.58m-91.98-155.42L665.73 860a.58.58 0 01.03-.81l20.17-18.51c.23-.22.59-.2.81.03l117.08 127.51c.22.24.2.6-.03.82l-20.17 18.51c-.23.22-.59.2-.81-.03"/><path class="st17" d="M735.97 925.74l-56.93-62c-.21-.23-.2-.6.04-.81l9.44-8.67c.23-.21.59-.2.81.03l56.93 62c.21.24.2.6-.04.82l-9.44 8.66c-.23.22-.59.2-.81-.03M982.3-1393.04H482.34v204.22H982.3zm.01 447.16H482.34v197.17h499.97zm-.01-225.34H482.34v200.69H982.3zm.01-521.09H482.34v278.15h499.97zm24.64-24.65H461.21v1165.42h545.74z"/><path class="st5" d="M1573.41 1945.44s-18.49 66.82-21.21 75.25l-153.11-49.46s-8.11-30.03 34.64-24.45c43.91 5.74 73.49 3.58 97.93-16.58 24.44-20.17 41.75 15.24 41.75 15.24"/><path class="st18" d="M2072.39 1421.85s-333.2 61.4-352.87 81.23c-19.68 19.83-204.84 428.57-204.84 428.57s19.91 29.28 55.75 42.22c0 0 39.93-71.67 82.18-125.43 42.26-53.76 91.27-107.51 140.93-208.06 49.66-100.55 226.42-113.49 228.63-113.49 2.21 0 64.92-81.63 67.91-83.62 2.99-1.99-17.69-21.42-17.69-21.42"/><path class="st5" d="M1771.24 2030.76s2.96 69.66 2.96 78.56h-161.8s-17.05-26.23 25.6-34.1c43.78-8.08 71.42-19.29 88.58-46.14 17.15-26.85 44.66 1.68 44.66 1.68"/><path d="M2301.06 1542.86s-3.21 77.16-38.18 76.76c-34.96-.4-358.47-3.21-394.64-11.26 0 0-58.04 265.94-90 406.32 0 0-5.48 18.38-27.18 18.49-11.19.05-23.2-1.25-33.87-5.35 0 0-47.47-475.72 6.18-515.5 40.88-30.33 263.72-62.76 367.4-76.47 32.35-4.27 53.09-6.73 53.09-6.73z" fill="#1a2982"/><path class="st18" d="M2301.06 1542.86s-3.21 77.16-38.18 76.76c-34.96-.4-358.47-3.21-394.64-11.26 0 0 6.16 100.24-31.02 198.27-32.85 86.61-31.94 160.37-45.79 221.19 0 0-18.67 5.24-40.37 5.35 23.45-119.61 83.77-422.61 98.11-450.44 17.92-34.77 318.56-42.9 317.39-67.78-1.16-24.89-100.87-75.72-100.87-75.72l25.08-3.38c32.35-4.27 53.09-6.73 53.09-6.73z"/><path class="st20" d="M2090.07 1251.1s-124.22.8-179.06-7.24c-54.83-8.03-74.12-26.92-91.8-26.52-17.68.4-29.34 11.66-29.34 11.66s250.37 96.8 309.05 51.81z"/><path class="st21" d="M1890.65 1257.8s-.19-7.9 9.53-15.74c0 0 179.45 15.8 202.34 0 22.9-15.81-.99 39.94-17.42 66.82-16.42 26.88-146.83-5.91-165.75-16.15-18.91-10.23-28.7-34.93-28.7-34.93"/><path class="st22" d="M2207.06 1073.71c-8.13 8.7-27.2 17.66-44.62 24.55-18.33 7.25-32.47 7.04-32.47 7.04s-14.3-61.49-26.48-88.55c-9.2-20.41-46.1-5.97-68.08-9.73-21.95-3.74-18.34-45.22-18.87-50.58-.55-5.36-42.2-7.81-23.99-20.67 5.8-4.08 10.06-10.07 13.19-16.33.68-1.34 1.3-2.7 1.87-4.06l.09-.22c.62-1.43 1.14-2.83 1.64-4.19 3.72-10.51 4.64-19.69 4.64-19.69.64-7.08 1.55-13.44 2.67-19.16.35-1.75.69-3.43 1.08-5.06.6-2.56 1.25-4.99 1.94-7.27.48-1.67 1-3.27 1.54-4.78.56-1.63 1.16-3.19 1.77-4.66 10.91-26.72 26.91-28.72 26.91-28.72l53.44 14.74s47.83 26.93 79.57 71.53c31.75 44.6-13.25 70.73-13.25 70.73-3.67 48.77 48.11 83.61 37.41 95.08"/><path class="st20" d="M2219.83 1066.64c-8.13 8.7-39.97 24.73-57.39 31.62-.67-.28-1.01-.43-1.01-.43s-14.75-152.79-33.27-175.75c-18.48-22.89-76.74-28-76.74-28s.68-29.55-33.04-29.36c5.75-30.95 31.51-43.09 31.51-43.09l53.44 14.74s47.83 26.93 79.56 71.53c31.76 44.6-.56 62.84-.56 62.84-3.67 48.76 48.2 84.43 37.5 95.9"/><path class="st22" d="M2075.2 1274.81s43.81 57.47 48.63 77.83-136.1-6.97-191.83-35.9c-55.72-28.94-73.41-31.08-73.41-31.08s-3.21-2.14-8.3-1.34c-5.09.8-32.15 5.63-70.46-15.27 0 0-14.74 3.21-25.45 2.95 0 0-8.04 22.23-31.89 17.95 0 0-6.69-1.88 0-6.43 6.7-4.56 14.74-16.08 18.22-22.51 0 0 1.61-3.21 2.68-3.21 0 0-15.81-21.17 1.07-27.06 16.88-5.9 47.96-13.4 54.39-9.65s67.25 31.35 79.03 33.49c11.79 2.14 104.76 32.42 197.32 20.23"/><path class="st11" d="M2305.88 1241.85c-17.81-131.37-78.29-187.36-84.59-196.12-6.72-9.33-10.75-3.15-10.75-3.15-18.6 34.48-86.59 51.27-86.59 51.27-.22 18.92-2.53 30.25-2.53 30.25-23.71 49.84-46.22 150.71-46.22 150.71-.02 0-80.43-.41-192.52-19.09 0 0-9.48 8.88-9.55 34.17-.05 18.96 126.96 72.43 202.79 74.56l-10.22 57.4s16.29 12.14 45.26 32.23c20.42 14.17 47.16 32.29 78.94 52.9 76.84 49.83 115.98 42.31 115.98 42.31s18.48-171.18 0-307.44"/><path class="st21" d="M2295.16 1194.8s-6.61 287.79-145.35 264.4c0 0 52.33 31.5 74.17 47.28 21.83 15.78 58.99 42.27 81.9 42.81 0 0 23.61-286.03-10.72-354.49m-107.39 9.48c.43-1.37 2.48-.84 2.19.57-11.16 55.88-41.26 202.8-55.51 235.18-4.87 11.07-13.52 14.67-23.49 14.05-28.97-20.09-45.26-32.23-45.26-32.23l10.22-57.4 24.61-2.48c4.86-.32 23.71-4.67 25.22-6.47 20.69-24.66 49.34-110.89 62.02-151.22"/><path class="st20" d="M1743.39 1257.8l10.99-1.21s-1.88-11.12 1.47-12.32c3.35-1.21 27.59-6.3 27.59-6.3s.81-1.88-12.86-.94c-13.66.94-25.81 1.78-27.19 10.25-1.37 8.48 0 10.52 0 10.52m10.99-1.21l24.39-1.75-16.58.16c-2.69.02-5.34.56-7.81 1.59"/><path class="st16" d="M2051.09 892.59l104.5 13.5s-3.1 3.18-4.54 6.67l-99.96-13.04s.95-2.96 0-7.13"/><path class="st16" d="M2024.64 869.56c-13.56 0-24.59 11.86-24.59 26.44 0 14.58 11.03 26.45 24.59 26.45 13.57 0 24.6-11.87 24.6-26.45s-11.03-26.44-24.6-26.44m0 56.03c-15.39 0-27.91-13.27-27.91-29.59 0-16.31 12.52-29.58 27.91-29.58 15.4 0 27.92 13.27 27.92 29.58 0 16.32-12.52 29.59-27.92 29.59"/><path d="M2165.65-770.24h-24.01v474.92h24.01z" fill="#7f7f7f"/><path class="st24" d="M2165.65 2105.93h-24.01c-.5 0-.91-.56-.91-1.26v-474.92c0-.7.41-1.26.91-1.26h24.01c.51 0 .92.56.92 1.26v474.92c0 .7-.41 1.26-.92 1.26"/><path class="st25" d="M2184.86-490.75h-62.43v117.66h62.43z"/><path d="M1943.46 2107.63c27.96-18.58 105.56-64.86 214.65-63.57 103.77 1.21 177.47 44.78 205.72 63.57v-19.5c-29.72-18.89-103.26-60.06-205.72-61.23-107.72-1.22-185.13 42.47-214.65 61.23z" fill="#1d2a7c"/><path class="st24" d="M1943.46 2108.54a.914.914 0 01-.91-.91v-19.5c0-.31.16-.6.42-.77 36.3-23.07 111.55-61.39 210.76-61.39 1.46 0 2.91.01 4.39.02 92.3 1.05 163.08 33.95 206.2 61.37.26.17.42.46.42.77v19.5c0 .33-.18.65-.48.8-.29.16-.66.14-.94-.04-34.88-23.2-107.92-62.28-205.22-63.42-101.53-1.11-177.73 39.22-214.13 63.42-.15.1-.33.15-.51.15"/><path class="st27" d="M2336.95 2107.63c0-14.85 12.03-26.88 26.88-26.88s26.88 12.03 26.88 26.88c0 14.84-12.03 26.88-26.88 26.88s-26.88-12.04-26.88-26.88m-420.37 0c0-14.85 12.04-26.88 26.88-26.88 14.85 0 26.88 12.03 26.88 26.88 0 14.84-12.03 26.88-26.88 26.88-14.84 0-26.88-12.04-26.88-26.88"/><path class="st27" d="M1943.46 2081.66c-14.31 0-25.96 11.65-25.96 25.97 0 14.32 11.65 25.97 25.96 25.97 14.32 0 25.97-11.65 25.97-25.97 0-14.32-11.65-25.97-25.97-25.97m184.8 25.97c0-14.02 11.37-25.39 25.39-25.39 14.02 0 25.38 11.37 25.38 25.39 0 14.02-11.36 25.38-25.38 25.38s-25.39-11.36-25.39-25.38"/><path d="M1981.9 1674.39h317.13c1.12 0 2.03-.91 2.03-2.03v-38.84c0-9.99-8.1-18.1-18.1-18.1h-284.99c-10 0-18.1 8.11-18.1 18.1v38.84c0 1.12.91 2.03 2.03 2.03m380.65-245.76c0-50.17-1.29-99.71.63-149.65 1.26-33.06 1.02-66.35-3.81-99.13-2.12-14.42-11.78-80.27-40.38-67.86-5.52 2.4-7.99 10.21-8.92 13.89 1.27 100.92 2.53 201.84 3.8 302.75 0 13.17 8.81 23.84 19.68 23.84h9.32c10.87 0 19.68-10.67 19.68-23.84" fill="#a08570"/><path class="st25" d="M2267.61 1680.22h-237c-4.66 0-8.44-3.77-8.44-8.43s3.78-8.44 8.44-8.44h237c23.45 0 45.49-9.13 62.08-25.71 16.57-16.58 25.7-38.62 25.7-62.07v-316.79c0-4.66 3.78-8.44 8.44-8.44s8.43 3.78 8.43 8.44v316.79c0 27.95-10.88 54.23-30.65 74-19.76 19.77-46.04 30.65-74 30.65"/><path d="M2023.08 854.43s-25.58-30.36 4.78-58.24c30.37-27.87 186.16-35.5 162.77 48.78 0 0 19.33 6.14 26.88 39.49 7.54 33.35-1.65 79.18-34.05 104.61 0 0-26.18-15.18-23.2-26.13 0 0 20.41-8 22.9-37.35 2.49-29.35-28.19-16.4-31.72 0 0 0-1.25-22.95-17.18-22.25-15.92.7-65.58-7.68-68.57-40.24 0 0-17.3 9.47-42.61-8.67" fill="#4f2515"/><path class="st30" d="M1879.03-1081.17H619.23v35.56h1259.8z"/><path class="st30" d="M1805.55-1057.65h-31.35v821.92h31.35zm-1092.72 0h-31.35v821.92h31.35z"/><path class="st14" d="M1078.56 2164.26s-22.68 6.1-48.33-2-38.34-102.63-38.34-102.63 5.94-93.78-4.16-141.7c-10.1-47.92-3.4-149.16 1.32-166.71 1.4-5.18 1.62-14.87 1.24-25.98-.91-26.53-5.28-61.08-5.28-61.08s89.09-41.18 101.24 5.39c2.55 9.79 3.14 23.4 2.37 39.19-2.85 59.35-24.74 149.24-32.74 180.17-10.13 39.14-19.54 154.46-7.39 202.39 12.14 47.92 30.07 72.96 30.07 72.96"/><path class="st15" d="M1086.25 1669.55c2.55 9.79 3.14 23.4 2.37 39.19-19.08 6.5-68.96 21.88-98.33 16.5-.91-26.53-5.28-61.08-5.28-61.08s89.09-41.18 101.24 5.39"/><path class="st16" d="M1280.74 1672.16s-27.73 6.22-119.97 19.17c-36.38 5.1-74.24 5.83-106.73 4.84-49.88-1.52-87.14-7.09-87.14-7.09s16.89-135.66 15.41-234.97c-1.5-99.3 18.28-117.51 18.28-117.51s51.55-72.6 106.93-58.66c55.38 13.94 135.38 0 135.38 0l8.19 24.99 15.71 47.93c-2.84 60.17 13.94 321.3 13.94 321.3"/><path class="st31" d="M1251.09 1302.93c-16.77 6.16-28.39 8.98-28.39 8.98s-64.41-5.1-80.33 25.76c-15.94 30.86 1.62 49.78-25.08 75.66-26.7 25.89-95.39-2.98-103.35 111.49-4.72 67.78 19.53 131.03 40.1 171.35-49.87-1.52-87.14-7.09-87.14-7.09s1.49-132.73 0-232.04c-1.49-99.3 29.9-114.7 29.9-114.7s55.34-78.34 110.72-64.4c55.38 13.94 135.38 0 135.38 0z"/><path d="M1075.34 809.31s-46.62 31.92-13.25 84.53c33.37 52.62 25.24 91.55 72.72 56.9 47.48-34.65 67.59-64.59 69.72-85.56 2.14-20.96 10.88-121.48-3.54-118.06-14.42 3.42-125.65 62.19-125.65 62.19" fill="#e2b370"/><path class="st14" d="M1134.38 841.23s-5.99 45.34 8.56 79.56c14.54 34.22-94.11 27.38-101.81 5.14-7.7-22.25 11.12-140.74 35.08-135.18 23.95 5.57 58.17 50.48 58.17 50.48"/><path class="st9" d="M1230.97 1288.89c-3.74 6.72-139.63 3.08-139.63 3.08s-.12-9.95-.24-26.57c-.58-75.74-1.29-289.93 8.65-330.9.98-4.01 2.06-6.37 3.24-6.77 0 0 30.95 2.55 37.9-19.24 0 0 .32-2.2 3.3-1.88 2.98.34 22.73-.03 22.73-.03s48.93 79.52 56.43 139.65c7.5 60.13 11.35 235.94 7.62 242.66"/><path class="st30" d="M1230.97 1288.89c-3.74 6.72-139.63 3.08-139.63 3.08s-.12-9.95-.24-26.57c14.85 7.29 63.04 28.64 90.58 14.03 32.85-17.42 22.35-79.98 22.9-155.34.55-75.35-49.78-204.03-63.71-195.08-10.35 6.66-31.1 6.18-41.12 5.49.98-4.01 2.06-6.37 3.24-6.77 0 0 30.95 2.55 37.9-19.24 0 0 .32-2.2 3.3-1.88 2.98.34 22.73-.03 22.73-.03s48.93 79.52 56.43 139.65c7.5 60.13 11.35 235.94 7.62 242.66"/><path class="st33" d="M1140.87 1134.58s5.47-1.98 9.12 14.94c3.65 16.92 21.23 52.57 9.8 57.24-11.44 4.67-63.65-42.64-55.47-52.93 8.18-10.28 36.55-19.25 36.55-19.25"/><path class="st34" d="M1268.26 1149.18c-6.34 2.94-11.92 4.82-11.92 4.82s18.92 207.07 24.4 224.98c0 0-30.87 11.95-63.71 13.95 0 0 13.87-130.22 3.42-250.78-3.12-35.98-8.4-71.09-16.87-101.63-36.82-132.91-50.76-136.89-50.76-136.89s-2.66-1.99 2.15-3.65c0 0 9.29-3.32 12.11 1 .8 1.23 1.28 1.96 1.56 2.4.06.1.11.18.16.25 1.79.07 60.86 14.73 60.86 14.73 15.46 21.91 32.7 89.27 44.56 147.52 7.21 35.38 12.12 64.29 12.12 68.04 0 5.67-9.71 11.39-18.08 15.26"/><path class="st33" d="M1286.34 1133.92c0 5.67-9.71 11.39-18.08 15.26-3.9-3.68-6.29-8.6-5.05-13.15 4.69-17.18-16.01-131.35-16.01-131.35-1.8-10.25 12.78 20.65 27.02 61.2 7.2 35.38 12.12 64.29 12.12 68.04"/><path d="M1242.9 1064.9l-22.45 77.25c-3.12-35.98-8.4-71.09-16.87-101.63-36.83-132.91-50.76-136.89-50.76-136.89s-2.66-1.99 2.15-3.65c0 0 9.29-3.32 12.11 1 .8 1.23 1.28 1.96 1.56 2.4.04.07.07.16.1.25l.01.01c.01.02.03.04.06.09.02.03.05.07.09.13.01.02.04.04.06.07 3.74 5.31 56.11 79.57 58.52 85.81l-11.07 24.89z" fill="#1881ea"/><path class="st31" d="M1279.12 1070.87l7.22 8.14-.01.01-48.65 90.91-53.67-24.09 7.3-12.43 36.66-62.54z"/><path class="st15" d="M1285.1 1113.89s-18.85-4.64-25.54 12.98c-6.7 17.63-18.04 44.76-8.99 47.21 9.06 2.45 27.22 14.09 35.1-4.13 7.88-18.21 20.42-45.85 14.93-49.91-5.49-4.07-15.5-6.15-15.5-6.15"/><path d="M1279.12 1070.87l7.22 8.14-.01.01h-52.13l-31.12 53.08c-4.61 1.92-8.55 2.26-11.77 1.31l36.66-62.54z" fill="#132a7c"/><path class="st14" d="M1246.14 1177.96c-2.34 2.79-5.26 5.6-8.46 8.2-9.58 7.89-21.49 14.14-27.25 13.67-7.68-.64-66.62-2.99-66.62-2.99l-13.47-31-1.73-3.99c1.2.29 25.01-16.34 30.54-26.67 4.73-8.91 16.36-23.25 24.85-26.35 0-.01.01-.01.01-.01s12.73-8.33 18.83-14.3c0 0 2.84-3.02 4.86 2.24 2.01 5.26-1.61 11.45-1.61 11.45l-8.15 13.88c5.65 7.35 20.89 13.66 31.08 10.88 10.04-2.73 26.42-10.64 32.39-8.03.88.38 1.53.97 1.9 1.85 2.95 6.9-7.72 39.95-17.17 51.17"/><path d="M1131.09 1233.96c-3.33 60.21-18.09 158.97-18.09 158.97-68.7 15.93-170.98-15.94-170.98-15.94 9.77-15.97 19-60.45 24.88-93.89 4.02-22.82 6.47-40.5 6.47-40.5s150.83-82.88 157.3-47.04c1.41 7.82 1.36 21.61.42 38.4" fill="#0d6ece"/><path class="st33" d="M1131.09 1233.96c-.14.15-.28.28-.42.43 0 0-114.24 48.88-163.77 48.71 4.02-22.82 6.47-40.5 6.47-40.5s150.83-82.88 157.3-47.04c1.41 7.82 1.36 21.61.42 38.4"/><path class="st14" d="M1199.4 775.35c-19.54 40.34-8.98 58.61-38.07 77.43-21.27 13.76-39.34 10.14-69.24-7.18-11-6.36-23.6-14.59-38.55-24.48 0 0 44.79-124.04 73.72-135.6 28.94-11.55 46.04-5.13 46.04-5.13s4.84 7.94 10.48 19.79c9.62 20.26 26.07 53.62 15.62 75.17"/><path class="st34" d="M1159.79 1206.76s-130.23 49.5-172.93 52.9c-27.03 2.14-28.39-9.46-28.39-9.46s-17.21-36.3-27.17-147.8c-9.96-111.5 17.22-165.39 24.18-175.02 0 0 22.6-10.95 39.75-16.97 4.59-1.61 14.81-3.83 14.81-3.83 13.79-6.07 16.54-12.24 26.94-11.48 31.79 2.31 47.64 28.44 47.64 28.44l41.81 105.03c8.96 30.85 4.24 108.51 4.24 108.51l10.2-2.49c-20.41 51.27 18.92 72.17 18.92 72.17"/><path class="st33" d="M1091.83 1091.78c.89-50.85-33.34-97.06-59.03-118.71-25.69-21.65-35.19-63.41-35.19-63.41 13.8-6.07 28.97-15.32 39.37-14.56 14.79 13.48 29.15 30.16 40.93 49.44 39.57 64.8 13.92 147.24 13.92 147.24m-88.34-65.7s1.05 137.99 3.54 147.45c0 0 79.58-29.49 123.63-36.45 0 0-23.85 3.62-91.28 14.99 0 0-17.96 4.92-19.68-14.26-1.55-17.36-16.21-111.73-16.21-111.73"/><path class="st16" d="M990.96 2042.46s13.73 66.99 29.77 90.65c16.03 23.66 22.93 27.24 55.5 23.48 0 0 10.22-2.45 14.43 6.49 4.2 8.94-.79 17.62-7.37 18.4h-66.25s-17.87-2.32-28.91-69.51c-11.04-67.19-5.12-70.52 2.83-69.51"/><path class="st16" d="M989.7 2187.53h-7.64v-124.08l15.27 13.93zm155.43-145.07s13.73 66.99 29.77 90.65c16.03 23.66 22.93 27.24 55.5 23.48 0 0 10.22-2.45 14.43 6.49 4.2 8.94-.79 17.62-7.36 18.4h-66.25s-17.88-2.32-28.92-69.51c-11.04-67.19-5.12-70.52 2.83-69.51"/><path class="st16" d="M1143.88 2187.53h-7.65v-124.08l15.27 13.93z"/><path d="M1177.59 708.62s-12.41-14.97-24.81 1.72c-12.41 16.68-20.54 32.08-57.32 50.47 0 0-41.5 76.14-21.82 113.79 19.68 37.64 76.58 123.5 18.19 217.18 0 0 13.42-94.02-34.75-123.11-48.17-29.09-26.71-41.15-56.37-66.48 0 0-23.1-7.06-9.63-70.58 13.48-63.53 44.28-154.64 94.32-170.04 50.05-15.4 75.08 6.42 75.08 6.42s13.26-8.13 35.21 29.51c21.96 37.65 43.44 154.31.52 212.91l-28.21-7.19s45.84-39.51 29.2-162.98c-1.05-7.81-3.46-15.41-7.33-22.28-3.54-6.27-8.11-11.9-12.28-9.34" fill="#f5d89d"/><path class="st12" d="M2386.54 463.63a5.56 5.56 0 01-11.12 0c0-3.07 2.49-5.55 5.56-5.55 3.07 0 5.56 2.48 5.56 5.55"/><path class="st7" d="M462.43 1233.81c6.51 25.56 8.75 50.26 9.47 74.65 1 24.45-.16 48.46-2.53 72.22-3.64 47.76-23.36 92.26-36.11 138.17a5092.674 5092.674 0 01-40.02 137.37c-14.69 45.51-28.25 91.26-43.93 136.57l-7.83-1.58c3.17-47.85 8.47-95.26 12.63-142.91 4.86-47.51 10.37-94.88 16.54-142.13 6.1-47.25 5.24-95.91 20.45-141.33 7.07-22.81 15.34-45.38 25.76-67.52 10.15-22.19 21.82-44.07 37.75-65.09zM122 1598.4c11.91.96 21.55 4 30.38 7.79 8.98 3.66 16.8 8.37 23.99 13.67 15 10.03 21.32 28.04 31.45 42.54a1019.65 1019.65 0 0129.36 44.47c9.07 15.48 18.74 30.41 27.28 46.37l-4.17 3.84c-15.2-9.85-29.27-20.72-43.95-31.05-14.3-10.66-28.25-21.65-41.86-32.96-13.61-11.3-31.04-19.09-39.78-34.87-4.68-7.61-8.73-15.8-11.63-25.04-3.03-9.12-5.27-18.98-5.23-30.93z"/><path class="st39" d="M519.76 1490.23c3.29 17.2 2.8 32.22.98 46.48-1.58 14.39-5.07 27.68-9.62 40.36-8.07 25.95-30.53 43.59-46.68 64.88a1635.21 1635.21 0 01-50.13 62.88c-17.91 20.26-34.82 41.11-53.6 60.88l-6.91-3.99c7.73-26.15 17.33-51.21 25.93-76.86 9.22-25.28 19.01-50.24 29.39-74.86 10.36-24.62 14.4-52.9 32.84-72.86 8.71-10.28 18.48-19.95 30.14-28.51 11.44-8.71 24.21-16.64 40.75-22.4z"/><path class="st7" d="M572.09 1633.11c-2.95 12.61-7.77 22.35-13.23 31.07-5.36 8.9-11.64 16.34-18.46 22.98-13.11 14.06-33.31 17.12-50.4 25.01-17.09 7.9-34.45 15.36-52.11 22.38-17.95 6.54-35.42 13.86-53.8 19.74l-3.41-5.28c12.95-14.32 26.82-27.2 40.2-40.86 13.68-13.17 27.65-25.91 41.9-38.21 14.24-12.3 25.38-29.44 43.6-35.57 8.85-3.47 18.23-6.12 28.54-7.32 10.2-1.38 21.06-1.74 33.77.78zM298.81 1152.6c24.38 54.75 35.27 110.06 43.02 165.52 8.22 55.43.22 111.55-.87 167.38-.95 55.82-2.57 111.67-4.85 167.56-3 55.9-4.84 111.77-8.84 167.72l-7.98.34c-8.74-55.41-15.33-110.91-23.07-166.37a6999.194 6999.194 0 01-19.08-166.53c-5.84-55.53-18.58-110.77-15.1-166.7 3-55.91 9.15-111.96 28.79-168.58z"/><path class="st39" d="M164.72 1366.18c16.35 13.4 28.56 28.13 39.3 43.33 10.99 15.12 19.9 30.92 27.63 47.09 16.53 32 17.45 69.04 25.14 103.9 7.74 34.84 14.85 69.88 21.33 105.13 5.8 35.47 12.69 70.58 17.53 106.35l-7.6 2.45c-16.98-31.85-31.9-64.37-47.93-96.54a2881.415 2881.415 0 01-44.13-97.77c-14.14-32.78-35.04-63.37-40.33-99-3.18-17.64-5.18-35.67-5.1-54.36-.17-18.61 1.13-37.7 6.56-58.12z"/><path class="st7" d="M476.39-659.95H191.15v70.99h285.24z"/><path class="st39" d="M454.21-588.96H213.33v215.16h240.88z"/></svg>