<svg xmlns="http://www.w3.org/2000/svg" width="2937.21" height="2400"><style>.st28{fill:#db3737}.st26{fill:#1f2a83}.st22{fill:#397cf2}.st20{fill:#1a2982}.st0{fill:#f3f6fc}.st2{fill:#fff}.st1{fill:#8fc0fa}.st17{fill:#f6a538}.st4{fill:#4e95e5}.st3{fill:#c7defe}.st6{fill:#3f1c1c}.st12{fill:#a7452d}.st5{fill:#2946fb}.st7{fill:#fad08c}</style><path class="st0" d="M2781.73 963.64c-3.19 29.78-7.68 60.24-13.56 91.38-1.37 7.28-2.8 14.59-4.33 21.95-.99 4.79-2.02 9.58-3.07 14.4-28.85 131.72-81.92 275.29-164.58 430.63a2409.976 2409.976 0 01-41.17 74.08c-4.63 7.96-9.31 15.97-14.08 23.99-1.02 1.72-2.04 3.45-3.07 5.16-56.78 95.11-117.46 178.76-181.19 251.78-1.12 1.31-2.26 2.59-3.39 3.88-2.74 3.12-5.48 6.22-8.22 9.28-1.15 1.3-2.32 2.59-3.48 3.88-2.94 3.28-5.9 6.52-8.85 9.75-2.95 3.22-5.9 6.42-8.87 9.6-1.16 1.24-2.31 2.48-3.47 3.7-1.07 1.15-2.14 2.28-3.19 3.4-1.24 1.31-2.47 2.62-3.71 3.91-1 1.04-2 2.09-2.99 3.13-1.25 1.3-2.49 2.59-3.73 3.87-1.73 1.81-3.47 3.6-5.22 5.39-2.06 2.1-4.12 4.2-6.17 6.28-1.44 1.46-2.88 2.91-4.32 4.36-8.52 8.55-17.09 16.93-25.69 25.12-1.35 1.29-2.69 2.58-4.06 3.85-9.6 9.09-19.26 17.94-28.97 26.6-1.72 1.54-3.45 3.08-5.19 4.6-2.13 1.88-4.25 3.74-6.38 5.59-1.47 1.28-2.95 2.56-4.44 3.83-1.55 1.36-3.13 2.71-4.7 4.03-5.79 4.95-11.6 9.83-17.41 14.62-1.52 1.24-3.03 2.48-4.54 3.71-2.1 1.73-4.21 3.43-6.31 5.13-1.73 1.38-3.45 2.77-5.19 4.14-5.48 4.37-10.97 8.68-16.49 12.92-1.83 1.41-3.67 2.82-5.52 4.22a343.21 343.21 0 01-4.43 3.35c-7.22 5.45-14.46 10.79-21.73 16a493.64 493.64 0 01-4.4 3.15c-9.67 6.9-19.4 13.61-29.15 20.13a1118.662 1118.662 0 01-12.84 8.46c-1.88 1.23-3.76 2.44-5.65 3.65-1.87 1.2-3.76 2.4-5.64 3.6-1.62 1.03-3.25 2.05-4.87 3.06a912.09 912.09 0 01-9.72 6.02c-2.68 1.66-5.39 3.29-8.09 4.92-.12.07-.24.16-.37.22-1.17.71-2.34 1.42-3.51 2.1-2.5 1.5-5.01 2.98-7.52 4.45-2.54 1.49-5.08 2.97-7.63 4.43-1.25.72-2.51 1.44-3.77 2.16-.47.28-.95.55-1.45.82a352.91 352.91 0 01-6.31 3.56c-.3.19-.63.37-.96.54-2.8 1.58-5.62 3.14-8.44 4.68a920.25 920.25 0 01-10.69 5.78c-3.23 1.73-6.48 3.44-9.72 5.12-.86.45-1.72.9-2.58 1.34a734.06 734.06 0 01-7.38 3.79c-.04.03-.1.06-.16.09-3.25 1.65-6.51 3.29-9.77 4.9-.01.01-.03.01-.03.01-2.78 1.39-5.57 2.76-8.35 4.1-1.04.51-2.08 1.01-3.12 1.51-1.95.95-3.91 1.88-5.88 2.8-1.26.61-2.55 1.21-3.82 1.82-2.59 1.21-5.18 2.42-7.78 3.61a963.05 963.05 0 01-21.61 9.65c-2.49 1.1-5 2.18-7.51 3.23-.02.02-.04.02-.07.02-1.31.57-2.62 1.12-3.93 1.67-2.58 1.09-5.15 2.16-7.72 3.23-2.95 1.2-5.9 2.4-8.84 3.57-1.01.43-2.03.82-3.05 1.22-.87.35-1.76.7-2.64 1.05-1.53.62-3.09 1.22-4.63 1.81-5.84 2.29-11.72 4.52-17.59 6.68-1.42.53-2.84 1.04-4.27 1.56-.39.14-.78.29-1.18.42-2.68.99-5.39 1.96-8.1 2.92-3.27 1.16-6.55 2.3-9.83 3.43-5.64 1.94-11.31 3.82-16.96 5.66-1.66.54-3.32 1.08-4.98 1.6-.07.03-.14.05-.22.08-2.82.9-5.64 1.79-8.47 2.66-2.33.72-4.65 1.44-6.98 2.14-.77.23-1.52.46-2.28.68-.27.09-.55.17-.83.25-1.43.44-2.88.86-4.31 1.28-5.62 1.67-11.24 3.27-16.87 4.82-2.24.63-4.5 1.26-6.77 1.85-.29.08-.57.16-.86.23-1.7.47-3.41.92-5.1 1.36-.71.2-1.41.38-2.13.57 0 0-.01.01-.02 0-3.3.87-6.6 1.72-9.93 2.54-.38.11-.77.19-1.16.29-1.74.44-3.49.87-5.22 1.3-2.05.49-4.1 1-6.15 1.48-1.37.33-2.74.65-4.11.97-2.09.5-4.19.98-6.31 1.45-1.56.37-3.11.73-4.7 1.06-2.54.58-5.11 1.14-7.68 1.69-2.85.62-5.7 1.23-8.56 1.82-1.28.26-2.55.52-3.84.78-2.74.56-5.49 1.1-8.25 1.64-3.06.6-6.13 1.19-9.19 1.77-2.55.46-5.08.93-7.62 1.38-1.78.32-3.53.62-5.31.93-3.25.57-6.51 1.11-9.78 1.65-2.6.43-5.2.85-7.79 1.25-.85.14-1.71.27-2.57.4-2.97.46-5.94.91-8.92 1.33-2.97.43-5.95.85-8.92 1.25-1.79.26-3.59.51-5.41.72-1.89.27-3.79.51-5.68.75-7.04.89-14.08 1.72-21.13 2.46-2.14.24-4.3.45-6.46.67-1.76.2-3.54.36-5.31.52-1.71.17-3.44.34-5.16.48-1.72.17-3.44.33-5.19.46-2.24.2-4.5.39-6.73.57-1.35.12-2.71.23-4.08.31-2.56.21-5.14.4-7.72.57-.22.02-.46.04-.71.05-3.24.23-6.49.43-9.75.63-6.83.42-13.66.76-20.48 1.04-3.34.13-6.68.25-10.02.36-.11.01-.22.02-.32.01-2.67.08-5.34.16-8 .22-1.24.05-2.47.08-3.67.09-2.74.07-5.46.12-8.2.15-.36.02-.74.02-1.1.01-3.22.05-6.43.08-9.64.09-6.8.04-13.6.02-20.39-.07-3.43-.04-6.86-.11-10.29-.18-3.39-.09-6.8-.18-10.2-.28a1001.123 1001.123 0 01-12.73-.47c-1.72-.07-3.43-.15-5.16-.24-1.75-.06-3.5-.14-5.24-.26-2.18-.1-4.36-.21-6.55-.35-.95-.03-1.89-.09-2.8-.17-2.77-.15-5.54-.33-8.3-.51-6.79-.44-13.57-.96-20.34-1.53-3.38-.29-6.77-.59-10.15-.9-2.81-.26-5.62-.53-8.41-.81-1.05-.09-2.06-.2-3.06-.31-2.78-.29-5.56-.58-8.33-.9-.42-.02-.81-.07-1.19-.13-2.85-.3-5.7-.62-8.55-.97-1.3-.13-2.57-.29-3.82-.46-2.26-.27-4.52-.54-6.77-.82-.69-.09-1.38-.18-2.06-.28-4.07-.52-8.14-1.06-12.21-1.63-4.06-.57-8.12-1.16-12.17-1.76h-.01c-6.09-.92-12.16-1.88-18.23-2.87-2.03-.33-4.06-.69-6.08-1.03-6.69-1.14-13.38-2.34-20.05-3.58-.49-.09-.99-.19-1.48-.29-9.51-1.81-19.01-3.71-28.48-5.72-6.64-1.41-13.27-2.89-19.89-4.4-3.31-.77-6.62-1.54-9.92-2.33a1259.38 1259.38 0 01-39.49-10.09c-3.29-.89-6.55-1.79-9.83-2.72-3.27-.91-6.54-1.85-9.8-2.8-3.18-.92-6.35-1.84-9.53-2.78-.22-.05-.43-.11-.63-.2-9.3-2.77-18.58-5.66-27.84-8.63-3.56-1.16-7.13-2.32-10.69-3.5-2.14-.72-4.3-1.44-6.44-2.15-2.16-.72-4.31-1.45-6.44-2.19-2.03-.71-4.05-1.4-6.08-2.1-.36-.12-.7-.24-1.05-.37-3.51-1.23-7.01-2.47-10.5-3.72-.92-.32-1.82-.64-2.73-.99-1.76-.63-3.52-1.26-5.26-1.91-2.35-.85-4.69-1.7-7.01-2.59-1.84-.68-3.67-1.36-5.49-2.05-3.26-1.22-6.52-2.46-9.76-3.72-3.17-1.22-6.32-2.46-9.47-3.69-2.19-.86-4.37-1.73-6.54-2.59-1.68-.68-3.38-1.36-5.05-2.04-2.46-1-4.92-2.01-7.4-3.03-.97-.4-1.97-.81-2.95-1.22-.01-.01-.03-.01-.04-.02-.17-.07-.33-.13-.5-.2-3.5-1.45-7-2.92-10.5-4.4-.12-.05-.24-.11-.37-.17-7.21-3.06-14.39-6.19-21.55-9.38-3.63-1.62-7.25-3.24-10.87-4.89-3.11-1.42-6.21-2.84-9.3-4.29-.03 0-.07-.02-.09-.04-1.12-.5-2.23-1.03-3.34-1.55-2.97-1.38-5.93-2.78-8.87-4.18 0-.01-.02-.01-.02-.01-3.13-1.49-6.24-2.99-9.35-4.5-1.13-.55-2.27-1.09-3.38-1.65-2.36-1.15-4.73-2.3-7.07-3.47-1.55-.76-3.11-1.55-4.66-2.33-3.05-1.52-6.08-3.05-9.1-4.59-3.05-1.53-6.08-3.1-9.09-4.66-2.94-1.53-5.87-3.06-8.83-4.61-.54-.28-1.08-.57-1.62-.85-.06-.03-.09-.06-.12-.07a1433.339 1433.339 0 01-58.59-32.76h-.02c-2.29-1.35-4.56-2.7-6.84-4.06-322.07-192.37-566.96-508-626-843.52C44.1 380.35 556.84 62.79 862.74 109.89c234.71 36.14 538.31 20.04 538.31 20.04 140.52-4.89 304.69-84.4 304.69-84.4 155.43-74.5 396.01-57.43 610.9 50.18l.02-.01c277.56 139.01 512.22 429.06 465.07 867.94"/><path class="st1" d="M1951.54 343.52c-3.71-3.06-7.46-6.1-11.22-9.11l5.92-7.46c3.81 3.05 7.59 6.12 11.33 9.21zM607.57 527.03l-8-5.45c5.28-7.86 10.7-15.66 16.26-23.4l7.84 5.69a888.785 888.785 0 00-16.1 23.16m-30.04 47.87l-8.31-4.96c4.79-8.19 9.72-16.33 14.8-24.42l8.16 5.2c-5.02 8.01-9.91 16.06-14.65 24.18m-26.92 49.58l-8.59-4.43c4.26-8.48 8.66-16.9 13.22-25.27l8.45 4.69c-4.5 8.28-8.86 16.62-13.08 25.01m-23.76 51.22l-8.85-3.89c3.73-8.74 7.59-17.43 11.61-26.08l8.72 4.17c-3.97 8.55-7.8 17.16-11.48 25.8m-20.51 52.68l-9.06-3.33c3.17-8.97 6.48-17.9 9.95-26.8l8.95 3.62a872.2 872.2 0 00-9.84 26.51m1488.42-346.95c-6.99-6.51-14.1-12.94-21.33-19.28l6.25-7.18a958.54 958.54 0 0121.56 19.49zM489.18 782.31l-9.24-2.77c2.6-9.16 5.34-18.29 8.24-27.39l9.15 3.06c-2.86 9-5.58 18.04-8.15 27.1M2035.63 421.9a949.45 949.45 0 00-20.13-20.54l6.7-6.77c6.9 6.84 13.68 13.76 20.33 20.76zM475.42 837.29l-9.39-2.2c2.02-9.32 4.19-18.62 6.52-27.89l9.32 2.48c-2.3 9.18-4.45 18.38-6.45 27.61m1598.5-372.53a937.413 937.413 0 00-18.82-21.72l7.11-6.33a933.84 933.84 0 0119.02 21.96zM465.12 893.08l-9.49-1.61c1.44-9.45 3.02-18.87 4.76-28.28l9.45 1.91c-1.72 9.3-3.29 18.63-4.72 27.98m1644.41-383.2a924.24 924.24 0 00-17.45-22.82l7.5-5.87c6.01 7.61 11.88 15.31 17.64 23.07zM458.32 949.46l-9.57-1.01c.85-9.53 1.85-19.05 3-28.56l9.53 1.32c-1.13 9.41-2.12 18.82-2.96 28.25m1683.96-392.37c-5.2-8.01-10.54-15.97-16.01-23.85l7.87-5.38c5.52 7.97 10.91 16 16.16 24.1zM455.02 1006.24l-9.6-.42c.26-9.58.67-19.15 1.22-28.72l9.59.72c-.55 9.47-.95 18.94-1.21 28.42m1717.02-400.05c-4.7-8.32-9.53-16.58-14.5-24.78l8.19-4.87c5.02 8.28 9.91 16.63 14.66 25.04zm-1716.8 456.99l-9.6.17c-.33-9.59-.51-19.18-.56-28.78l9.61.13c.03 9.5.22 18.99.55 28.48m1743.48-406.19a943.89 943.89 0 00-12.94-25.6l8.49-4.35c4.49 8.57 8.86 17.19 13.07 25.88zM458.96 1120.07l-9.56.76a986 986 0 01-2.33-28.72l9.59-.46c.62 9.48 1.39 18.96 2.3 28.42M2222.21 709.3c-3.64-8.82-7.42-17.6-11.34-26.33l8.75-3.8c3.96 8.82 7.78 17.69 11.46 26.6zM466.19 1176.7l-9.49 1.34c-1.51-9.5-2.87-19.02-4.09-28.56l9.53-1.05c1.21 9.44 2.55 18.87 4.05 28.27m1776.24-413.79c-3.09-9.02-6.32-18.01-9.7-26.95l8.98-3.25c3.41 9.04 6.68 18.11 9.8 27.24zM476.88 1232.84l-9.38 1.93c-2.09-9.41-4.03-18.83-5.83-28.29l9.43-1.64c1.78 9.36 3.71 18.69 5.78 28m1782.43-415.23c-2.52-9.19-5.2-18.35-8.01-27.47l9.17-2.69c2.84 9.22 5.55 18.47 8.1 27.76zM481.78 1290.77c-2.67-9.27-5.19-18.57-7.57-27.9l9.31-2.21c2.35 9.23 4.84 18.44 7.48 27.61zm1800.43-419.4l-9.39 1.82c-1.97-9.32-4.07-18.62-6.32-27.88l9.33-2.12c2.27 9.37 4.4 18.76 6.38 28.18M499.46 1345.85c-3.23-9.09-6.32-18.23-9.27-27.41l9.14-2.78c2.92 9.08 5.97 18.12 9.17 27.12zm1792.9-417.65l-9.5 1.23c-1.38-9.41-2.92-18.81-4.59-28.18l9.45-1.54c1.7 9.48 3.25 18.98 4.64 28.49M520.51 1399.8a953.72 953.72 0 01-10.94-26.82l8.94-3.35c3.47 8.89 7.08 17.74 10.82 26.54zm1778.51-414.33l-9.57.65a963.07 963.07 0 00-2.85-28.38l9.53-.95c1.11 9.55 2.07 19.11 2.89 28.68M544.85 1452.4c-4.33-8.65-8.52-17.36-12.57-26.12l8.7-3.9c4.01 8.67 8.16 17.29 12.44 25.84zm1757.27-409.41l-9.6.05c-.22-9.5-.58-18.99-1.1-28.47l9.59-.35c.52 9.58.9 19.17 1.11 28.77M572.4 1503.44c-4.86-8.37-9.59-16.81-14.17-25.31l8.43-4.44a917.89 917.89 0 0014.02 25.04zm1729.3-402.93l-9.6-.54c.37-9.48.59-18.97.66-28.45l9.6.24c-.07 9.58-.29 19.16-.66 28.75M603.05 1552.73a893.979 893.979 0 01-15.71-24.41l8.13-4.97c5.05 8.12 10.22 16.17 15.54 24.15zm1694.66-394.92l-9.56-1.13c.95-9.43 1.75-18.87 2.41-28.31l9.58.83c-.66 9.55-1.48 19.09-2.43 28.61M636.69 1600.06a917.294 917.294 0 01-17.18-23.41l7.79-5.47c5.54 7.79 11.21 15.52 17 23.17zm1653.48-385.36l-9.47-1.72c1.53-9.34 2.92-18.7 4.16-28.08l9.53 1.42c-1.26 9.48-2.66 18.94-4.22 28.38M673.18 1645.25c-6.32-7.36-12.52-14.8-18.59-22.32l7.43-5.95c6 7.44 12.14 14.8 18.4 22.09zm1605.94-374.32l-9.36-2.3c2.11-9.22 4.08-18.46 5.91-27.73l9.42 2.01c-1.84 9.36-3.83 18.71-5.97 28.02M712.39 1688.15a943.029 943.029 0 01-19.93-21.15l7.04-6.41c6.45 7.06 13.03 14.04 19.72 20.93zm1552.19-361.86l-9.2-2.88c2.68-9.06 5.22-18.15 7.62-27.26l9.29 2.58c-2.42 9.22-4.99 18.4-7.71 27.56M754.14 1728.57a976.405 976.405 0 01-21.18-19.89l6.62-6.85c6.87 6.65 13.86 13.22 20.97 19.7zm1492.48-348l-9.02-3.45c3.25-8.86 6.35-17.76 9.31-26.7l9.12 3.16c-2.99 9.03-6.13 18.03-9.41 26.99M798.27 1766.41c-7.57-6.11-15.01-12.3-22.35-18.59l6.18-7.24c7.25 6.22 14.63 12.35 22.12 18.4zm1427.02-332.87l-8.8-3.98c3.8-8.65 7.45-17.33 10.96-26.05l8.92 3.72c-3.55 8.82-7.24 17.58-11.08 26.31M844.53 1801.49a946.24 946.24 0 01-23.38-17.19l5.72-7.61c7.65 5.81 15.37 11.48 23.14 17.02zm1356.15-316.48l-8.54-4.53c4.33-8.37 8.52-16.8 12.57-25.27l8.68 4.27a947.09 947.09 0 01-12.71 25.53M892.79 1833.7a917.666 917.666 0 01-24.37-15.74l5.23-7.96c7.98 5.33 16.02 10.52 24.12 15.58zm1280.08-298.86l-8.26-5.05c4.86-8.1 9.58-16.25 14.16-24.46l8.41 4.79c-4.63 8.29-9.4 16.53-14.31 24.72M942.83 1862.87c-8.45-4.59-16.86-9.32-25.21-14.19l4.73-8.27a931.41 931.41 0 0024.94 14.03zm1199.14-280.03l-7.95-5.54c5.37-7.78 10.58-15.62 15.67-23.51l8.1 5.29a890.23 890.23 0 01-15.82 23.76M994.5 1888.87c-8.72-4.06-17.4-8.26-26.03-12.61l4.2-8.56c8.54 4.3 17.13 8.46 25.76 12.48zm1113.65-260.08l-7.6-6.01a886.59 886.59 0 0017.09-22.47l7.77 5.78c-5.62 7.63-11.37 15.2-17.26 22.7m-1060.51 282.86a944.69 944.69 0 01-26.74-10.98l3.65-8.81c8.79 3.76 17.61 7.38 26.47 10.86zm1023.85-239.02l-7.22-6.45a930.18 930.18 0 0018.47-21.41l7.41 6.23a904.867 904.867 0 01-18.66 21.63m-969.42 258.47c-9.15-2.95-18.27-6.06-27.35-9.3l3.08-9.04c9 3.21 18.02 6.28 27.08 9.21zm930.12-217.03l-6.82-6.88a877.46 877.46 0 0019.77-20.2l7.02 6.67a917.175 917.175 0 01-19.97 20.41m-874.63 233.08c-9.31-2.38-18.6-4.91-27.87-7.6l2.52-9.21c9.17 2.65 18.36 5.15 27.58 7.51zm832.8-194.2l-6.39-7.28c7.08-6.18 14.09-12.48 21.01-18.91l6.6 7.08c-6.99 6.5-14.07 12.87-21.22 19.11m-776.48 206.78c-9.43-1.8-18.85-3.75-28.25-5.85l1.94-9.38c9.3 2.08 18.62 4.02 27.96 5.8zm732.27-170.62l-5.93-7.66c7.47-5.72 14.85-11.56 22.16-17.54l6.16 7.48a920.285 920.285 0 01-22.39 17.72m-675.31 179.7c-9.52-1.21-19.04-2.58-28.53-4.1l1.34-9.48c9.4 1.5 18.82 2.85 28.25 4.06zm628.89-146.42l-5.44-8.01c7.81-5.23 15.56-10.61 23.23-16.1l5.68 7.83a926.886 926.886 0 01-23.47 16.28m-571.53 151.97c-9.58-.63-19.15-1.41-28.72-2.33l.76-9.56c9.47.92 18.94 1.69 28.42 2.31zm523.06-121.69l-4.94-8.32c8.14-4.73 16.22-9.6 24.22-14.61l5.2 8.17c-8.1 5.06-16.25 9.97-24.48 14.76m-465.53 123.69c-9.59-.04-19.18-.23-28.78-.56l.17-9.6c9.49.33 18.99.52 28.48.56zm415.23-96.54l-4.42-8.6c8.43-4.21 16.8-8.56 25.11-13.04l4.68 8.46c-8.4 4.54-16.86 8.93-25.37 13.18m-357.73 94.99c-9.57.55-19.15.96-28.74 1.21l-.41-9.6c9.48-.25 18.96-.65 28.43-1.2zm305.78-71.06l-3.87-8.85c8.69-3.67 17.31-7.49 25.89-11.44l4.14 8.74c-8.66 3.99-17.39 7.85-26.16 11.55m-248.54 65.97a909.25 909.25 0 01-28.57 2.99l-1.02-9.56c9.45-.84 18.87-1.83 28.28-2.96zm195.15-45.33l-3.31-9.07c8.9-3.12 17.76-6.39 26.58-9.79l3.59 8.96c-8.9 3.45-17.86 6.75-26.86 9.9m-138.39 36.72c-9.41 1.72-18.84 3.31-28.31 4.74l-1.59-9.5c9.36-1.41 18.69-2.98 28.01-4.69zm83.78-19.46l-2.76-9.24c9.09-2.57 18.15-5.27 27.17-8.12l3.03 9.16c-9.11 2.88-18.26 5.62-27.44 8.2m-38.66 10.01c-5.63 1.32-11.31 2.61-16.98 3.83l-2.19-9.39c5.62-1.21 11.25-2.5 16.82-3.79 3.62-.85 7.22-1.73 10.83-2.62l2.47 9.32c-3.65.9-7.29 1.79-10.95 2.65M641.4 480.02l-7.65-5.94c2.92-3.79 5.86-7.56 8.84-11.31l7.56 6.05c-2.95 3.71-5.87 7.45-8.75 11.2m-40.42 749.25l-9.31 2.19a743.8 743.8 0 01-3.42-14.14l9.35-2.02c1.08 4.66 2.21 9.31 3.38 13.97m563.74-953.89l-2.52-9.31c4.72-1.2 9.42-2.38 14.24-3.47 4.55-1.07 9.11-2.1 13.67-3.09l2.18 9.39c-4.74 1.03-9.37 2.11-14.23 3.22-4.47 1.05-8.92 2.13-13.34 3.26m83.38-16.52c-9.33 1.34-18.67 2.85-28 4.53l-1.86-9.46c9.45-1.69 18.89-3.22 28.33-4.57zm-137.73 32.4l-3.16-9.13c9.03-2.99 18.15-5.83 27.34-8.51l2.84 9.22c-9.09 2.65-18.1 5.46-27.02 8.42m194.16-38.43c-9.41.67-18.84 1.51-28.28 2.51l-1.19-9.54c9.55-1.03 19.1-1.87 28.62-2.55zm-247.15 58.12l-3.8-8.89c8.78-3.63 17.66-7.12 26.63-10.44l3.48 9c-8.86 3.3-17.63 6.74-26.31 10.33m303.94-60.11c-9.45 0-18.92.15-28.42.49l-.5-9.6c9.61-.34 19.2-.5 28.77-.49zm-355.33 83.57l-4.42-8.6c8.49-4.26 17.09-8.37 25.78-12.34l4.11 8.74c-8.58 3.92-17.08 7.99-25.47 12.2m412.2-81.46c-9.45-.69-18.92-1.21-28.42-1.56l.19-9.6c9.62.35 19.2.88 28.77 1.59zM956.48 361.53l-5.02-8.26c8.16-4.87 16.43-9.6 24.8-14.18l4.72 8.44c-8.27 4.53-16.44 9.2-24.5 14m518.51-102.38a812.91 812.91 0 00-28.35-3.61l.88-9.55c9.6 1.05 19.16 2.27 28.69 3.66zM909.11 392.17l-5.59-7.9c7.78-5.44 15.67-10.76 23.68-15.94l5.31 8.09a783.459 783.459 0 00-23.4 15.75m622.12-122.75c-9.3-2.04-18.65-3.92-28.03-5.63l1.56-9.45c9.5 1.73 18.96 3.64 28.37 5.7zM864.25 426.08l-6.15-7.48c7.35-5.99 14.82-11.85 22.4-17.58l5.87 7.7a778.282 778.282 0 00-22.12 17.36m-42.31 37.1l-6.65-7.04c6.89-6.51 13.92-12.9 21.06-19.16l6.4 7.27c-7.06 6.18-13.99 12.5-20.81 18.93m764.69-179.51c-9.14-2.7-18.34-5.24-27.58-7.62l2.24-9.29c9.36 2.41 18.66 4.98 27.91 7.71zM782.42 503.26l-7.13-6.55c6.42-7 12.96-13.89 19.63-20.65l6.9 6.8a777.01 777.01 0 00-19.4 20.4m858.49-201.44c-8.94-3.33-17.93-6.53-26.99-9.55l2.9-9.1c9.17 3.06 18.27 6.29 27.31 9.67zM745.88 546.13l-7.57-6.04c5.9-7.45 11.93-14.8 18.1-22.03l7.35 6.3a791.622 791.622 0 00-17.88 21.77m947.92-222.36c-8.68-3.96-17.43-7.78-26.25-11.43l3.54-8.86c8.93 3.7 17.79 7.56 26.58 11.57zM712.51 591.55l-7.97-5.49c5.35-7.86 10.84-15.63 16.47-23.3l7.78 5.78c-5.57 7.57-11 15.25-16.28 23.01m1032.54-242.17c-8.39-4.56-16.85-8.98-25.4-13.26l4.17-8.57c8.65 4.32 17.22 8.79 25.71 13.41zM682.47 639.3l-8.33-4.92c4.78-8.24 9.7-16.39 14.77-24.45l8.16 5.22a758.84 758.84 0 00-14.6 24.15M1794.4 378.52a809.987 809.987 0 00-24.42-15l4.78-8.25c8.33 4.92 16.56 9.98 24.71 15.19zM655.92 689.15l-8.65-4.34c4.18-8.56 8.51-17.05 12.98-25.46l8.49 4.63c-4.42 8.31-8.69 16.7-12.82 25.17m1185.69-278.12a850.332 850.332 0 00-23.32-16.66l5.36-7.88c7.96 5.48 15.82 11.11 23.59 16.87zM633 740.82l-8.92-3.7a781.97 781.97 0 0111.13-26.37l8.79 4.02c-3.82 8.61-7.49 17.3-11 26.05m1253.42-294.06c-7.26-6.22-14.63-12.3-22.09-18.25l5.9-7.47c7.56 6.03 15.02 12.18 22.36 18.48zM613.83 794.08l-9.15-3.06c2.91-9.11 5.98-18.16 9.21-27.13l9.05 3.39c-3.2 8.87-6.23 17.81-9.11 26.8m1314.79-308.56c-6.8-6.71-13.73-13.29-20.76-19.74l6.43-7.02c7.12 6.53 14.12 13.2 21.01 19.98zm39.36 41.59a773.749 773.749 0 00-19.31-21.14l6.92-6.54c6.63 7.01 13.15 14.15 19.55 21.4zM598.55 848.66l-9.34-2.41c2.25-9.3 4.66-18.56 7.24-27.76l9.25 2.74a766.21 766.21 0 00-7.15 27.43m1405.76-277.34c-5.8-7.58-11.72-15.06-17.77-22.42l7.38-6.02c6.12 7.45 12.11 15.02 17.98 22.69zM587.22 904.3l-9.48-1.73c1.57-9.48 3.32-18.9 5.23-28.27l9.41 2.07a784.78 784.78 0 00-5.16 27.93m1450.23-286.29c-5.26-8-10.66-15.88-16.18-23.67l7.79-5.46c5.6 7.87 11.05 15.86 16.38 23.95zM579.93 960.7l-9.57-1.05c.89-9.58 1.95-19.12 3.18-28.62l9.53 1.39c-1.22 9.39-2.27 18.82-3.14 28.28m1487.28-293.73c-4.67-8.35-9.49-16.6-14.44-24.74l8.18-4.89c5.01 8.25 9.89 16.6 14.63 25.04zM576.74 1017.5l-9.61-.36c.2-9.61.56-19.19 1.1-28.74l9.59.7c-.53 9.44-.9 18.91-1.08 28.4m1516.71-299.63a814.82 814.82 0 00-12.66-25.67l8.52-4.28c4.42 8.56 8.69 17.23 12.81 25.99zM577.64 1074.36l-9.59.33c-.5-9.62-.82-19.21-.97-28.78l9.6.02c.15 9.45.47 18.93.96 28.43m1538.34-303.9c-3.46-8.91-7.06-17.74-10.8-26.48l8.82-3.65c3.79 8.85 7.44 17.78 10.93 26.8zM582.61 1131.08l-9.53 1.02c-1.18-9.57-2.19-19.13-3.03-28.67l9.57-.67c.82 9.42 1.82 18.87 2.99 28.32m1552.14-306.61c-2.83-9.14-5.8-18.19-8.91-27.16l9.06-3.01c3.16 9.08 6.16 18.24 9.02 27.48zM591.61 1187.38l-9.42 1.69c-1.86-9.47-3.54-18.95-5.06-28.41l9.48-1.35c1.5 9.35 3.17 18.71 5 28.07m1564.19-323.1l-9.31 2.18a810.63 810.63 0 00-3.63-13.91l9.27-2.35c1.26 4.67 2.48 9.37 3.67 14.08m236.79-25.76l-9.38 1.93c-2.07-9.33-4.28-18.66-6.63-28l9.31-2.19c2.37 9.42 4.6 18.84 6.7 28.26m-2020.85 484.5c-2.69-9.27-5.26-18.6-7.71-27.99l9.29-2.27c2.43 9.31 4.98 18.55 7.64 27.74zm2031.92-427.53l-9.48 1.41c-1.56-9.43-3.26-18.86-5.09-28.3l9.42-1.67c1.86 9.52 3.57 19.05 5.15 28.56M389.45 1378.4c-3.19-9.12-6.27-18.31-9.23-27.57l9.14-2.79c2.94 9.18 5.99 18.29 9.15 27.33zm2022.14-425.47l-9.54.88c-1.05-9.49-2.23-19-3.54-28.5l9.51-1.15c1.33 9.6 2.52 19.19 3.57 28.77M410.17 1432.78c-3.69-8.95-7.27-17.96-10.74-27.05l8.97-3.29c3.43 9.01 6.97 17.94 10.64 26.81zm2006.16-422.12l-9.59.35c-.52-9.52-1.16-19.07-1.95-28.62l9.57-.62c.8 9.65 1.45 19.28 1.97 28.89M433.85 1485.98c-4.18-8.74-8.25-17.55-12.21-26.44l8.77-3.78c3.91 8.81 7.95 17.54 12.09 26.19zm1984-417.46l-9.6-.18c.02-9.54-.1-19.09-.35-28.66l9.6-.09c.25 9.67.37 19.31.35 28.93m-1957.41 469.3c-4.66-8.51-9.22-17.09-13.66-25.74l8.53-4.27c4.4 8.58 8.91 17.08 13.53 25.5zm1955.7-411.49l-9.59-.73c.55-9.51.97-19.05 1.25-28.61l9.6.45c-.28 9.65-.7 19.28-1.26 28.89M489.85 1588.16c-5.12-8.24-10.14-16.56-15.06-24.97l8.27-4.74c4.87 8.32 9.84 16.57 14.92 24.73zm1921.33-404.09l-9.54-1.25c1.08-9.5 2.03-19.02 2.86-28.57l9.57.99c-.83 9.64-1.8 19.25-2.89 28.83M522.01 1636.81c-5.57-7.95-11.04-15.99-16.41-24.11l7.98-5.2c5.32 8.05 10.74 16.01 16.27 23.89zm1880.98-395.45l-9.46-1.78c1.61-9.41 3.1-18.85 4.45-28.32l9.51 1.52c-1.37 9.56-2.87 19.09-4.5 28.58M556.68 1683.5c-5.98-7.62-11.87-15.33-17.65-23.12l7.67-5.63c5.73 7.72 11.57 15.35 17.5 22.89zm1834.93-385.48l-9.36-2.31c2.15-9.29 4.15-18.62 6.03-27.98l9.42 2.05c-1.9 9.45-3.93 18.86-6.09 28.24M593.88 1728.26c-6.39-7.29-12.69-14.66-18.91-22.14l7.35-6.06c6.15 7.41 12.39 14.72 18.73 21.93zm1783.21-374.39l-9.22-2.82c2.65-9.14 5.18-18.33 7.58-27.56l9.29 2.57c-2.42 9.32-4.97 18.59-7.65 27.81m-1743.6 417.08a1052.3 1052.3 0 01-20.09-21.08l6.98-6.47c6.55 7.06 13.19 14.03 19.92 20.89zm1725.99-362.19l-9.06-3.32c3.15-8.98 6.19-18 9.1-27.07l9.15 3.07c-2.94 9.16-6 18.26-9.19 27.32M675.39 1811.45c-7.16-6.55-14.24-13.21-21.23-19.96l6.61-6.85c6.93 6.69 13.94 13.28 21.04 19.78zm1663.46-348.94l-8.87-3.82c3.65-8.77 7.18-17.6 10.59-26.48l8.97 3.57c-3.44 8.97-7 17.87-10.69 26.73M719.43 1849.63a1101.87 1101.87 0 01-22.29-18.8l6.22-7.21c7.28 6.32 14.65 12.52 22.08 18.63zm1595.84-334.66l-8.66-4.3c4.14-8.55 8.15-17.16 12.05-25.82l8.77 4.06c-3.93 8.75-7.98 17.43-12.16 26.06m-1549.78 370.4c-7.83-5.75-15.59-11.6-23.27-17.57l5.81-7.54a1022.8 1022.8 0 0023.06 17.4zm1523.33-319.39l-8.42-4.78a972.63 972.63 0 0013.46-25.08l8.54 4.53c-4.41 8.51-8.93 16.95-13.58 25.33m-1475.4 352.59c-8.13-5.31-16.2-10.74-24.19-16.27l5.37-7.87c7.92 5.48 15.91 10.86 23.97 16.12zm1446.16-303.19l-8.15-5.22c5.06-8.02 10-16.11 14.83-24.27l8.28 5c-4.87 8.23-9.85 16.39-14.96 24.49m-1396.5 333.73c-8.41-4.86-16.76-9.84-25.04-14.93l4.94-8.16c8.2 5.05 16.47 9.98 24.8 14.81zm1364.57-286.08l-7.86-5.65c5.49-7.72 10.87-15.52 16.14-23.39l8.01 5.44c-5.32 7.94-10.75 15.81-16.29 23.6M914.32 1976.92c-8.67-4.4-17.27-8.91-25.81-13.56l4.47-8.41c8.46 4.59 16.99 9.07 25.57 13.43zm1278.79-268.13l-7.54-6.07c5.91-7.4 11.72-14.87 17.42-22.43l7.7 5.87c-5.75 7.62-11.61 15.17-17.58 22.63M966.99 2001.9c-8.89-3.92-17.72-7.96-26.51-12.13l4-8.66c8.7 4.13 17.45 8.13 26.25 12.02zm1189.1-249.37l-7.2-6.48c6.32-7.04 12.53-14.18 18.64-21.4l7.38 6.28c-6.16 7.28-12.44 14.48-18.82 21.6m-1135.17 271.43c-9.09-3.43-18.13-6.99-27.12-10.67l3.5-8.87c8.91 3.64 17.87 7.16 26.87 10.56zm1095.78-229.88l-6.84-6.85c6.7-6.69 13.3-13.46 19.81-20.32l7.02 6.67a990.148 990.148 0 01-19.99 20.5m-1040.74 248.95c-9.26-2.93-18.48-5.98-27.66-9.16l3.01-9.07c9.09 3.16 18.22 6.18 27.4 9.08zm999.08-209.69l-6.46-7.21c7.07-6.3 14.04-12.68 20.91-19.16l6.65 7.04c-6.94 6.54-13.97 12.98-21.1 19.33m-943.09 225.7c-9.41-2.41-18.78-4.96-28.11-7.62l2.5-9.23c9.23 2.65 18.52 5.16 27.84 7.55zm899.31-188.86l-6.06-7.56c7.41-5.89 14.73-11.87 21.95-17.94l6.26 7.39c-7.3 6.13-14.68 12.17-22.15 18.11m-842.55 201.74c-9.53-1.88-19.02-3.9-28.47-6.05l1.97-9.36c9.36 2.13 18.77 4.12 28.2 6zm796.77-167.46l-5.63-7.87c7.73-5.46 15.36-11.01 22.92-16.67l5.84 7.72a988.924 988.924 0 01-23.13 16.82m-739.41 177.18c-9.61-1.36-19.2-2.84-28.75-4.46l1.44-9.47c9.47 1.61 18.96 3.08 28.48 4.42zm691.59-145.43l-5.18-8.17c8.06-5.03 16.03-10.16 23.91-15.4l5.41 8.03a991.895 991.895 0 01-24.14 15.54m-633.79 151.93c-9.67-.81-19.32-1.76-28.94-2.84l.91-9.55c9.53 1.08 19.09 2.02 28.67 2.82zm584.24-122.92l-4.73-8.45c8.33-4.56 16.58-9.23 24.76-14.02l4.96 8.32c-8.25 4.82-16.58 9.54-24.99 14.15M1361.7 2091.4c-9.66-.27-19.31-.68-28.93-1.23l.37-9.58c9.54.54 19.09.94 28.66 1.21zm475.25-100.03l-4.25-8.68c8.58-4.09 17.09-8.29 25.52-12.6l4.49 8.56c-8.5 4.35-17.1 8.6-25.76 12.72m-417.39 100.05c-9.66.26-19.3.4-28.93.39l-.16-9.6c9.54 0 19.09-.12 28.66-.39zm364.81-76.8l-3.77-8.89c8.81-3.61 17.55-7.33 26.22-11.16l4.01 8.79c-8.75 3.87-17.56 7.62-26.46 11.26m-307.09 73.6c-9.62.8-19.23 1.47-28.83 2l-.7-9.59c9.52-.52 19.04-1.19 28.57-1.98zm253.25-53.34l-3.27-9.08c9.01-3.11 17.95-6.34 26.82-9.67l3.52 8.99c-8.95 3.37-17.97 6.63-27.07 9.76m-195.86 46.95c-9.56 1.33-19.1 2.53-28.65 3.59l-1.23-9.54c9.46-1.06 18.92-2.24 28.38-3.57zm140.94-29.71l-2.77-9.24c9.18-2.61 18.3-5.33 27.34-8.16l3.02 9.16c-9.13 2.87-18.32 5.62-27.59 8.24m-84.05 20.14a1007.2 1007.2 0 01-28.38 5.18l-1.75-9.48c9.37-1.57 18.75-3.28 28.12-5.12zm37.52-8.08l-9.32 2.14-2.26-9.37 9.23-2.12c6.21-1.46 12.39-2.97 18.54-4.54l2.52 9.31c-6.21 1.58-12.45 3.1-18.71 4.58"/><path class="st1" d="M706.79 450.11c7 27.88-9.83 55.77-37.6 62.29-27.76 6.52-55.95-10.8-62.96-38.68-7-27.89 9.83-55.79 37.59-62.31 27.76-6.51 55.96 10.82 62.97 38.7m1226.95-71.93l-40.45-87.74 95.64 10.15z"/><path class="st2" d="M1991.42 1579.78H787.36c-26.3 0-48-21.33-48.46-47.63l-13.72-786.26a46.642 46.642 0 0146.8-47.63h1204.05c26.31 0 48 21.33 48.46 47.63l13.73 786.26c.45 26.3-20.5 47.63-46.8 47.63"/><path class="st0" d="M1861.85 1002.96c.16 9.13-1.41 17.87-4.49 25.93-9.83 26.14-35 44.62-64.83 44.62-.61 0-1.22-.03-1.79-.07-38.16-.89-69.33-32.12-70-70.48-.36-20.66 8.2-39.25 22.12-52.11 12.34-11.45 28.9-18.44 47.2-18.44 26.11 0 49.14 14.15 61.68 35.24 6.23 10.35 9.88 22.42 10.11 35.31m49.63 0c-.38-22.16-6.76-42.94-17.53-60.74-21.5-35.56-60.56-59.45-104.75-59.45-31.02 0-59.07 11.75-80 31.06-23.97 21.98-38.67 53.75-38.06 89.13 1.16 66.36 55.89 120.15 122.25 120.15 51 0 94.07-31.8 110.72-76.64 5.03-13.5 7.64-28.18 7.37-43.51"/><path class="st3" d="M1793.39 1123.11l-.86-49.6c-.61 0-1.22-.03-1.79-.07-38.16-.89-69.33-32.12-69.99-70.48-.37-20.66 8.19-39.25 22.11-52.11l-33.66-37.03c-23.97 21.99-38.67 53.76-38.06 89.14 1.16 66.36 55.89 120.15 122.25 120.15"/><path class="st4" d="M1911.47 1002.96c-.38-22.16-6.75-42.95-17.51-60.75l-42.23 25.44c6.24 10.36 9.89 22.43 10.11 35.31.16 9.14-1.41 17.89-4.47 25.92l46.74 17.59c5.02-13.5 7.63-28.17 7.36-43.51"/><path class="st1" d="M1893.96 942.21c-21.51-35.56-60.57-59.42-104.76-59.42-31.01 0-59.05 11.74-80.01 31.03l33.68 37.02c12.33-11.44 28.88-18.43 47.2-18.43 26.08 0 49.12 14.16 61.66 35.24z"/><path class="st0" d="M1195.28 1092.15h391.17c8.04 0 14.44-6.52 14.3-14.56-.14-8.03-6.77-14.55-14.81-14.55h-391.16c-8.04 0-14.44 6.52-14.31 14.55.15 8.04 6.78 14.56 14.81 14.56m-.86-49.75h391.16c8.04 0 14.44-6.52 14.3-14.56-.14-8.04-6.77-14.56-14.81-14.56h-391.16c-8.04 0-14.44 6.52-14.3 14.56.14 8.04 6.77 14.56 14.81 14.56m-.87-49.76h391.16c8.04 0 14.44-6.52 14.3-14.55-.14-8.04-6.77-14.56-14.81-14.56h-391.16c-8.04 0-14.44 6.52-14.3 14.56.14 8.03 6.77 14.55 14.81 14.55m-1.38-78.86h391.17c8.03 0 14.67 6.51 14.8 14.55.15 8.04-6.26 14.56-14.3 14.56h-391.16c-8.04 0-14.67-6.52-14.81-14.56a14.246 14.246 0 0114.3-14.55"/><path class="st3" d="M851.24 1346.89h272.5c8.04 0 14.44-6.51 14.3-14.55-.14-8.04-6.77-14.56-14.81-14.56h-272.5c-8.04 0-14.44 6.52-14.3 14.56.14 8.04 6.77 14.55 14.81 14.55m-15.68-64.52l.01.43c.14 7.92 6.67 14.34 14.59 14.34h272.93c7.92 0 14.23-6.42 14.09-14.34l-.01-.43c-.14-7.92-6.67-14.34-14.59-14.34H849.65c-7.92 0-14.23 6.42-14.09 14.34m286.15-64.1H848.78c-7.92 0-14.23 6.42-14.09 14.34l.01.43c.14 7.92 6.67 14.34 14.59 14.34h272.93c7.92 0 14.23-6.42 14.09-14.34l-.01-.43c-.14-7.92-6.67-14.34-14.59-14.34m-287.88-34.98l-.01-.43c-.14-7.92 6.13-14.34 14.05-14.34h273.01c7.92 0 14.42 6.42 14.55 14.33.01.15.01.3.01.44.14 7.92-6.17 14.34-14.09 14.34H848.42c-7.92 0-14.45-6.42-14.59-14.34"/><path class="st0" d="M1128.27 1140.3H839.5c-3.55 0-6.47-2.87-6.53-6.42l-4.07-232.86a6.29 6.29 0 016.31-6.42h288.78c3.54 0 6.46 2.88 6.52 6.42l4.07 232.86a6.284 6.284 0 01-6.31 6.42"/><path class="st4" d="M915.72 1110.66l144.01-75.95c7.95-4.19 17.61-3.74 25.3 1.16l136.65 87.25.44 24.94H915.34z"/><path class="st1" d="M818.45 1084.86l95.62-78.32c8.66-7.09 21.09-7.45 30.39-.89l194.84 137.59H813.63z"/><path class="st3" d="M1045.86 958.7a27.706 27.706 0 01-27.8 28.29c-15.62 0-28.51-12.67-28.78-28.29a27.7 27.7 0 0127.79-28.3c15.63 0 28.52 12.67 28.79 28.3"/><path class="st1" d="M1275.79 1143.54h-28.56c-7.51 0-13.48 6.08-13.35 13.58l3.27 187.63c.13 7.5 6.32 13.58 13.83 13.58h28.56c7.5 0 13.48-6.08 13.35-13.58l-3.28-187.63c-.13-7.5-6.32-13.58-13.82-13.58m46.84 74.11l2.22 127.1c.13 7.5 6.32 13.58 13.82 13.58h28.56c7.51 0 13.48-6.08 13.35-13.58l-2.22-127.1c-.13-7.5-6.31-13.59-13.82-13.59h-28.56c-7.5 0-13.48 6.09-13.35 13.59m175.99-9.92h49.04c1.85 0 3.37 1.5 3.41 3.35l2.51 143.9a3.28 3.28 0 01-3.29 3.35h-49.04c-1.85 0-3.38-1.5-3.41-3.35l-2.51-143.9a3.28 3.28 0 013.29-3.35m-84.32 35.26h48.67a3.6 3.6 0 013.59 3.53l1.89 108.28a3.448 3.448 0 01-3.47 3.53h-48.67a3.6 3.6 0 01-3.59-3.53l-1.89-108.28a3.46 3.46 0 013.47-3.53"/><path class="st2" d="M1754.23 1307.53l-1.68-96.16c-.13-7.71 8.35-12.33 14.87-8.1l73.11 47.48c5.85 3.79 6.05 12.26.38 16.13l-71.44 48.69c-6.36 4.33-15.1-.28-15.24-8.04"/><path class="st5" d="M2027.38 1533.97c.34 19.77-16.89 35.84-38.41 35.84H789.46c-2.37 0-4.69-.19-6.94-.57-18.28-3.01-32.41-17.68-32.72-35.27l-13.59-778.73h1277.58zm-21.48-898.25c-9.08-7.05-20.75-11.3-33.43-11.3H772.96c-28.22 0-50.81 21.08-50.36 46.98l15.06 862.57c.37 21.18 16.02 39.11 37.12 44.96 4.72 1.31 9.71 2.02 14.88 2.02h1199.5c28.22 0 50.81-21.07 50.36-46.98l-15.06-862.57c-.25-14.27-7.43-27.08-18.56-35.68"/><path class="st2" d="M1737.79 722.53h-549.71c-17.72 0-32.32-13.19-32.6-29.46-.29-16.26 13.85-29.45 31.57-29.45h549.71c17.72 0 32.31 13.19 32.6 29.45.28 16.27-13.85 29.46-31.57 29.46M774.21 709.5c-1.56 0-3.14-.55-4.36-1.65-2.42-2.19-2.49-5.75-.14-7.94l28.87-26.94c2.35-2.19 6.23-2.19 8.66 0 2.42 2.2 2.49 5.76.14 7.95l-28.87 26.93c-1.17 1.1-2.74 1.65-4.3 1.65"/><path class="st2" d="M803.55 709.5c-1.57 0-3.15-.55-4.36-1.65l-29.81-26.93c-2.42-2.19-2.48-5.75-.14-7.95 2.35-2.19 6.24-2.19 8.66 0l29.81 26.94c2.42 2.19 2.49 5.75.14 7.94-1.18 1.1-2.74 1.65-4.3 1.65m115.96-19.08c-.07-4.34 3.7-7.86 8.42-7.86 4.71 0 8.6 3.52 8.67 7.86.08 4.32-3.69 7.84-8.4 7.84-4.72 0-8.61-3.52-8.69-7.84m8.22-19.09c-11.47 0-20.64 8.56-20.46 19.09.05 2.79.76 5.44 1.98 7.84 3.38 6.62 10.72 11.24 19.15 11.24 8.41 0 15.59-4.62 18.74-11.24a17.46 17.46 0 001.71-7.84c-.19-10.53-9.66-19.09-21.12-19.09m-55.5 24.7H840.8c-3.38 0-6.17-2.51-6.22-5.61-.05-3.11 2.65-5.62 6.02-5.62h31.44c3.37 0 6.16 2.51 6.22 5.62.05 3.1-2.65 5.61-6.03 5.61"/><path class="st1" d="M2157.16 2400H913.53c-17.11 0-31.36-14.01-31.66-31.12-.3-17.12 13.46-31.12 30.58-31.12h1243.63c17.11 0 31.36 14 31.66 31.12.3 17.11-13.46 31.12-30.58 31.12"/><path class="st6" d="M1573.5 1231.74s-10.96 109.56-2.64 132.66c8.33 23.1 128.29-38.05 126.21-74.46-2.09-36.42 24.39-84.6-28.88-85.26-53.27-.66-94.69 27.06-94.69 27.06"/><path class="st7" d="M1605.6 1048.27s-50.35 8.88-56.66 68.9c-.86 8.17-.46 16.44.86 24.59 1.43 8.78 2.63 23.71-3.56 32.42-9.16 12.91-8.14 46.79 33.84 79.78 29.11 22.88 70.05 13.64 70.05 13.64s3.99 26.84.57 32.56c-3.42 5.72-27.07 12.32-27.07 12.32s9.44 61.82 78.2 30.8c68.75-31.02 55.89-49.5 55.89-49.5s-27.64 4.62-30.63-15.84c-3-20.46-4.04-42.24-4.04-42.24s60-66.65 32.56-113.51c-27.44-46.86-100.78-89.1-150.01-73.92"/><path d="M1642.51 1305.73s1.76 29.48 21.14 30.66c19.38 1.17 70.95-39.05 70.95-39.05l12.03 19.54s-73.6 69.37-97.84 59.1c-24.23-10.26-69.07-24.93-39.52-46.05 29.55-21.12 27.74-24.05 27.74-24.05z" fill="#f3a05c"/><path d="M1846.96 1351.99s-54-4.88-89.59-30.33c-13.18-9.42-23.83-21.65-28.3-37.51-16.52-58.7 1.97-94.87 1.97-94.87 10.13.88 33.91-23.31 12.89-42.67-21.01-19.36-38.05 12.76-38.05 12.76s2.94-33.01-18.89-73.48c-12.48-23.15-42.6-30.19-66.11-31.97-29.98-2.27-57.62 15.92-66.97 44.28-4.89 14.86-5.55 27.3-5.55 27.3s-2.59-6.18-3.18-15.74c-1.14-18.41 5.14-49.4 51.64-73.15 70.65-36.07 145.96-6.16 183.54 29.04 37.58 35.2 58.58 79.2 59.76 146.95 1.18 67.76 6.84 139.39 6.84 139.39" fill="#553130"/><path class="st6" d="M1759.44 1316.88c-.58 1.58-1.27 3.17-2.07 4.78-13.18-9.42-23.83-21.65-28.3-37.51-16.52-58.7 1.97-94.87 1.97-94.87 10.13.88 33.91-23.31 12.89-42.67-21.01-19.36-38.05 12.76-38.05 12.76s2.94-33.01-18.89-73.48c-12.48-23.15-42.6-30.19-66.11-31.97-29.98-2.26-57.62 15.92-66.97 44.29-4.89 14.85-5.55 27.29-5.55 27.29s-2.59-6.18-3.18-15.74c0 0 21.12-103.72 123.14-52.25 102.02 51.48 116.33 190.74 91.12 259.37"/><path d="M1646.44 1878.25l-53.32 477.43h11.24l71.36-485.74zm167.4 0l69.99 477.43h-11.24l-88.32-485.74z" fill="#000f5b" fill-rule="evenodd"/><path d="M1221.66 2179.24l-2.82 18.77s9.46 34.03 3.99 48.11c-5.48 14.08-53.73 98.12-72.6 100.76-18.87 2.64-33.47-17.3-33.47-17.3s51.5-108.98 55.65-174.09c4.14-65.12 49.25 23.75 49.25 23.75m173.84-130.7l5.83 18.21s23.52 26.55 24.92 41.71c1.39 15.15-4.12 112.53-19.71 123.29-15.59 10.77-37.41-.76-37.41-.76s-2.68-121.36-27.94-182.04c-25.25-60.69 54.31-.41 54.31-.41" fill="#f8c799"/><path class="st12" d="M1215.01 2213.77c-1.45 5.61-2.8 11.23-5.02 16.58-6.28 15.09-16.33 28.76-25.05 42.43-9.44 14.8-18.11 30.12-27.7 44.8-4.89 7.49-10.45 13.35-19.73 14.63-4.23.58-8.66.47-12.89-.25-2.62-.45-5.32-2.18-7.86-2.38-2.18-.17-4.29 1.18-6.1 2.17-6.93 3.81-13.28 8.62-20.19 12.5-6.03 3.39-12.54 5.48-18.76 8.47-1.93.93-4.68 2.1-5.32 4.4-.94 3.38 2.66 6.89 5.31 8.34 8.01 4.36 19.9 2.56 28.55 2.66 18.34.23 37.45 1.82 55.69-.44 5.98-.75 12.11-2.08 16.03-6.95 7.29-9.06 9.58-22.68 13.66-33.28 3.44-8.95 7.55-18.21 14.36-25.12 4.89-4.96 11.26-8.76 17.8-11.15 2.33-.84 3.41-1.53 4.55.87 1.88 3.96.43 10.63.57 14.9.27 8.61 1.25 51.91 1.3 55 .03 1.24-.53 4.43.11 5.52.84 1.43-.25.58 2.11 1.01 1.16.21 6.86.71 7.86 0 1.51-1.07.58-9.83.62-12.26.14-8.57.52-17.14 1.08-25.7 1.07-16.41 1.77-33.39 5.77-49.36 3.3-13.15 7.14-24.24 6.25-38.13-.48-7.34-1.78-15.09-5.48-21.61-5.34-9.39-15.69-16.5-23.69-23.41z"/><path d="M1847.27 1698.05s-.64 26.25-3.92 56.6c-3.62 33.31-10.42 71.55-23.08 85.37-21.11 23.06-327.74 38.07-404.96 41.49-11.18.5-17.56.75-17.56.75s-47.13 95.15-93.64 181.48c-27.4 50.84-54.57 98.62-71.78 122.1 0 0-56.31 0-68.99-20.24 0 0 38.09-263.29 75.47-365.08v-.01c7.84-21.37 15.65-35.6 23.08-38.81 42.8-18.48 507.07-88.58 585.38-63.65" fill="#d8212a" fill-rule="evenodd"/><path d="M1847.27 1698.05s-.64 26.25-3.92 56.6c0 0-136.31.89-183.93-5.27-47.63-6.16-257.89 33.44-255.99 48.4 1.91 14.96 11.88 83.73 11.88 83.73-11.18.5-17.56.75-17.56.75s-47.13 95.15-93.64 181.48l-65.3-263.22v-.01c7.84-21.37 15.65-35.6 23.08-38.81 42.8-18.48 507.07-88.58 585.38-63.65" fill="#ca1017" fill-rule="evenodd"/><path d="M1649.51 1698.05s-216.14 61.01-264.56 83.01c0 0 31.5 251.67 22.87 268.39 0 0-44.56 24.64-78.06 21.12 0 0-108.93-342.14-88.24-366.95 20.68-24.8 423.57-83.15 423.57-83.15z" fill="#e33031" fill-rule="evenodd"/><path class="st12" d="M1404.93 2082.7c1.2 5.71 2.51 11.39 2.91 17.21 1.13 16.42-1.72 33.24-3.39 49.47-1.81 17.56-2.7 35.26-4.7 52.79-1.01 8.93-3.35 16.7-11.02 21.98-3.5 2.4-7.49 4.28-11.56 5.5-2.53.76-5.69.39-8.04 1.34-2.02.81-3.29 2.97-4.45 4.67-4.47 6.53-7.98 13.69-12.38 20.27-3.85 5.74-8.7 10.52-12.9 15.98-1.31 1.7-3.22 3.98-2.77 6.34.67 3.48 5.43 5.05 8.42 5.18 9.05.39 18.81-6.53 26.54-10.27 16.39-7.95 34.07-15 49.27-25.15 4.98-3.32 9.83-7.25 11.15-13.4 2.44-11.42-1.57-24.74-2.66-36.13-.92-9.62-1.39-19.82 1.59-29.09 2.14-6.65 6.11-12.92 10.86-17.98 1.69-1.79 2.34-2.89 4.43-1.23 3.42 2.74 5.1 9.41 7.12 13.21 4.07 7.66 24.18 46.35 25.6 49.12.57 1.11 1.49 4.24 2.55 4.94 1.38.92.03.63 2.32-.03 1.12-.32 6.41-2.4 6.98-3.49.86-1.63-3.86-9.13-4.9-11.35-3.68-7.81-7.16-15.72-10.46-23.7-6.34-15.31-13.27-30.97-16.81-47.17-2.91-13.35-4.42-25.08-11.39-37.23-3.68-6.42-8.29-12.85-14.47-17.1-8.91-6.11-21.26-7.94-31.44-10.63z"/><path d="M1640.77 1306.51s-9.63 32.59 28.02 34.35c37.65 1.76 72.33-46.64 72.92-47.74.58-1.1.53-4.18 7.37-2.86 6.84 1.32 91.92 23.25 105.9 34.1 13.97 10.85 30.63 41.06 36.57 95.62 5.94 54.56 10 203.27 5.45 211.19-4.56 7.92-25.41 23.18-25.41 23.18s-4.18 29.62-10.68 43.7l-483.83-16.86 26.7-58.52s66.54-18.92 71.27-25.52c4.72-6.6 74.26-246.98 105.37-273.08 12.69-10.65 64.44-31.59 60.35-17.56" fill="#f8bc40"/><path class="st17" d="M1588.62 1423.8s11.42 150.03-23.97 189.63c-35.39 39.6-57.99 55.44-125.3 55.88-67.31.44-25.33-14.08-25.33-14.08s132.99-18.92 146.41-81.84c13.42-62.92 19.66-184.35 28.19-149.59"/><path class="st17" d="M1882.66 1581.98s-16.98 99.57-31.87 116.07c-14.89 16.49-267.82 3.37-267.71.73.05-1.27 8.23-9.91 4.57-43.36-.16-1.43-.32-2.87-.47-4.3-1.92-17.53-14.42-34.49-15.86-47.38l30.76-7.55c22.02-5.41 44.15-10.39 66.41-14.78 36.34-7.18 109.3-26.61 111.56-67.2 3.02-54.12-10.64-118.13 4.2-99.65 0 0 28.29 133.31 21.83 141.67-6.45 8.36-191.99 41.36-191.99 41.36s2.27 1.89 4.46 6.19h.01c3.96 7.76 7.46 27.67-2.84 54.01 0 0 146.02 4.48 198.32 1.4 0 0 32.57 1.32 68.62-77.21"/><path class="st7" d="M1615.95 1653.47s-12.95-.37-28.3 1.95c-1.39.2-2.79.43-4.22.69-17.1 3.08-73.81 1.93-79.25-3.52-4.95-4.95 31.92-35.79 47.87-44.67 1.61-.89 3-1.57 4.11-1.97 4.69-1.68 14.91-2.4 25.75-2.64 12.53-.28 25.88.08 32.47.31h.01c2.61.09 4.15.15 4.15.15l.01.01h.01c3.96 7.76 7.69 23.35-2.61 49.69"/><path d="M1903.66 1849.7c-149.15 96.79-377.46 26.09-377.46 26.09 17.68-1.22 34.51-3.19 50.53-5.85 25.17-4.17 48.37-10.02 69.72-17.26 255.44-86.62 249.36-372.62 249.36-372.62 3.72-1.49 8.01-.57 12.65 2.42 22.37 14.39 52.68 76.87 64.41 148.22 13.24 80.49 2.84 172.24-69.21 219" fill="#a3c5f7" fill-rule="evenodd"/><path d="M1903.66 1849.7c-149.15 96.79-377.46 26.09-377.46 26.09 17.68-1.22 34.51-3.19 50.53-5.85 0 0 311.06 1.2 331.73-387.46 22.37 14.39 52.68 76.87 64.41 148.22 13.24 80.49 2.84 172.24-69.21 219" fill="#4e95e5" fill-rule="evenodd"/><path class="st20" d="M1689.9 1678.82h-249.92l-.35-20.18h249.91z"/><path d="M1393.63 1421.68h-332.4l11.71-14.21h332.4z" fill="#eff3f6"/><path class="st20" d="M1453.68 1678.82h-326.16l266.11-257.14 11.71-14.21z"/><path class="st22" d="M1439.98 1678.82h-332.4l-46.35-257.14h332.4z"/><path class="st3" d="M1280.13 1544.63c3.86 18.66-6.23 36.3-22.53 39.4-16.31 3.1-32.66-9.51-36.52-28.17-3.86-18.65 6.23-36.29 22.53-39.4 16.31-3.1 32.66 9.51 36.52 28.17"/><path d="M1345.4 1705.01l49.72 663.87h-16.92l-62.29-632.61h-287.14l-40.2 632.61h-16.92l26.55-663.87zm689.57 0l49.72 663.87h-16.92l-62.29-632.61h-287.13l-40.21 632.61h-16.92l26.55-663.87z" fill="#16247f" fill-rule="evenodd"/><path d="M1897.29 1678.82H986.37c-8.04 0-14.49 6.57-14.35 14.6.14 8.04 6.82 14.61 14.86 14.61h910.92c8.03 0 14.48-6.57 14.34-14.61-.14-8.03-6.82-14.6-14.85-14.6" fill="#99bff5" fill-rule="evenodd"/><path d="M2053.61 1678.82h-385.39c-8.03 0-14.49 6.57-14.35 14.6.14 8.04 6.83 14.61 14.86 14.61h385.39c8.03 0 14.49-6.57 14.35-14.61-.14-8.03-6.83-14.6-14.86-14.6" fill="#397cf2" fill-rule="evenodd"/><path class="st3" d="M600.32 1270.93c2.8 160.76-121.28 292-279.99 299.78-4.93.24-9.9.36-14.91.36-165.76 0-302.48-134.38-305.38-300.14-2.24-129.21 77.48-239.36 191.27-281.65 32.18-11.96 67.08-18.49 103.63-18.49 165.77 0 302.48 134.38 305.38 300.14"/><path class="st22" d="M445.62 1385.9h-44.51l-3.25-186.01h44.51zm-151.21 0H249.9l-1.73-99.06h44.51zm-75.61 0h-44.51l-1.14-65.45h44.51zm151.21 0H325.5l-2.41-138.2h44.51z"/><path class="st26" d="M176.01 1278.05l-7.42-13.02 224.63-125.23 7.42 13.02z"/><path class="st26" d="M428.73 1126.91l-45.95 2.46 25.8 38.6z"/><path class="st5" d="M446.25 1422.22H143.66l-4.82-275.91h5.95l4.71 269.96h296.65z"/><path class="st3" d="M720.35 457.22c.67 38.87-8.95 75.36-26.36 106.88-36.07 65.35-105.58 109.4-186.16 109.4-119.45 0-217.98-96.83-220.06-216.28-.99-56.81 20.01-108.51 55.16-147.11 38.75-42.55 94.71-69.18 157.35-69.18 119.46 0 217.98 96.83 220.07 216.29"/><path class="st26" d="M523.53 530.44c-13.52 27.24-46.77 37.98-74.25 23.99-27.49-14-38.81-47.43-25.29-74.68 13.52-27.24 46.77-37.98 74.26-23.98 27.48 13.99 38.8 47.43 25.28 74.67m-6.92-80.3a71.091 71.091 0 00-18.75-10.62c-.01 0-.01-.01-.01-.02l2.22-20.03-33.17-4.24-2.22 20.02c0 .01-.01.02-.02.02-7.21.81-14.12 2.71-20.54 5.59-.01.01-.02 0-.03-.01l-12.63-15.96-26.04 20.4s12.5 15.81 12.64 15.99c0 0-.01 0-.02.01a68.028 68.028 0 00-10.29 18.56c-.01.01-.02.01-.03.01l-20.07-2.57-3.67 33.1 20.07 2.57c.01 0 .02.01.02.02.94 7.22 2.97 14.18 5.96 20.64v.03l-15.76 12.34 20.86 26.4 15.76-12.35h.02c5.6 4.43 11.92 8.03 18.75 10.63.01 0 .01.02.01.02l-2.22 20.04 33.17 4.24 2.22-20.03c0-.01.01-.02.02-.02 7.21-.81 14.14-2.71 20.54-5.6.02 0 .03 0 .03.01l12.62 15.97 26.05-20.4s-12.49-15.81-12.63-15.98c-.01-.01 0-.01.01-.02a68.174 68.174 0 0010.3-18.56c0-.01.01-.01.02-.01l20.08 2.57 3.66-33.1-20.07-2.57c-.01 0-.02-.01-.02-.02a70.965 70.965 0 00-5.96-20.64v-.02l15.76-12.34-20.86-26.41-15.76 12.35s-.01 0-.02-.01m-63.79 12.91a34.239 34.239 0 00-15.17 11.88c-29.04 40.64 10.55 90.74 57.06 72.21a34.157 34.157 0 0015.16-11.88c29.04-40.64-10.54-90.74-57.05-72.21"/><path class="st26" d="M567.46 407.85c-15.3 13.52-38.88 11.88-52.66-3.65-13.79-15.54-12.57-39.08 2.73-52.6 15.3-13.51 38.88-11.88 52.66 3.66 13.79 15.53 12.56 39.08-2.73 52.59m15.68-51.5a48.117 48.117 0 00-9.13-11.26c-.01-.01-.01-.01-.01-.02l6.39-11.86-19.79-10.9-6.39 11.86s-.01.01-.01 0a47.572 47.572 0 00-14.31-1.66c0 .01-.01 0-.02-.01l-3.95-13.04-21.46 6.15s3.91 12.91 3.95 13.06h-.01a45.642 45.642 0 00-11.1 8.94c-.01 0-.02.01-.02 0l-11.98-6.6-10.56 19.6 11.98 6.6c0 .01.01.01 0 .02a46.744 46.744 0 00-1.4 14.28c0 .01 0 .01-.01.02l-12.99 3.72 6.53 21.56 12.98-3.72c.01 0 .02.01.02.01 2.42 4.14 5.49 7.95 9.13 11.27.01 0 .01.01.01.01l-6.4 11.87 19.79 10.9 6.4-11.86c0-.01.01-.01.01-.01 4.73 1.3 9.57 1.84 14.31 1.65.01.01.02.01.02.01l3.95 13.05 21.46-6.15s-3.91-12.91-3.95-13.05c0-.01 0-.01.01-.01 4.09-2.35 7.85-5.35 11.1-8.94h.02l11.98 6.6 10.56-19.6-11.98-6.6s-.01-.01 0-.02c1.21-4.71 1.67-9.53 1.4-14.28 0-.01 0-.01.01-.01l12.98-3.72-6.52-21.57-12.99 3.72-.01-.01m-43.32-7.91a23.22 23.22 0 00-12.5 3.58c-28.39 17.95-16.01 58.88 17.85 58.99 4.43.02 8.79-1.23 12.5-3.58 28.39-17.95 16.01-58.88-17.85-58.99"/><path class="st1" d="M612.09 1920.12c.35 19.85-5.13 38.4-14.92 54.17-18.48 29.79-52.35 49.67-91.4 49.67-59.73 0-108.96-46.49-109.96-103.84-.51-29.39 11.74-55.93 31.86-74.82 19.12-17.96 45.36-29.01 74.47-29.01 59.73 0 108.95 46.5 109.95 103.83"/><path class="st3" d="M612.17 1924.44c.36 20.67-5.11 39.99-14.88 56.42-92.27-18.25-142.39-76.23-169.6-134.35 19.11-18.72 45.34-30.22 74.45-30.22 59.73 0 108.99 48.43 110.03 108.15"/><path class="st28" d="M498.52 1943.92l-1.71 2.13-2.51 3.12-13.68 17.05-2.34 2.91-10.02 12.5-1.38 1.71-1.28 1.6c-.78.97-1.89 1.57-3.14 1.69-.31.03-.63.03-.94 0-.91-.09-1.78-.44-2.51-1.04a4.855 4.855 0 01-1.68-2.72c-.14-.68-.13-1.36.02-2.01.06-.3.16-.59.29-.88.01-.01.01-.02.02-.04.15-.33.34-.65.58-.94l13.78-17.17 2.89-3.6 13.75-17.13 2.47-3.08c.91.9 1.85 1.76 2.85 2.58.59.49 1.19.97 1.81 1.43.89.66 1.79 1.29 2.73 1.89"/><path d="M505.33 1942.98c0 .09-.84 1.67-1.93 3.65-1.7-.81-3.33-1.72-4.88-2.71l-1.71 2.13-2.51 3.12c-1.94-2.66-4.12-5.72-5.64-8.07l2.47-3.08c-.48-.47-.95-.96-1.41-1.46 6.32-.29 15.61 6.21 15.61 6.42" fill="#ba1717"/><path class="st28" d="M553.88 1920.68c-1.97 4.62-4.87 8.66-8.5 11.92-3 2.69-6.49 4.84-10.37 6.34a34.309 34.309 0 01-21.23 1.19c-1.78-.47-3.54-1.09-5.26-1.84-8.52-3.75-15.12-10.57-18.6-19.19-3.44-8.52-3.41-17.8.07-26.17.03-.1.08-.21.12-.31 3.6-8.45 10.3-14.94 18.87-18.27a34.47 34.47 0 0113.45-2.32c4.43.14 8.84 1.13 13.04 2.98 10.81 4.76 18.1 14.34 20.38 25.07 1.43 6.71.89 13.88-1.97 20.6m-14.6-54.62a44.958 44.958 0 00-15.62-3.77c-6.2-.34-12.44.63-18.36 2.93-10.45 4.06-18.73 11.78-23.5 21.85-.24.52-.48 1.05-.71 1.58-3.66 8.62-4.35 17.81-2.52 26.43a45.608 45.608 0 0011.15 21.48c.45.5.93.99 1.41 1.46.91.9 1.85 1.76 2.85 2.58.59.49 1.19.97 1.81 1.43a45.162 45.162 0 007.61 4.6c.43.21.87.41 1.31.6 2.56 1.13 5.18 2.01 7.84 2.64a43.888 43.888 0 0026.14-1.8c5.66-2.2 10.69-5.47 14.87-9.61 3.93-3.9 7.1-8.56 9.34-13.82 9.53-22.37-1.07-48.66-23.62-58.58"/><path class="st1" d="M2876.6 1743.4c2.54 145.26-113.17 263.02-258.42 263.02-43.39 0-84.5-10.5-120.9-29.12-85.47-43.68-144.92-132.03-146.7-233.9-2.54-145.25 113.16-263 258.42-263 84.05 0 159.58 39.42 208.8 100.78 35.85 44.69 57.74 101.02 58.8 162.22"/><path class="st2" d="M2549.94 1687.52c-5.83 0-10.63-4.72-10.73-10.55a10.314 10.314 0 0110.36-10.54c5.81 0 10.62 4.72 10.72 10.54.1 5.83-4.54 10.55-10.35 10.55m-35.16 0c-5.82 0-10.63-4.72-10.73-10.55-.1-5.82 4.54-10.54 10.37-10.54 5.81 0 10.62 4.72 10.72 10.54a10.33 10.33 0 01-10.36 10.55m-35.15 0c-5.82 0-10.63-4.72-10.73-10.55-.1-5.82 4.54-10.54 10.36-10.54 5.82 0 10.63 4.72 10.73 10.54a10.33 10.33 0 01-10.36 10.55m100.9-64.78h-133.75c-11.65 0-21.02 14.95-20.82 26.6l.96 55.27c.21 11.65 9.91 15.58 21.56 15.58h1.47l18.76 30.99 17.04-30.99h96.48c11.64 0 18.93-3.93 18.73-15.58l-.97-55.27c-.2-11.65-7.82-26.6-19.46-26.6"/><path class="st3" d="M2656.76 1836.5c5.83 0 10.47-4.72 10.36-10.55-.1-5.82-4.9-10.54-10.73-10.54-5.81 0-10.45 4.72-10.35 10.54.1 5.83 4.91 10.55 10.72 10.55m35.15 0c5.83 0 10.47-4.72 10.37-10.55-.1-5.82-4.91-10.54-10.73-10.54s-10.46 4.72-10.36 10.54c.1 5.83 4.91 10.55 10.72 10.55m35.16 0c5.82 0 10.46-4.72 10.36-10.55-.11-5.82-4.91-10.54-10.73-10.54s-10.46 4.72-10.36 10.54c.1 5.83 4.9 10.55 10.73 10.55m-103.16-64.78h133.75c11.64 0 21.54 14.95 21.75 26.6l.96 55.27c.2 11.65-9.36 15.59-21.01 15.59h-1.47l-17.68 30.99-18.12-30.99h-96.48c-11.65 0-19.07-3.94-19.27-15.59l-.97-55.27c-.2-11.65 6.89-26.6 18.54-26.6m313.26-1007.84c1.7 97.39-39.81 184.74-106.86 244.06-55.97 49.53-129.75 79.53-211.07 79.53-178.71 0-326.11-144.88-329.22-323.59-1.49-85.04 29.96-162.42 82.61-220.17 57.97-63.6 141.65-103.4 235.31-103.4 178.71 0 326.11 144.87 329.23 323.57"/><path class="st5" d="M2818.94 808.78c-.02.2 2.04 5.23 4.01 9.97 2.25 5.43 2.98 12.06 2.05 18.73l-6.55 46.51c-1.06 7.66 2.6 14.2 7.96 14.23 4.66.02 9.04-4.93 10.21-11.55l14.57-77.74z"/><path class="st2" d="M2574.73 872.7s78.85-63.29 213.3-36.99l12.3-68.79c-134.45-26.3-186.09-115.13-186.09-115.13z"/><path class="st5" d="M2614.24 651.79c-24.93-4.87-53.98 40.63-64.89 101.63-10.91 61 .45 114.4 25.38 119.28 24.92 4.88 53.97-40.62 64.88-101.62 10.92-61-.45-114.41-25.37-119.29"/><path class="st20" d="M2613.15 657.85c-21.18-4.15-46.63 38.79-56.84 95.9-10.22 57.11-1.33 106.76 19.86 110.9 21.18 4.15 46.63-38.79 56.84-95.9 10.22-57.1 1.33-106.76-19.86-110.9"/><path d="M2835.46 773.39l-46.71-9.13.31 2.49c2.67 21.73-1.05 43.57-10.74 62.97l-1.99 3.99 46.71 9.14c14.97 2.92 29.19-6.35 31.76-20.72l3.11-17.42c2.57-14.37-7.48-28.39-22.45-31.32" fill="#003e61"/><path class="st1" d="M2776.32 833.7l15.54 3.05 11.86 2.32 19.34 3.78c14.95 2.92 29.17-6.34 31.74-20.71l3.11-17.44c2.58-14.35-7.49-28.38-22.44-31.31l-21.33-4.18-10.71-2.08-14.68-2.86.32 2.48c2.66 21.72-1.05 43.57-10.75 62.98z"/><path class="st5" d="M2791.86 836.75l11.86 2.32c8.75-22.11 12.31-45.94 10.42-69.85l-10.71-2.09c1.51 23.9-2.45 47.67-11.57 69.62"/><path d="M2584.59 759.28c-1.52 8.48 2.74 17.22 10.76 22.1l30.25 18.39c2.94-9.67 5.46-20.08 7.41-31.02 1.96-10.93 3.21-21.59 3.81-31.71l-34.56 5.71c-9.17 1.51-16.16 8.05-17.67 16.53" fill="#d30f00"/><path class="st2" d="M2597.55 761.82c-1.37 7.67-5.39 13.33-8.97 12.63-3.58-.7-5.37-7.49-3.99-15.17 1.37-7.68 5.39-13.33 8.97-12.63 3.58.7 5.37 7.49 3.99 15.17"/><path d="M2432.91 615.77l114.98 74.2m-17.4 55.24l-146.75-29.16m143.17 89.22l-140.25 13.91m144.88 32.11l-107.24 40.08" stroke="#20288a" fill="none" stroke-width="8"/></svg>