<svg xmlns="http://www.w3.org/2000/svg" width="3192.73" height="2400"><style>.st0{fill:#f3f6fc}.st2{fill:#fff}.st15{fill:#db3737}.st6{fill:#2946fb}.st12{fill:#397cf2}.st5{fill:#c7defe}.st13{fill:#1f2a83}.st9{fill:#8fc0fa}.st18{fill:#fefefe}</style><path class="st0" d="M2333.4 2243.93s563.74-312.34 621.89-943.2C3013.44 669.86 2508.43-22.76 1873.86.57c-634.57 23.34-863.53 533.08-1307.05 654.37-443.53 121.29-781.68 611.32-403.04 1109.09 378.66 497.76 1458.94 855.14 2169.63 479.9"/><path d="M162.81 1765.9s177.61-213.62 201.54-557.09c23.92-343.47 274.08-907.8 1349.19-990.97 922.24-71.34 1520.01 418.02 1284.91 1125.76-203.17 611.6-1025.46 244.97-1025.46 244.97" stroke="#8fc0fa" fill="none" stroke-width="6"/><path class="st0" d="M2323.81-1367.69H891.23v784.05h1432.58z"/><path class="st2" d="M1637.66 1940.92c0 19.32-15.66 34.98-34.98 34.98-19.32 0-34.99-15.66-34.99-34.98 0-19.32 15.67-34.98 34.99-34.98s34.98 15.66 34.98 34.98m595.32-203.42h-699c-1.62 0-2.93-1.31-2.93-2.92v-627.95c0-1.62 1.31-2.93 2.93-2.93h699c1.62 0 2.93 1.31 2.93 2.93v627.95c0 1.61-1.31 2.92-2.93 2.92m-777.36 0h-466.4c-1.62 0-2.93-1.31-2.93-2.92v-335.94c0-1.62 1.31-2.93 2.93-2.93h466.4c1.62 0 2.93 1.31 2.93 2.93v335.94c0 1.61-1.31 2.92-2.93 2.92"/><path d="M1403.45 1637.55h-362.44c-.55 0-.99-.44-.99-.99v-18.47c0-.55.44-.99.99-.99h362.44c.54 0 .99.44.99.99v18.47c0 .55-.45.99-.99.99m-148.32 48.02h-214.12c-.55 0-.99-.44-.99-.99v-18.47c0-.54.44-.99.99-.99h214.12a1 1 0 011 .99v18.47c0 .55-.45.99-1 .99m-97.35-185.49c0 35.85-29.07 64.92-64.92 64.92-35.86 0-64.92-29.07-64.92-64.92s29.06-64.92 64.92-64.92c35.85 0 64.92 29.07 64.92 64.92" fill="#7ebaf4"/><path d="M2134.44 1676.98h-226.28a4.31 4.31 0 01-4.31-4.31V1446.4a4.31 4.31 0 014.31-4.31h226.28c2.38 0 4.3 1.93 4.3 4.31v226.27c0 2.38-1.92 4.31-4.3 4.31" fill="#82b2fc"/><path class="st5" d="M3192.74 1313.4c0 60.88-26.9 115.49-69.46 152.57-35.54 30.96-81.98 49.71-132.82 49.71-111.72 0-202.28-90.56-202.28-202.28 0-53.16 20.51-101.54 54.05-137.64 36.93-39.76 89.68-64.64 148.23-64.64 111.71 0 202.28 90.57 202.28 202.28"/><path class="st6" d="M3118.34 1341.46c-.02.13 1.22 3.28 2.4 6.24 1.35 3.4 1.73 7.54 1.08 11.71l-4.61 29.08c-.75 4.78 1.47 8.87 4.82 8.89 2.92.01 5.71-3.08 6.51-7.22l9.96-48.6z"/><path class="st2" d="M2964.98 1381.42s49.98-39.56 133.74-23.12l8.44-43c-83.76-16.45-115.07-71.97-115.07-71.97z"/><path class="st6" d="M2992.09 1243.33c-15.53-3.05-34.19 25.39-41.68 63.53-7.48 38.13-.96 71.52 14.57 74.56 15.53 3.05 34.18-25.39 41.67-63.52 7.49-38.14.97-71.52-14.56-74.57"/><path d="M2991.34 1247.11c-13.19-2.59-29.57 24.25-36.58 59.95-7.01 35.7-1.99 66.74 11.2 69.34 13.2 2.59 29.58-24.25 36.59-59.95 7.01-35.71 1.99-66.75-11.21-69.34" fill="#1a2982"/><path d="M3129.05 1319.35l-29.1-5.72.17 1.56a69.723 69.723 0 01-7.4 39.37l-1.29 2.49 29.1 5.71c9.33 1.83 18.32-3.96 20.08-12.94l2.14-10.9c1.76-8.98-4.37-17.74-13.7-19.57" fill="#003e61"/><path class="st9" d="M3091.43 1357.04l9.68 1.91 7.38 1.45 12.05 2.37c9.31 1.82 18.31-3.97 20.07-12.95l2.13-10.9c1.78-8.98-4.37-17.75-13.68-19.57l-13.29-2.62-6.67-1.3-9.15-1.79.17 1.55a69.74 69.74 0 01-7.4 39.37z"/><path class="st6" d="M3101.11 1358.95l7.38 1.45a98.383 98.383 0 007.28-43.67l-6.67-1.3c.68 14.94-2.06 29.8-7.99 43.52"/><path d="M2972.38 1310.52c-1.04 5.3 1.52 10.77 6.49 13.82l18.71 11.49a171.68 171.68 0 004.97-19.38c1.34-6.84 2.24-13.5 2.72-19.83l-21.66 3.57c-5.75.95-10.19 5.03-11.23 10.33" fill="#d30f00"/><path class="st2" d="M2980.46 1312.11c-.95 4.8-3.52 8.33-5.75 7.89-2.23-.43-3.27-4.68-2.33-9.48.94-4.8 3.51-8.33 5.74-7.89 2.23.43 3.28 4.68 2.34 9.48"/><path d="M2879.13 1220.81l71.06 46.38m-11.47 34.54l-91.43-18.23m88.53 55.77l-87.83 8.69" stroke="#20288a" fill="none" stroke-width="8"/><path class="st9" d="M3052.77 599.57c-34.75 125.62-164.76 199.3-290.38 164.56-37.52-10.38-70.41-29.25-97.16-53.98-62.81-58.04-91.76-148.3-67.39-236.4 34.74-125.62 164.74-199.3 290.37-164.55 72.69 20.1 127.99 72.1 154.95 136.68 19.64 47.04 24.25 100.76 9.61 153.69"/><path class="st2" d="M2784.46 473.33c-5.04-1.39-7.99-6.6-6.6-11.64 1.39-5.04 6.6-7.99 11.64-6.6 5.03 1.39 7.99 6.61 6.6 11.64-1.39 5.04-6.61 8-11.64 6.6m-30.4-8.4a9.473 9.473 0 01-6.6-11.65c1.39-5.03 6.6-7.99 11.64-6.59a9.452 9.452 0 016.6 11.63c-1.4 5.04-6.61 8-11.64 6.61m-30.4-8.41c-5.04-1.39-7.99-6.61-6.6-11.65 1.39-5.03 6.61-7.99 11.64-6.59 5.04 1.39 7.99 6.6 6.6 11.64-1.4 5.04-6.61 7.99-11.64 6.6m103.73-31.62l-115.67-32c-10.07-2.78-21.99 7.85-24.77 17.92l-13.22 47.8c-2.79 10.07 4.6 15.78 14.68 18.57l1.27.35 8.34 31.16 22.62-22.6 83.44 23.08c10.07 2.79 17.37 1.14 20.16-8.93l13.22-47.81c2.78-10.07 0-24.76-10.07-27.54"/><path class="st5" d="M2838.96 627.11c5.05 1.4 10.25-1.56 11.65-6.6 1.39-5.03-1.56-10.25-6.6-11.64-5.03-1.39-10.25 1.56-11.64 6.6-1.39 5.04 1.56 10.25 6.59 11.64m30.41 8.41c5.03 1.39 10.25-1.56 11.64-6.6 1.39-5.04-1.56-10.25-6.6-11.64-5.03-1.39-10.24 1.56-11.64 6.6-1.39 5.03 1.56 10.25 6.6 11.64m30.4 8.41c5.03 1.39 10.25-1.56 11.64-6.6 1.39-5.04-1.56-10.25-6.6-11.64-5.03-1.4-10.24 1.56-11.64 6.59a9.473 9.473 0 006.6 11.65m-72.75-80.43l115.68 31.99c10.07 2.78 14.83 18.02 12.04 28.09l-13.22 47.81c-2.78 10.07-12.06 11.17-22.13 8.38l-1.27-.35-23.17 22.45-7.8-31.01-83.44-23.08c-10.07-2.78-15.48-7.95-12.7-18.02l13.22-47.8c2.79-10.07 12.72-21.25 22.79-18.46M1004.89 365.67c56.63 123.4 5.85 268.67-113.33 330.6-3.71 1.92-7.48 3.77-11.33 5.53-127.24 58.39-277.73 2.58-336.12-124.67-45.52-99.18-21.64-212.5 51.37-285.3 20.65-20.6 45.23-37.95 73.29-50.82 127.24-58.4 277.73-2.58 336.12 124.66"/><path class="st12" d="M925.1 509.13l-34.16 15.68-65.53-142.79 34.17-15.67zM809.03 562.4l-34.17 15.68-34.89-76.04 34.16-15.68zm-58.04 26.64l-34.16 15.67-23.06-50.24 34.16-15.68zm116.08-53.27l-34.17 15.68-48.69-106.09 34.17-15.68z"/><path class="st13" d="M681.59 520.66l-10.11-7.47 130-176.03 10.11 7.47z"/><path class="st13" d="M824.37 314.68l-34.44 18.09 32.89 20.78z"/><path class="st6" d="M937.9 537.01l-232.28 106.6-97.2-211.8 4.57-2.09 95.1 207.22 227.71-104.5z"/><path class="st9" d="M1842.28 453.01c0 28.79-8.41 55.71-23.02 78.59-27.57 43.22-77.21 72.06-133.88 72.06-86.66 0-156.91-67.45-156.91-150.65 0-42.65 18.45-81.16 48.12-108.56 28.2-26.08 66.56-42.1 108.79-42.1 86.66 0 156.9 67.46 156.9 150.66"/><path class="st5" d="M1842.28 459.27c0 29.99-8.41 58.02-23.02 81.85-133.41-26.48-204.67-110.59-242.67-194.92 28.2-27.16 66.56-43.85 108.79-43.85 86.66 0 156.9 70.26 156.9 156.92"/><path class="st15" d="M1676.89 487.53l-2.53 3.09-3.72 4.53-20.28 24.74-3.47 4.22-14.86 18.13-2.05 2.49-1.9 2.32a6.726 6.726 0 01-4.59 2.45c-.45.05-.91.05-1.36 0a6.59 6.59 0 01-3.62-1.51 6.755 6.755 0 01-2.36-3.95c-.2-.98-.16-1.97.07-2.92a6.501 6.501 0 01.47-1.32c.23-.49.52-.95.87-1.38l20.43-24.9 4.28-5.22 20.38-24.86 3.67-4.47c1.29 1.3 2.65 2.55 4.06 3.74.85.71 1.72 1.41 2.6 2.08 1.27.96 2.57 1.87 3.91 2.74"/><path d="M1686.8 486.17c0 .13-1.27 2.41-2.9 5.29a61.928 61.928 0 01-7.01-3.93l-2.53 3.09-3.72 4.53c-2.76-3.86-5.84-8.3-7.99-11.71l3.67-4.47c-.69-.69-1.36-1.39-2.02-2.11 9.19-.43 22.5 9.01 22.5 9.31" fill="#ba1717"/><path class="st15" d="M1757.81 453.81c-2.98 6.71-7.29 12.57-12.64 17.3-4.42 3.9-9.54 7.01-15.2 9.2-9.99 3.85-20.7 4.41-30.85 1.72-2.56-.68-5.1-1.57-7.57-2.67-12.27-5.44-21.68-15.33-26.51-27.84-4.77-12.37-4.5-25.83.76-37.97.06-.15.12-.3.19-.45 5.44-12.26 15.32-21.68 27.84-26.5 6.34-2.44 12.98-3.57 19.58-3.37 6.42.2 12.79 1.63 18.85 4.31 15.56 6.91 25.9 20.81 28.93 36.38 1.9 9.74.93 20.14-3.38 29.89m-19.8-79.25c-7.25-3.21-14.88-5.04-22.57-5.46-8.99-.51-18.07.91-26.72 4.25-15.26 5.89-27.48 17.09-34.64 31.7-.37.75-.73 1.52-1.07 2.29-5.54 12.5-6.77 25.83-4.34 38.34a64.825 64.825 0 0015.63 31.18c.66.72 1.33 1.43 2.02 2.11 1.29 1.3 2.65 2.55 4.06 3.74.85.71 1.72 1.41 2.61 2.08 1.26.96 2.56 1.87 3.9 2.74 2.22 1.44 4.56 2.76 7.01 3.93.62.31 1.25.6 1.89.88 3.69 1.63 7.47 2.91 11.31 3.82 12.54 2.99 25.68 2.14 37.97-2.6 8.28-3.2 15.66-7.94 21.82-13.96 5.8-5.65 10.51-12.42 13.9-20.04 14.39-32.47-.31-70.6-32.78-85"/><path d="M2564.59 1760.01c-.01 0-.01.01-.02.01 4.54 8.32 9.1 16.64 13.61 24.97 1.33 2.44 3.04 3.64 5.76 2.17 5.46-2.95 10.92-5.9 16.33-8.92 3.16-1.77 3.65-3.49 1.91-6.69-9.01-16.55-18.03-33.09-27.09-49.62-1.81-3.31-3.11-3.64-6.56-1.79-5.17 2.78-10.32 5.58-15.45 8.42-3.56 1.97-3.91 3.16-1.94 6.78 4.46 8.24 8.96 16.45 13.45 24.67m75.4-9.51c8.62-4.71 17.25-9.37 25.84-14.12 6.24-3.45 6.67-10.75.8-14.76-1.57-1.08-1.78-1.7-.85-3.39 2.65-4.82.52-10.16-4.67-12.03-1.55-.55-2.3-.82-1.27-2.72 2.83-5.18.86-10.59-4.56-13.13-1.6-.74-2.41-1.48-1.94-3.57 1.07-4.73-.54-8.73-4.54-11.47-3.8-2.61-7.78-2.42-11.79-.19-8.39 4.65-16.86 9.16-25.23 13.84-2.09 1.17-2.56.82-2.65-1.52-.23-5.74-.82-11.46-2.03-17.1-1.77-8.17-5.94-14.82-12.8-19.6-3.08-2.15-6.42-2.34-9.88-.42-3.01 1.66-4.37 4.03-4.42 7.38-.04 2.08.9 3.79 1.98 5.29 3.38 4.73 3.46 9.72 2.19 15.16-1.72 7.38-3.39 14.76-4.41 22.32-1.22 9.07 1.05 17.23 4.91 24.93 6.11 12.2 12.92 24.05 19.48 36.02 2.63 4.81 5.5 5.63 10.29 3.03 8.53-4.63 17.04-9.3 25.55-13.95m-89.13-139.59c55.64-30.28 125.59-10.6 156.87 46.15 31 56.25 10.36 127.18-46.21 157.93-56.14 30.52-126.1 9.71-156.79-46.21-31.16-56.76-9.81-127.67 46.13-157.87" fill="#5e9dfd"/><path class="st18" d="M2639.99 1750.5c-8.51 4.65-17.02 9.32-25.55 13.95-4.79 2.6-7.66 1.78-10.29-3.03-6.56-11.98-13.37-23.82-19.48-36.02-3.86-7.7-6.13-15.86-4.91-24.93 1.02-7.56 2.69-14.94 4.41-22.32 1.27-5.44 1.19-10.43-2.19-15.16-1.08-1.5-2.02-3.22-1.99-5.29.06-3.35 1.42-5.72 4.43-7.38 3.46-1.92 6.8-1.73 9.88.42 6.86 4.78 11.03 11.43 12.8 19.6 1.21 5.64 1.8 11.36 2.03 17.1.09 2.34.56 2.69 2.65 1.52 8.37-4.69 16.84-9.19 25.23-13.84 4.01-2.23 7.99-2.42 11.79.19 4 2.74 5.61 6.74 4.54 11.47-.47 2.09.34 2.83 1.94 3.57 5.42 2.54 7.39 7.95 4.56 13.13-1.03 1.9-.28 2.17 1.27 2.72 5.19 1.87 7.32 7.21 4.67 12.03-.93 1.69-.72 2.31.85 3.39 5.87 4.01 5.44 11.31-.8 14.76-8.59 4.75-17.22 9.41-25.84 14.12m-75.4 9.51c-4.49-8.22-8.99-16.43-13.45-24.67-1.97-3.62-1.62-4.81 1.94-6.78 5.13-2.84 10.28-5.64 15.45-8.42 3.45-1.85 4.75-1.52 6.56 1.79 9.06 16.53 18.08 33.07 27.09 49.62 1.74 3.2 1.25 4.92-1.91 6.69-5.41 3.02-10.87 5.97-16.33 8.92-2.72 1.47-4.43.27-5.76-2.17-4.51-8.33-9.07-16.65-13.61-24.97.01 0 .01-.01.02-.01"/><path d="M655.69 1391.49c-2.27-2.11-4.46-3.67-6.89-4.85a19.322 19.322 0 00-8.88-1.93c-2.57.06-5.32.81-7.84 1.83-5.14 2.08-9.66 4.88-12.79 9.68-5.98 9.15-3.65 22.47 2.44 30.07 4.38 5.47 10.03 9.37 16.31 12.3 14.4 6.73 29.74 8.98 45.46 9.38 1.45.04 2.3-.48 3.02-1.63 2.61-4.15 5.15-8.34 7.33-12.73 5.6-11.28 10.11-22.91 10.97-35.63.59-8.83-.68-17.22-6.56-24.37-3.48-4.23-7.71-7.68-12.93-9.03-8.96-2.33-16.77.78-23.32 6.93-5.63 5.27-7.75 11.9-6.32 19.98m-56.45 53.78c-18.4-34.94-7.26-79.61 28.51-100.58 35.47-20.79 81.23-8.64 101.83 26.82 21.08 36.27 8.99 82.62-27.23 103.61-35.37 20.5-82.22 8.7-103.11-29.85" fill="#f8445f"/><path class="st18" d="M655.69 1391.49c-1.43-8.08.69-14.71 6.32-19.98 6.55-6.15 14.36-9.26 23.32-6.93 5.22 1.35 9.45 4.8 12.93 9.03 5.88 7.15 7.15 15.54 6.56 24.37-.86 12.72-5.37 24.35-10.97 35.63-2.18 4.39-4.72 8.58-7.33 12.73-.72 1.15-1.57 1.67-3.02 1.63-15.72-.4-31.06-2.65-45.46-9.38-6.28-2.93-11.93-6.83-16.31-12.3-6.09-7.6-8.42-20.92-2.44-30.07 3.13-4.8 7.65-7.6 12.79-9.68 2.52-1.02 5.27-1.77 7.84-1.83 2.94-.08 6.07.56 8.88 1.93 2.43 1.18 4.62 2.74 6.89 4.85"/><path class="st5" d="M105.56 1618.98c.63 6.18 26.42 86.97 26.42 86.97l-99.7 188.19z"/><path class="st12" d="M218.32 1730.39l-86.34-24.44-99.7 188.19z"/><path class="st9" d="M218.32 1730.39l-70.49 39.57-115.55 124.18z"/><path class="st5" d="M147.83 1769.96l29.2 100.66-144.75 23.52z"/></svg>