<svg id="svg4771" xmlns="http://www.w3.org/2000/svg" viewBox="0 0 511.89 564.98"><defs><style>.cls-1{opacity:.4}.cls-2{fill:#e1f1f8;fill-rule:evenodd}</style></defs><g id="layer1"><g id="g110" class="cls-1"><path id="path112" class="cls-2" d="M135.24 282.49a94.17 94.17 0 1094.18-94.16 94.16 94.16 0 00-94.16 94.16"/></g><g id="g114" class="cls-1"><path id="path116" class="cls-2" d="M0 399.23a51.71 51.71 0 1051.71-51.71A51.71 51.71 0 000 399.23"/></g><g id="g118" class="cls-1"><path id="path120" class="cls-2" d="M229.4 470.81V565c156 0 282.49-126.48 282.49-282.5S385.41 0 229.4 0A282.48 282.48 0 0029.65 82.74l66.59 66.58A187.71 187.71 0 01229.4 94.16c104 0 188.33 84.32 188.33 188.32S333.42 470.81 229.4 470.81"/></g></g></svg>