<svg xmlns="http://www.w3.org/2000/svg" width="700mm" height="200mm" viewBox="0 0 700 200"><path d="M47.71 100.343c0 18.348 14.872 33.22 33.218 33.22 18.345 0 33.219-14.872 33.219-33.22 0-18.345-14.874-33.217-33.22-33.217-18.345 0-33.216 14.872-33.216 33.217" fill="#1d1d1b" fill-rule="evenodd"/><path d="M0 141.528c0 10.074 8.167 18.242 18.24 18.242 10.076 0 18.243-8.168 18.243-18.242 0-10.074-8.167-18.243-18.242-18.243C8.167 123.285 0 131.454 0 141.528m80.928 25.252V200c55.037 0 99.656-44.618 99.656-99.657 0-55.037-44.619-99.654-99.656-99.654a99.649 99.649 0 00-70.467 29.189l23.49 23.49c12.022-12.025 28.63-19.462 46.977-19.462 36.693 0 66.437 29.747 66.437 66.437 0 36.693-29.744 66.438-66.437 66.438" fill="#009ed4" fill-rule="evenodd"/><path d="M274.88 120.322h20.675v-13.867h-19.414c-2.943 0-5.442.444-7.501 1.325-2.061.88-3.089 2.752-3.089 5.61 0 1.932.442 3.423 1.324 4.476.883 1.049 1.932 1.724 3.153 2.014 1.216.296 2.833.442 4.852.442m5.926-39.455h-29.373V67.122h34.669c4.286 0 8.213.423 11.787 1.262 3.57.842 7.059 3.047 10.46 6.617 3.407 3.575 5.108 9.225 5.108 16.958v41.6h-45.763c-6.557 0-11.596-1.766-15.128-5.292-3.698-3.362-5.545-8.153-5.545-14.374v-1.765c.418-3.781 1.3-6.911 2.647-9.39 1.34-2.48 3.232-4.413 5.673-5.8a25.744 25.744 0 017.88-2.899c2.813-.546 6.28-.82 10.4-.82h21.934c0-3.528-.652-6.198-1.952-8.006-1.304-1.806-3.07-2.982-5.298-3.53-2.226-.545-3.888-.816-7.499-.816m85.756 38.793h5.463V81.493l-3.972-.124h-5.997l-8.565.371c-1.985 0-4.342 1.12-7.073 3.352-2.069 2.069-3.433 4.488-4.095 7.258-.664 2.775-.993 6.876-.993 10.434 0 3.474.434 6.35 1.304 8.625.866 2.276 2.56 4.218 5.086 5.832 2.524 1.613 6.929 2.42 13.215 2.42h2.237zm5.463-76.696h17.497v90.595h-34.416c-6.288 0-10.944-.784-13.962-2.357-3.021-1.57-4.963-2.668-5.835-3.29-.866-.62-2.046-1.653-3.537-3.101-1.487-1.448-2.915-3.371-4.28-5.773-1.364-2.396-2.442-5.004-3.227-7.816a31.973 31.973 0 01-1.179-8.689v-2.302c0-9.264 1.964-16.382 5.893-21.345 3.932-4.963 7.986-8.147 12.165-9.558 4.176-1.405 9.16-2.11 14.953-2.11h15.928z" fill="#1d1d1b"/><path d="M419.034 133.56h-17.396V67.122h38.577c6.133 0 11.218.716 15.255 2.143 4.035 1.432 7.143 3.931 9.328 7.5 2.186 3.574 3.276 8.471 3.276 14.687v42.106h-17.773V93.723c0-1.343-.065-2.624-.19-3.844-.126-1.218-.4-2.522-.819-3.91-.424-1.384-1.43-2.414-3.026-3.089-1.596-.671-4.08-1.006-7.439-1.006h-19.793zm88.106-14.964c.647.323 1.472.565 2.48.726a18.52 18.52 0 002.967.242c3.466 0 6.613-1.009 9.437-3.025 2.824-2.016 4.7-4.476 5.627-7.384a28.877 28.877 0 001.393-8.832c0-4.274-.786-8.003-2.36-11.193-1.575-3.188-4.096-5.506-7.564-6.958-2.257-.806-4.315-1.211-6.171-1.211-2.099 0-4.276.446-6.534 1.331-2.178 1.05-3.994 2.379-5.444 3.994-1.454 1.615-2.561 3.59-3.328 5.93-.767 2.34-1.15 5.041-1.15 8.107 0 4.114.866 7.826 2.6 11.132 1.736 3.309 4.418 5.687 8.048 7.141m30.01 5.808c-3.068 2.826-6.213 4.823-9.44 5.99-3.227 1.172-5.93 1.957-8.108 2.36a37.173 37.173 0 01-6.775.607c-4.436 0-8.873-.787-13.31-2.361-4.436-1.575-8.13-3.77-11.073-6.596-2.947-2.824-5.062-5.909-6.35-9.257-1.293-3.345-2.14-6.09-2.543-8.228-.406-2.14-.607-4.419-.607-6.84 0-4.597.627-8.487 1.878-11.677 1.248-3.184 2.42-5.627 3.507-7.32 1.09-1.694 2.786-3.69 5.084-5.991 2.299-2.299 5.565-4.235 9.802-5.81 4.235-1.57 8.773-2.357 13.612-2.357 4.597 0 9.017.746 13.25 2.237 4.237 1.496 7.542 3.39 9.922 5.689 2.38 2.298 4.134 4.317 5.265 6.05 1.129 1.735 2.299 4.156 3.51 7.26 1.208 3.109 1.817 7.08 1.817 11.92 0 4.598-.788 9.016-2.36 13.252-1.577 4.237-3.934 7.927-7.081 11.072m68.017-57.282h17.522v66.437h-38.955c-5.967 0-10.965-.775-15-2.332-4.034-1.553-7.123-4.116-9.266-7.69-2.143-3.571-3.215-8.34-3.215-14.309V67.122h17.397v40.847c0 2.69.335 4.875 1.007 6.555.673 1.682 1.849 2.857 3.532 3.529 1.678.675 3.947 1.01 6.808 1.01h20.17zm76.552 66.438h-46.897v-13.741h38.828c6.22 0 9.33-2.227 9.33-6.682 0-4.286-3.11-6.429-9.33-6.429h-17.143c-2.187 0-3.91-.042-5.17-.126-1.26-.084-3.068-.315-5.421-.695-2.351-.378-4.496-1.216-6.429-2.52-1.932-1.3-3.402-3.235-4.412-5.798-1.006-2.562-1.514-5.652-1.514-9.267 0-14.118 7.816-21.179 23.45-21.179h39.46v13.743h-36.005c-5.327 0-8.285 1.47-8.877 4.412v2.143c0 3.7 2.774 5.547 8.32 5.547h17.9c3.194 0 6.116.358 8.765 1.07 2.647.714 4.978 1.851 6.994 3.402 2.017 1.56 3.593 3.533 4.73 5.927 1.133 2.395 1.701 5.148 1.701 8.256 0 3.783-.55 6.98-1.64 9.583-1.093 2.606-2.144 4.558-3.15 5.862-1.008 1.304-2.567 2.71-4.665 4.222-2.102 1.514-5.043 2.27-8.824 2.27" fill="#009ed4"/></svg>