<svg xmlns="http://www.w3.org/2000/svg" width="1873.06" height="1639.07"><style>.st21,.st23,.st24{stroke-linecap:round;stroke-linejoin:round}.st23{fill:#ffa42c}.st24{fill:#f78d0f}.st21{fill:#2c64ad}.st2{fill:#2d65af}.st16{fill:#aadaff;stroke-linecap:round;stroke-linejoin:round}.st17{fill:#75afe8}.st12,.st14,.st17,.st6{stroke-linecap:round;stroke-linejoin:round}.st14{fill:#dcf600}.st6{fill:#aecff1}.st12{fill:#fff}.st34{fill:#d4ecff}.st13,.st18,.st34,.st35,.st5{stroke-linecap:round;stroke-linejoin:round}.st5{stroke:#aecff1;fill:none;stroke-width:4.84}.st13{fill:#ffc261}.st35{fill:#8282c4}.st18{fill:#ff9725}</style><path d="M653.79 1093.27c104.99-13.12 211.45-18.95 313.53 14.59 55.41 18.96 113.74 4.37 172.08-10.21 14.58-4.38 29.16-4.38 42.29 0 43.74 18.96 88.95 35 137.07 29.17 23.34-2.92 43.75-11.67 68.54-13.13 18.96 0 36.46-10.21 53.96-13.12 11.8-1.91 23.8-3.51 35.84-4.42-277.57-59.32-1030.65-78.85-1243.79-10.87 0 0-38.41 27.67-33.59 59.71 91.77-56.23 211.22-46.72 316.99-53.17 45.2-2.92 93.33 7.29 137.08 1.45" fill="#83b9dd"/><path d="M1580.64 1141.46c-11.82-12.24-41.37-32.03-103.54-45.31-12.04.91-24.04 2.51-35.84 4.42-17.5 2.91-35 13.12-53.96 13.12-24.79 1.46-45.2 10.21-68.54 13.13-48.12 5.83-93.33-10.21-137.07-29.17-13.13-4.38-27.71-4.38-42.29 0-58.34 14.58-116.67 29.17-172.08 10.21-102.08-33.54-208.54-27.71-313.53-14.59-43.75 5.84-91.88-4.37-137.08-1.45-105.77 6.45-225.22-3.06-316.99 53.17 4.76 31.65-20.4 83.1 225.09 60.92 65.99-5.96 189.71 79.28 293.61 49.9 131.6-37.21 295.62-73.23 579.09-33.53 283.48 39.71 326.3-36.12 283.13-80.82" fill="#9cc6f0"/><path class="st2" d="M534.58 1036.44c-11.77 2.99-22.39-6.87-30.32-14.14-7.49-6.86-14.54-14.19-21.15-21.9-13.73-16.04-25.54-33.72-35.3-52.43a291.634 291.634 0 01-14.79-33.34c-.14-.38-.76-.22-.61.17 7.61 20.53 17.5 40.22 29.55 58.51 11.64 17.68 25.28 34.09 40.81 48.49 8.33 7.72 19.51 18.43 31.98 15.25.4-.1.23-.72-.17-.61"/><path class="st2" d="M448.96 980.73c4.59 2.74 9.04 5.7 13.33 8.89 1.13.84 2.25 1.69 3.35 2.55.7.55 1.43 1.27 2.29 1.57.96.32 1.88-.1 2.79-.4 1.4-.45 2.8-.91 4.19-1.36.39-.13.23-.75-.17-.62-1.24.4-2.48.81-3.72 1.21-.58.19-1.19.47-1.79.58-1.05.18-1.61-.24-2.38-.84-1.79-1.37-3.56-2.76-5.38-4.09-3.94-2.86-8.01-5.55-12.19-8.04-.36-.21-.68.34-.32.55m38.34 23.93c-.56-2.43-.3-5.07-.48-7.55a81.345 81.345 0 00-4.42-21.27c-.13-.38-.75-.22-.61.17a82.22 82.22 0 013.64 14.41c.39 2.53.67 5.07.81 7.63.14 2.24-.06 4.58.45 6.78.09.4.71.23.61-.17m-14.38 7.02c4.6.99 9.09 2.44 13.38 4.37 1.83.82 3.71 2.13 5.69 2.54 2.05.42 4.03-.76 6.07-.23.4.1.57-.52.17-.62-2.06-.53-4.02.64-6.07.23-1.21-.24-2.32-.95-3.43-1.49-.97-.47-1.96-.93-2.96-1.36a67.598 67.598 0 00-12.68-4.05c-.4-.09-.57.53-.17.61m38.46 11.73c-2.29-7.94-6.17-15.25-10.08-22.49-.19-.36-.74-.04-.55.32 3.88 7.19 7.74 14.45 10.01 22.34.12.4.73.23.62-.17m-16.57 17.05c3.36.05 6.66.45 9.94 1.13 2.96.62 5.92 1.28 8.95.83.41-.06.23-.67-.17-.61-3.27.48-6.48-.42-9.67-1.05-2.98-.58-6.01-.9-9.05-.94-.41-.01-.41.63 0 .64m-36.73-79.52c.79-.72.81-1.86.85-2.85.06-1.61.05-3.22-.02-4.82a63.48 63.48 0 00-1.17-9.42c-.08-.4-.7-.23-.62.17.57 2.84.95 5.71 1.11 8.6.08 1.39.11 2.79.09 4.19-.01 1.09.2 2.86-.69 3.68-.3.28.15.73.45.45"/><path d="M423.16 850.93c-2.35-3.51-3.8-16.19-8.45-16.79-3.58-.46-4.25 4.27-4.44 7.01-2.59 14.58 20.82 22.43 12.89 9.78" fill="#80dbda"/><path class="st2" d="M874.31 1040.4c10.16.42 19.75-4.09 27.61-10.22 8.43-6.57 15.2-15 21.6-23.5 12.28-16.32 23.49-33.46 33.62-51.21 10.27-18 19.44-36.63 27.49-55.73a544.286 544.286 0 0021.09-59.36 550.704 550.704 0 0014.21-61.89c.44-2.64.87-5.28 1.28-7.93.12-.77-1.07-1.11-1.19-.32a553.408 553.408 0 01-13.13 61.46 545.495 545.495 0 01-19.88 59.06c-7.69 19.13-16.48 37.82-26.37 55.91-9.68 17.71-20.4 34.84-32.18 51.22-6.2 8.62-12.54 17.3-20.04 24.84-7.32 7.36-16.21 13.83-26.58 15.87-2.48.49-5 .67-7.53.56-.79-.03-.79 1.2 0 1.24"/><path class="st2" d="M1014.8 899.46c-7.03 6.39-13.77 13.1-20.18 20.11-3.14 3.42-6.05 7.07-9.21 10.48-.98 1.05-1.92 1.72-3.41 1.72-1.14 0-2.29-.21-3.42-.32-2.65-.26-5.3-.52-7.95-.79-.78-.08-.78 1.16 0 1.24 2.65.26 5.3.52 7.95.79 2.19.21 4.53.8 6.44-.61 1.76-1.29 3.09-3.3 4.51-4.95 1.65-1.9 3.32-3.78 5.01-5.65a312.43 312.43 0 0121.14-21.15c.59-.53-.29-1.4-.88-.87m-61.59 61.19c.08-2.27-.36-4.47-.78-6.68-.42-2.19-.8-4.39-1.12-6.59-.69-4.7-1.14-9.43-1.38-14.17-.46-9.42-.05-18.89 1.24-28.23.11-.78-1.08-1.11-1.19-.33-1.28 9.3-1.74 18.7-1.3 28.08.2 4.53.62 9.06 1.23 13.55.33 2.37.71 4.73 1.15 7.08.45 2.42 1 4.81.91 7.29-.03.79 1.21.79 1.24 0m28.35 6.18c-8.05 3.54-15.73 7.89-22.91 12.96-1.74 1.22-3.44 2.48-5.11 3.78-1.72 1.34-3.39 2.86-5.38 3.79-3.77 1.76-8.15.17-11.9 2.14-.71.37-.08 1.43.62 1.06 3.64-1.9 7.98-.35 11.71-2.05 1.89-.85 3.48-2.23 5.09-3.5 1.83-1.43 3.69-2.82 5.59-4.15 7.19-5.07 14.86-9.42 22.91-12.97.73-.31.1-1.38-.62-1.06m-66.86 38.63c1.19-15.69 5.74-30.82 10.29-45.81.23-.76-.96-1.08-1.19-.32-4.59 15.09-9.13 30.32-10.34 46.13-.06.79 1.17.79 1.24 0m36.77 23.9c-6 1.36-11.83 3.28-17.48 5.7-5.6 2.4-11.24 5.23-17.43 5.6-.79.05-.8 1.28 0 1.23 5.96-.35 11.41-2.88 16.81-5.23 5.96-2.59 12.08-4.68 18.43-6.11.77-.18.44-1.37-.33-1.19m39.64-163.34c-1.95-1.08-2.26-4.46-2.71-6.41-.6-2.64-1.1-5.29-1.51-7.97-.84-5.49-1.25-11.05-1.27-16.61-.01-.79-1.24-.79-1.24 0 .03 5.99.51 11.97 1.47 17.89.46 2.9 1.05 5.78 1.75 8.64.48 1.98.94 4.45 2.89 5.53.7.38 1.32-.68.62-1.07"/><path d="M1074.67 703.43c1.77-5.25-.41-22.61 5.08-24.49 4.22-1.45 6.51 4.75 7.59 8.39 7.7 18.97-18.4 34.91-12.67 16.1m28.56 127.87s18.23-48.69 40.35-51.64c22.12-2.95-36.07 76.17-40.35 51.64" fill="#41acab"/><path class="st5" d="M670.21 912.41s2.07-.21 5.76-.75m11.64-2.02c42.19-8.3 146.76-38.98 150.93-139.71 4.56-110.2-94.49-293.14-119.83-338.01m-2.93-5.13c-1.87-3.28-2.91-5.03-2.91-5.03m61.8 634.74s-2.05.16-5.8.36"/><path class="st5" d="M757.41 1057.35c-58.26 1.86-244.96-.6-263.7-107.26-42.46-241.66 64.71-406.54 93.85-446m3.46-4.58c2.32-3.01 3.63-4.55 3.63-4.55"/><path class="st6" d="M1503.05 603.56c-.87 4.83-4.37 12.77-10.24 19.73l-10.19.39c-17.13-2.74-29.02-21.64-29.02-21.64.31 12.03-4.46 19.4-11.05 23.23-7.71 4.51-17.88 4.21-25.28 1-2.09-.9-3.97-2.05-5.49-3.39-1.12 1.36-2.22 2.6-3.3 3.75-16.96 18-29.95 12.26-39.12 1.54-3.52-4.13-6.49-8.98-8.9-13.52-.67 5.67-1.66 10.28-2.89 13.98-7.76 23.68-24.89 11.1-31.86 7.18-8.95 46.95-64.73 15.71-51.64-3.88 1.37-2.05 3.49-3.98 6.5-5.66-6.56 3.24-13.72 5.23-21.13 6.24l-17.75.7c-21.45-1.07-42.01-8.45-52.02-16.04 2.39 5.17 6.16 11.93 21.17 17.26 4 1.43 8.81 2.74 14.61 3.9-52.15 37.88-77.88 20.98-100.1-.52-2.91-2.82-5.75-5.7-8.58-8.56-2.54 3.52-5.2 6.58-7.95 9.21-33.14 31.7-79.39 3.13-79.39 3.13-12.38-10.84-17.86-21.82-17.48-32 1.72-1.14 75.62-49.6 149.41-27.19.6-13.09 30.83-41.84 75.17-20.67l14.6 1.02s-51.11-37.79-43.82-52.9c22.16 9.57 98.75 13.6 113.35-27.21 14.62 16.63 38.8 17.14 46.36 9.08 15.61 19.65 22.66 33.23 10.58 38.28 7.05 5.55 19.43 9.51 11.4 18.4l-.01.01c-8.37 8.05-23.13 13.98-34.91 17.11-9.76 1.38-15.78 2.49-15.78 2.49 3.04.21 8.91-.67 15.78-2.49 43.09-6.11 158.96-17.54 148.97 38.04"/><path class="st6" d="M1259.44 632.5c-5.85.81-11.84.99-17.75.71zm233.37-9.21c-3.55.86-6.97.92-10.19.39zm-154.51-55.28s6.02-1.11 15.78-2.49c-6.87 1.82-12.74 2.7-15.78 2.49"/><path d="M684.66 1167.35s122.35 6.54 203.02-36.7c80.68-43.25 157.09-69.24 122-75.48-35.09-6.24-49.71-15.81-56.56-5.83-6.85 9.99-268.46 118.01-268.46 118.01" fill="#1d3a6b" stroke-linecap="round" stroke-linejoin="round"/><path d="M884.2 1053.9c7.29-8.75 18.95-14.58 27.7-23.33 10.21-11.67 17.5-24.79 20.42-40.83 4.23-42.29 9.13-83.89 12.91-125.3-6.04-45.61-12.31-80-12.31-80l-166.95-58.42s-110.86 415.13-96.58 438.78c6.53 10.82 64.51-6.32 125.44-28.09 34.49-20.48 62.92-49.16 89.37-82.81" fill="#444496" stroke-linecap="round" stroke-linejoin="round"/><path d="M945.23 864.44c-3.78 41.41-8.68 83.01-12.91 125.3-2.92 16.04-10.21 29.16-20.42 40.83-8.75 8.75-20.41 14.58-27.7 23.33-26.45 33.65-54.88 62.33-89.37 82.81 72.16-25.78 148.47-58.04 148.47-58.04 21.42-30.87 12-138.15 1.93-214.23" fill="#303072" stroke-linecap="round" stroke-linejoin="round"/><path d="M518.57 745.64c-.42 4.52 6.05 402.06 71.04 412.64 46.22 7.52 83.3 18.47 95.06 9.07 11.75-9.41 94.04-420.24 86.65-437.33-7.39-17.08-246.87-47.36-252.75 15.62" fill="#8383d6" stroke-linecap="round" stroke-linejoin="round"/><path d="M526.44 757.43c-.4 4.26 5.78 379.71 67.86 389.7 44.14 7.11 75.39 11.01 86.62 2.12 11.23-8.88 90.87-369.51 76.06-403.87-6.98-16.17-224.92-47.43-230.54 12.05" fill="#9696ea" stroke-linecap="round" stroke-linejoin="round"/><path class="st12" d="M553.39 775.33c-2.92 1.28-7 11.89 8.74 10.49 15.74-1.4 13.52-2.68 13.99-5.19.47-2.5 3.38-6-2.56-6.82-5.95-.81-17.26.24-20.17 1.52m.02 32.93c-2.4 1.06-5.77 9.81 7.21 8.65 12.98-1.15 11.15-2.21 11.54-4.28.38-2.06 2.79-4.95-2.12-5.62-4.9-.67-14.23.19-16.63 1.25m-.39 34.84c-1.99.88-4.77 8.12 5.97 7.17 10.75-.96 9.23-1.84 9.55-3.55.32-1.71 2.31-4.09-1.75-4.65-4.06-.56-11.78.16-13.77 1.03m0 34.97c-1.99.87-4.77 8.11 5.97 7.16 10.75-.96 9.23-1.83 9.55-3.54.32-1.71 2.31-4.1-1.75-4.66-4.06-.56-11.78.16-13.77 1.04"/><path class="st5" d="M928.01 1050.96s1.99.48 5.67 1.31m11.35 2.44c63.14 13.04 282.81 50.62 329.28-46.83 47.51-99.62 28.2-306.96 22.52-358.01m-.65-5.77c-.44-3.76-.71-5.77-.71-5.77M956.23 990.77s1.99.62 5.6 1.57"/><path class="st5" d="M973.01 994.98c41.82 8.94 150.48 22.09 193.98-69.14 47.28-99.15 31.99-292.31 27.17-341.27m-.58-5.71c-.4-3.76-.64-5.78-.64-5.78"/><path class="st13" d="M609.59 784.02c0 3.1-2.51 5.62-5.62 5.62-3.11 0-5.63-2.52-5.63-5.62a5.63 5.63 0 015.63-5.63 5.62 5.62 0 015.62 5.63m29.73.67c0 2.73-1.39 4.95-3.11 4.95-1.71 0-3.1-2.22-3.1-4.95 0-2.74 1.39-4.95 3.1-4.95 1.72 0 3.11 2.21 3.11 4.95"/><path class="st14" d="M671.4 787.04c0 2.55-2.07 4.62-4.62 4.62-2.55 0-4.62-2.07-4.62-4.62 0-2.55 2.07-4.62 4.62-4.62 2.55 0 4.62 2.07 4.62 4.62"/><path class="st13" d="M702.55 792.71a3.06 3.06 0 01-3.06 3.06c-1.7 0-3.07-1.37-3.07-3.06a3.07 3.07 0 013.07-3.07c1.69 0 3.06 1.38 3.06 3.07m24.44 1.72c0 2.64-1.21 4.79-2.69 4.79s-2.69-2.15-2.69-4.79 1.21-4.79 2.69-4.79 2.69 2.15 2.69 4.79m-122.77 20.15a5.63 5.63 0 01-5.63 5.63 5.625 5.625 0 115.63-5.63"/><path class="st14" d="M633.95 815.26c0 2.73-1.39 4.95-3.11 4.95s-3.11-2.22-3.11-4.95c0-2.74 1.39-4.96 3.11-4.96s3.11 2.22 3.11 4.96m32.07 2.34a4.61 4.61 0 01-4.62 4.62c-2.55 0-4.61-2.06-4.61-4.62 0-2.55 2.06-4.61 4.61-4.61 2.56 0 4.62 2.06 4.62 4.61"/><path class="st13" d="M697.18 823.27c0 1.7-1.38 3.07-3.07 3.07s-3.06-1.37-3.06-3.07a3.06 3.06 0 013.06-3.06c1.69 0 3.07 1.37 3.07 3.06m24.43 1.72c0 2.65-1.2 4.79-2.68 4.79-1.49 0-2.69-2.14-2.69-4.79 0-2.64 1.2-4.78 2.69-4.78 1.48 0 2.68 2.14 2.68 4.78"/><path class="st14" d="M601.53 847.5c0 3.11-2.52 5.63-5.62 5.63a5.63 5.63 0 01-5.63-5.63 5.63 5.63 0 015.63-5.63c3.1 0 5.62 2.52 5.62 5.63"/><path class="st13" d="M631.26 848.17c0 2.74-1.39 4.96-3.11 4.96-1.71 0-3.1-2.22-3.1-4.96 0-2.73 1.39-4.95 3.1-4.95 1.72 0 3.11 2.22 3.11 4.95m32.08 2.35c0 2.55-2.07 4.62-4.62 4.62-2.55 0-4.62-2.07-4.62-4.62 0-2.55 2.07-4.62 4.62-4.62 2.55 0 4.62 2.07 4.62 4.62m31.15 5.67c0 1.69-1.37 3.06-3.07 3.06a3.06 3.06 0 110-6.12c1.7 0 3.07 1.37 3.07 3.06m24.44 1.72c0 2.65-1.21 4.79-2.69 4.79-1.49 0-2.69-2.14-2.69-4.79 0-2.64 1.2-4.78 2.69-4.78 1.48 0 2.69 2.14 2.69 4.78"/><path class="st14" d="M601.03 879.49a5.63 5.63 0 01-5.63 5.63 5.625 5.625 0 115.63-5.63"/><path class="st13" d="M630.76 880.17c0 2.73-1.4 4.95-3.11 4.95-1.72 0-3.11-2.22-3.11-4.95 0-2.74 1.39-4.96 3.11-4.96 1.71 0 3.11 2.22 3.11 4.96"/><path class="st14" d="M662.83 882.52c0 2.55-2.07 4.62-4.62 4.62-2.55 0-4.61-2.07-4.61-4.62 0-2.55 2.06-4.62 4.61-4.62 2.55 0 4.62 2.07 4.62 4.62"/><path class="st13" d="M693.99 888.18c0 1.7-1.38 3.07-3.07 3.07s-3.06-1.37-3.06-3.07a3.06 3.06 0 013.06-3.06c1.69 0 3.07 1.37 3.07 3.06m24.43 1.73c0 2.64-1.2 4.78-2.69 4.78-1.48 0-2.68-2.14-2.68-4.78 0-2.65 1.2-4.79 2.68-4.79 1.49 0 2.69 2.14 2.69 4.79"/><path class="st12" d="M554.75 909.23c-1.86.82-4.47 7.6 5.58 6.7 10.06-.89 8.64-1.71 8.94-3.31.3-1.6 2.16-3.84-1.64-4.36-3.8-.52-11.02.15-12.88.97"/><path class="st14" d="M599.67 910.57c0 2.9-2.36 5.26-5.26 5.26-2.91 0-5.27-2.36-5.27-5.26a5.27 5.27 0 015.27-5.27c2.9 0 5.26 2.36 5.26 5.27"/><path class="st13" d="M627.49 911.2c0 2.56-1.31 4.63-2.91 4.63-1.61 0-2.91-2.07-2.91-4.63s1.3-4.64 2.91-4.64c1.6 0 2.91 2.08 2.91 4.64"/><path class="st14" d="M657.5 913.39c0 2.39-1.93 4.33-4.32 4.33-2.39 0-4.32-1.94-4.32-4.33a4.321 4.321 0 018.64 0"/><path class="st13" d="M686.65 918.7c0 1.58-1.28 2.87-2.86 2.87a2.87 2.87 0 010-5.74c1.58 0 2.86 1.29 2.86 2.87m22.87 1.61c0 2.47-1.13 4.48-2.52 4.48-1.38 0-2.51-2.01-2.51-4.48 0-2.47 1.13-4.48 2.51-4.48 1.39 0 2.52 2.01 2.52 4.48"/><path class="st12" d="M558.44 945.46c-1.77.77-4.23 7.18 5.28 6.34 9.52-.85 8.18-1.62 8.46-3.14.28-1.51 2.04-3.63-1.55-4.12-3.6-.49-10.43.14-12.19.92"/><path class="st14" d="M600.95 946.72c0 2.75-2.23 4.98-4.99 4.98a4.98 4.98 0 010-9.96c2.76 0 4.99 2.23 4.99 4.98"/><path class="st13" d="M627.27 947.32c0 2.42-1.23 4.38-2.75 4.38s-2.75-1.96-2.75-4.38c0-2.43 1.23-4.39 2.75-4.39s2.75 1.96 2.75 4.39"/><path class="st14" d="M655.67 949.4c0 2.26-1.83 4.09-4.09 4.09s-4.09-1.83-4.09-4.09 1.83-4.09 4.09-4.09 4.09 1.83 4.09 4.09"/><path class="st13" d="M683.26 954.42c0 1.5-1.21 2.71-2.71 2.71s-2.72-1.21-2.72-2.71 1.22-2.72 2.72-2.72c1.5 0 2.71 1.22 2.71 2.72m21.64 1.52c0 2.34-1.07 4.24-2.38 4.24-1.32 0-2.38-1.9-2.38-4.24 0-2.34 1.06-4.24 2.38-4.24 1.31 0 2.38 1.9 2.38 4.24"/><path d="M1116.62 954.64s-4.32 10.18 3.02 8.55c7.34-1.64 30.23-5.83 30.23-5.83s-15.98 27.02-7.34 26.83c8.63-.18 13.67-31.99 13.39-35.16-.29-3.17-38.31 2.39-39.3 5.61m48.95-130.98s1.92 11.6 7.59 5.95c5.67-5.65 23.85-22.47 23.85-22.47s1.04 33.4 8.7 28.31c7.66-5.09-5.95-36.56-8.01-39.24-2.07-2.69-33.07 23.98-32.13 27.45M838.82 677.87s-3.96 8.87-7.61 2.04c-3.65-6.82-15.63-27.64-15.63-27.64s-7.62 27.21-13.07 20.09c-5.45-7.12 12.4-27.95 14.69-29.39 2.29-1.43 23.12 32.4 21.62 34.9m-278.91-71.31s-8.91 6.7-8.79-2.19c.12-8.88-.35-36.45-.35-36.45s-22.76 23.11-24.29 12.93c-1.52-10.18 27.99-21.2 31.08-21.37 3.1-.17 5.24 45.39 2.35 47.08m-40.95 55.52s-3.14 3.06-3.07-1.72c.06-4.78-3.71-14.99-3.71-14.99s-12.25 12.44-13.06 6.96c-.82-5.47 15.05-11.4 16.71-11.5 1.67-.09 4.69 20.34 3.13 21.25m763.67 222.27s2.76 10.43 6.55 6.07c3.79-4.35 16.09-17.18 16.09-17.18s4.46 29.53 9.86 25.89c5.4-3.64-8.63-32.85-10.53-35.44-1.9-2.59-23.08 17.5-21.97 20.66m4.03-169.48s2.36 8.93 5.6 5.2c3.24-3.73 13.76-14.69 13.76-14.69s3.82 25.26 8.43 22.14c4.62-3.12-7.37-28.1-9-30.31-1.63-2.22-19.75 14.96-18.79 17.66" fill="#22559f" stroke-linecap="round" stroke-linejoin="round"/><path class="st13" d="M1316.89 114.68c-1.23 3.01-11.45 3.62-14.36 0s-3.33-21.79 0-27.57c3.33-5.77 13.26-5.2 13.81-2.6.55 2.6 1.77 27.15.55 30.17m25.07 0c-1.89 3.19-13.57 2.51-14.35 0-.79-2.51-1.78-61.03 0-64.56 1.77-3.53 14.35-5.73 14.35 0s1.9 61.37 0 64.56m23.44 0c-1.44 3.81-11.42 5-14.36 0-2.95-5.01-2.22-73.14 0-78.1 2.22-4.96 12.05-7.34 14.36 0 2.3 7.33 1.44 74.29 0 78.1m23.43 0c-.99 4.8-12.62 5.36-14.36 0-1.74-5.36-3.92-106.56 0-111.65 3.92-5.09 10.94-3.03 15.72.83 4.77 3.87-.37 106.02-1.36 110.82"/><path class="st16" d="M1018.35 570.56c-53.4 0-78.73-40.93-78.73-91.25 0-50.31 25.33-91.25 78.73-91.25 53.4 0 86.83 40.94 86.83 91.25 0 50.32-33.43 91.25-86.83 91.25m0-206.39c-67.39 0-122.21 51.65-122.21 115.14s54.82 122.43 122.21 122.43c67.39 0 122.21-58.94 122.21-122.43 0-63.49-54.82-115.14-122.21-115.14"/><path class="st17" d="M1018.35 545.86c-36.76 0-66.55-29.79-66.55-66.55 0-36.75 29.79-71.23 66.55-71.23 36.75 0 66.55 34.48 66.55 71.23 0 36.76-29.8 66.55-66.55 66.55m0-157.8c-50.31 0-91.25 40.94-91.25 91.25 0 50.32 40.94 91.25 91.25 91.25s91.25-40.93 91.25-91.25c0-50.31-40.94-91.25-91.25-91.25"/><path class="st16" d="M1018.35 521.21c-23.14 0-41.9-18.76-41.9-41.9 0-23.14 18.76-41.9 41.9-41.9 23.14 0 41.9 18.76 41.9 41.9 0 23.14-18.76 41.9-41.9 41.9m0-113.13c-36.76 0-66.55 34.48-66.55 71.23 0 36.76 29.79 66.55 66.55 66.55 36.75 0 66.55-29.79 66.55-66.55 0-36.75-29.8-71.23-66.55-71.23"/><path class="st17" d="M1018.35 437.41c-23.14 0-41.9 18.76-41.9 41.9 0 23.14 18.76 41.9 41.9 41.9 23.14 0 47.02-18.76 47.02-41.9 0-23.14-23.88-41.9-47.02-41.9"/><path class="st18" d="M1018.35 458.42c-11.54 0-25.02 9.35-25.02 20.89 0 11.54 13.48 20.89 25.02 20.89s26.17-9.35 26.17-20.89c0-11.54-14.63-20.89-26.17-20.89"/><path d="M1572.1 301.14c-1.29.99-2.59 1.97-3.89 2.94 1.3-.98 2.6-1.96 3.89-2.94z" fill="#5851bc" stroke-linecap="round" stroke-linejoin="round"/><path class="st17" d="M1572.6 338.33c-11.77 22.23-43.75 25.86-60.34 7.28-28.42-29.75 5.55-71.74 41.62-61.84 1.74 6.9-20.42 42.29-17.75 44.18 2.68 1.89 34.37-26.88 38.57-23.17 4.2 3.71 4.56 21.52-2.1 33.55"/><path class="st18" d="M1598.99 276.53c.58 5.45-37.4 28.6-56.35 42.58 11.08-21.19 28.41-61.53 33.44-63.44 5.03-1.9 22.32 15.42 22.91 20.86"/><path class="st17" d="M873.52 204a7.503 7.503 0 01-7.96-7l-1.08-16.75a7.492 7.492 0 016.99-7.97c4.13-.26 7.7 2.87 7.96 7l1.09 16.75c.27 4.13-2.87 7.7-7 7.97m46.58-27.25v.09a.929.929 0 01-.13-.04c.04-.02.09-.04.13-.05m1.13 17.48l.01.11c-.06-.02-.11-.03-.16-.04.05-.02.1-.04.15-.07"/><path class="st17" d="M920.1 176.75c-.04.01-.09.03-.13.05.05.02.09.03.13.04 1.38.45 2.42 1.69 2.51 3.23l.2 2.99a3.63 3.63 0 01-1.63 3.27c-.15-.07-.31-.14-.47-.19l.03.44c.15-.07.3-.15.44-.25a3.65 3.65 0 012.04 3.04l.08 1.34c.1 1.53-.76 2.9-2.07 3.52-.05.03-.1.05-.15.07.05.01.1.02.16.04 1.36.35 2.4 1.55 2.49 3.03.06.93-.26 1.79-.83 2.44-.56.65-1.38 1.08-2.31 1.14l-27.33 1.77c-3.17.2-5.9-2.2-6.1-5.36-.21-3.19-.42-6.39-.62-9.58l-.48-7.38c-.2-3.08-.52-6.15-.54-9.23-.01-2.26.54-3.85 1.76-5.72.83-1.07 1.85-2.16 2.33-3.44.16-.45.38-.97.42-1.45.05-.68-.13-1.46-.16-2.15-.08-1.45-.09-2.9-.02-4.35.02-.55.06-1.1.24-1.62.62-1.8 2.63-1.77 4.19-1.43 1.27.29 2.49.9 3.46 1.76 2.49 2.22 3.04 5.82 2.3 8.93-.45 1.93-1.44 3.39-2.38 5.08-.07.12-.51 1.41-.54 1.41l20.99-1.35a3.638 3.638 0 013.87 3.39l.19 2.99c.1 1.54-.76 2.91-2.07 3.53"/><path class="st17" d="M921.18 186.33c-.14.1-.29.18-.44.25l-.03-.44c.16.05.32.12.47.19"/><path class="st17" d="M921.18 186.33c-.14.1-.29.18-.44.25l-.03-.44c.16.05.32.12.47.19"/><path class="st21" d="M1450.73 560.43c3.1 3.86 7.33 5.57 13.03 2.12 11.16-6.75 40.77-20.07 45.06-28.76.63-1.26.84-2.54.74-3.79-18.08 13.33-36.7 26.51-58.83 30.43"/><path d="M1509.56 530c-.62-7.38-12.71-13.81-23.22-9.93-12.89 4.75-21.01 7.43-24.86 8.64-4.73 5.75-10.31 10.63-18.33 10.2.83 5.33 2.97 15.79 7.58 21.52 22.13-3.92 40.75-17.1 58.83-30.43" fill="#102538" stroke-linecap="round" stroke-linejoin="round"/><path class="st12" d="M1453.61 545.35s1.33 8.34 3.94 9.16l5.47-1.61-4.09-9.08z"/><path class="st23" d="M1175.85 269.34c36.49 17.1 70.3-5.91 88.19-36.97-.82-1.62-2.53-4.93-5.86-11.33-3.46 3.43-44.83 48.48-67 44.45-11.93-2.17-32.88-26.5-47.93-37.24 10.64 13.6 15.43 32.51 32.6 41.09"/><path class="st24" d="M1175.85 269.34c-17.17-8.58-21.96-27.49-32.6-41.09-5.83-4.16-21.21-12.25-27.42-11.98-38.84 1.67-5.16 41.74 9.37 58.07 72.78 68.99 139.54-40.59 139.54-40.59s-.17-.35-.7-1.38c-17.89 31.06-51.7 54.07-88.19 36.97"/><path d="M1248.77 387.46c34.78-24.84 71.45-40.74 109.72-48.51-4.45-3.78-9.05-7.29-13.81-10.45-27.9-18.56-91.13 38.79-108.78 55.71 2.01 7.47 10.08 6.04 12.87 3.25" fill="#4b4be2" stroke-linecap="round" stroke-linejoin="round"/><path d="M1358.49 338.95c-38.27 7.77-74.94 23.67-109.72 48.51-2.79 2.79-10.86 4.22-12.87-3.25-2.97 2.84-4.65 4.55-4.65 4.55-22.64-57.09-49.74-18.09-90.37-2.71-3.41 17.98 44.76 170.23 206.49 15.48 49.31 74.79 95.13 124.54 95.13 124.54l16.38-4.97s-32.06-124.13-100.39-182.15" fill="#0d0d6d" stroke-linecap="round" stroke-linejoin="round"/><path class="st21" d="M1416.99 561.35c.55 4.92 3.19 8.63 9.85 8.79 13.04.29 45.18 4.96 53.46-.07a7.19 7.19 0 002.66-2.8c-22.41 1.54-45.2 2.65-65.97-5.92"/><path d="M1482.96 567.27c3.44-6.55-3.32-18.47-14.26-20.85-13.43-2.91-21.71-5.01-25.61-6.05-7.08 2.31-14.4 3.42-20.94-1.24-2.16 4.94-5.97 14.91-5.16 22.22 20.77 8.57 43.56 7.46 65.97 5.92" fill="#304c6a" stroke-linecap="round" stroke-linejoin="round"/><path class="st12" d="M1427.52 550.17s-3.36 7.76-1.6 9.85l5.48 1.58 1.43-9.86z"/><path d="M1404.74 353.83c-53.54-39.22-155.54 38.29-155.54 38.29-21.64-54.58-77.88-16.25-118.3.67 3.44 29.81 18.05 59.07 47.87 67.59 26.25 7.29 52.5 11.66 75.83 2.91 46.66-14.58 81.66-52.49 122.5-78.74-1.46 18.96 2.91 36.45 7.29 55.41 5.83 26.23 19.41 50.52 26.55 75.89 6.17 9.87 10.49 16 10.49 16l21.7-2.18s2.65-146.95-38.39-175.84" fill="#6359f5" stroke-linecap="round" stroke-linejoin="round"/><path d="M1377.1 384.55c-40.84 26.25-75.84 64.16-122.5 78.75-23.33 8.75-49.58 4.37-75.83-2.92-29.82-8.52-44.43-37.78-47.87-67.59-1.86.78-3.69 1.51-5.47 2.19-3.39 17.9 29.48 204.05 245.02-1.51-10.84 33.76 22.61 93.79 40.49 122.38-7.14-25.36-20.72-49.66-26.55-75.89-4.38-18.95-8.75-36.45-7.29-55.41" fill="#252599" stroke-linecap="round" stroke-linejoin="round"/><path d="M1082.34 228.39c-29.78 23.97-16.45 88.95 14.59 145.84l37.73 69.44s5.62-11.05 14.83-12.77c4.14-.77 13.77-7.75 23.69-15.64-2.91-2.13-5.9-4.13-8.99-5.92-60.94-35.43-83.31-114.93-81.85-180.95" fill="#ef5a07" stroke-linecap="round" stroke-linejoin="round"/><path d="M1244.3 373.7s20.54-11.71-11.93-40.77c-32.47-29.06-94.3-120.85-129.45-119.61-8.35 1.36-15.3 6.73-20.58 15.07-1.46 66.02 20.91 145.52 81.85 180.95 3.09 1.79 6.08 3.79 8.99 5.92 12.17-9.68 24.78-20.72 28.21-23.36 6.23-4.8 42.05-9.3 42.91-18.2" fill="#ff7116" stroke-linecap="round" stroke-linejoin="round"/><path d="M1206.54 207.3c4.03-2.77 39.56-6.55 40.57-7.05 1-.51 18.89-25.7 21.16-24.44 2.26 1.26 3.52 67.28 5.03 71.01 1.52 3.73-8.06 24.44-15.61 25.98-7.56 1.54-29.33 2.09-30.23-3.11-.91-5.2-24.95-59.62-20.92-62.39" fill="#342051" stroke-linecap="round" stroke-linejoin="round"/><path class="st23" d="M1114.6 333.51c49.43 21.84 80.73-23.36 108.2-64.19-4.03-4.01-13.48-9.84-13.48-9.84-8.61 18.33-29.35 35.42-50.26 46.91-20.91 11.48-30.57-11.75-35.23-21.36-4.66-9.62-15.43-29.81-17.08-37.86-1.65-8.05-18.09-21.96-34.48-1.23-1.61 2.04-2.88 4.74-3.8 7.93 2.73 32.33 16.41 68.01 46.13 79.64"/><path class="st24" d="M1222.8 269.32c-27.47 40.83-58.77 86.03-108.2 64.19-29.72-11.63-43.4-47.31-46.13-79.64-8.47 29.21 12.1 100.07 64.54 92.48 58.18-8.4 92.1-71.24 91.55-74.52-.11-.65-.77-1.53-1.76-2.51"/><path d="M1099.14 171.74s14.87 1.88 16.51-5.8c1.64-7.68-5.91-11.03-14.05-10.69-5.48.23-35.72 3.87-28.19 36.53 3.42 9.13 12.63 6.88 14.27.89 6.41.3 2.08-7.06-.39-10.4 3.99 1.01 6.7-6.23 4.76-9.47 4.67 1.34 8.46 1.58 7.09-1.06m16.18 16.41s-8.44-3.18-11.29 3.19c-2.84 6.38-2.47 5.27-7.19 4.65-4.72-.62-2.75 8.71 3.88 8.5 6.63-.2 12.97.89 13.25-5.78.28-6.67 1.75-5.31 3.26-6.01 1.51-.7-.73-4.2-1.91-4.55" fill="#1b2c49" stroke-linecap="round" stroke-linejoin="round"/><path class="st23" d="M1118.06 233.25c1.6 0 1.61-2.5 0-2.5s-1.62 2.5 0 2.5m6.41 7.45c1.6 0 1.61-2.5 0-2.5s-1.62 2.5 0 2.5m6.23 9.88c1.61 0 1.61-2.5 0-2.5s-1.61 2.5 0 2.5"/><path class="st34" d="M1340.07 455.12c-.51-.1-2.72-3.18-6.31-6.34-2.12-3.86-8.04-7.57-19.83-6.92-10.85.6-15.21 6.41-16.96 11.22-.58.64-1.17 1.3-1.77 2-4.64 1.27-9.48 2.82-14.39 4.56-34.88-1.6-63.53 22.03-71.36 29.2-2.85.82-5.02 1.15-6.31.83-11.21-2.8-38.83-2.49-30.43 21.36 9.34 23.57 60.11 41.53 60.11 41.53-27.95-1.08-75.22-30.45-79.59 14.3-82.56-12.62-140.12 11.15-141.28 42.73 1.72-1.14 75.62-49.6 149.41-27.19.6-13.09 30.83-41.84 75.17-20.67l14.6 1.02s-51.11-37.79-43.82-52.9c22.16 9.57 98.75 13.6 113.35-27.21 14.62 16.63 38.8 17.14 46.36 9.08 15.61 19.65 22.66 33.23 10.58 38.28 7.05 5.55 19.43 9.51 11.4 18.4 5.52-5.29 8.26-11.49 5.56-18.4 24.26-18.14 35.49-57.73-54.49-74.88"/><path class="st12" d="M506.54 164.86l-2.12.07c-.71-1.79-1-2.93-1.04-3.16.23.2 1.3 1.37 3.16 3.09"/><path class="st12" d="M506.54 164.86l-2.12.07c-.71-1.79-1-2.93-1.04-3.16.23.2 1.3 1.37 3.16 3.09"/><path class="st34" d="M896.14 346.48c-15.23.93-37.25 2.95-49.57 5.17 0-2.15-.39-4.15-1.11-6.05-8.89-23.5-69.41-28.34-94.12-23.55 3.53-20.52-19.14-32.38-33.76-20.79-33.75-46.86-93.21-13.09-101.77 13.23-95-22.6-145.08 1.87-164.59 28.13-6.04 8.14-9.15 16.45-9.74 23.59-4.14-5.13-19.22-10.94-33.7-15.59 14.32.33 26.05 3.51 26.05 3.51-1.48-4.1-2.39-7.98-2.75-11.65-6.27-61.42 136.5-64.53 172.59-49.21-2.9-49.84 98.56-59.69 124.64-28.99 24.37-20.85 42.32 9.28 34.22 46.39 0 0 63.77-21.47 86.96 33.05 18.17-1.61 32.94-.62 44.71 2.25.65.16 1.3.33 1.94.51"/><path class="st35" d="M917.64 427.48c-10.93 11.62-26.51 18.61-43.23 15.2 0 54.32-33.61 43.65-67.83 43.65-32.46 80.57-116.52 43.46-142.02 10.96-23.19 46.36-94.5 24.99-126.96-14.44-81.75 49.87-103.77-45.22-103.77-45.22s-51.1 13.76-70.1-16.33c19.48 15.03 49.77 28.79 73.78-3.38 25.5 54.88 54.87 78.85 84.25 26.28-44.05-14.28-56.73-36.46-60.02-44.69l2.11-.07c14.87 13.99 80.03 67.11 155.3 6.12-23.98 51.79-13.14 84.25 28.59 79.6 34.22-3.77 43.01-56.47 29.67-91.08-2.93-7.58-6.9-14.32-11.91-19.46 19.46 8.4 43.1 15.03 64.74 18.12 18.15 2.64 34.87 2.8 46.48-.55-52.4 37.44-36.43 74.59 8.62 57.41 35.56 15.46 68.77 10.84 73.42-11.58-25.5-27.84-20.88-40.2-20.88-40.2s27.65 40.46 79.76 29.66"/><path d="M917.64 427.49c-52.12 10.8-79.77-29.67-79.77-29.67s-4.62 12.35 20.89 40.2c-4.65 22.42-37.86 27.04-73.41 11.59-45.07 17.17-61.04-19.97-8.63-57.42-11.62 3.35-28.34 3.18-46.49.55-21.62-3.09-45.27-9.72-64.72-18.12 5 5.15 8.97 11.88 11.9 19.45 13.33 34.62 4.55 87.32-29.67 91.09-41.73 4.65-52.57-27.82-28.6-79.6-75.27 61-140.41 7.88-155.28-6.12-1.86-1.72-2.93-2.89-3.16-3.09.03.24.33 1.37 1.04 3.16 3.29 8.23 15.97 30.41 60.01 44.7-29.37 52.57-58.74 28.58-84.24-26.29-24.02 32.17-54.3 18.42-73.77 3.39-3.23-5.05-5.5-11.36-6.52-19.17-.28-2.14-.45-4.42-.52-6.82-1.06-38.47 28.28-45.22 51.08-44.7 14.48 4.65 29.56 10.46 33.7 15.59.59-7.14 3.7-15.45 9.74-23.59 19.51-26.26 69.59-50.73 164.59-28.13 8.56-26.32 68.02-60.09 101.77-13.23 14.62-11.59 37.29.27 33.76 20.79 24.71-4.79 85.23.05 94.12 23.55.72 1.9 1.11 3.9 1.11 6.05 12.32-2.22 34.34-4.24 49.57-5.17 26.13 7.01 36.92 23.62 37.5 41.16.49 14.21-5.75 29.05-16 39.85" fill="#d2e6f9" stroke-linecap="round" stroke-linejoin="round"/><path class="st35" d="M1492.81 623.29c-8.46 10.05-21.84 18.01-39.21 11.36 11.66 24.84-49.3 55.57-86.65 21.23-51.45 49.96-108.75 28.8-135.71.24-45.51 16.77-85.64 30.24-114.47-17.79-29.71 39.97-73.31 15.52-87.34 3.26 0 0 46.25 28.57 79.39-3.13 2.75-2.63 5.41-5.69 7.95-9.21 2.83 2.86 5.67 5.74 8.58 8.56 22.23 21.49 47.95 38.4 100.1.52-5.8-1.16-10.61-2.48-14.61-3.9-15.01-5.33-18.78-12.09-21.17-17.26 10.01 7.59 30.57 14.97 52.02 16.04 5.91.28 11.9.1 17.75-.71 7.41-1 14.57-2.99 21.13-6.23-3.01 1.68-5.13 3.61-6.5 5.65-13.09 19.6 42.69 50.84 51.64 3.89 6.97 3.92 24.1 16.5 31.86-7.18 1.23-3.7 2.22-8.31 2.89-13.98 2.41 4.54 5.38 9.39 8.9 13.51 9.17 10.73 22.16 16.47 39.12-1.54a71.72 71.72 0 003.3-3.74c1.52 1.34 3.4 2.49 5.49 3.39 7.4 3.21 17.57 3.51 25.28-1 6.59-3.83 11.36-11.2 11.05-23.23 0 0 11.89 18.9 29.02 21.64 3.22.53 6.64.47 10.19-.39"/><path class="st6" d="M1259.44 632.5c-5.85.81-11.84.99-17.75.71zm233.37-9.21c-3.55.86-6.97.92-10.19.39z"/><path d="M1245.23 203.69s8.09 66.84 10.27 67.01c2.19.17 5.21.33 4.37-2.69-.84-3.02-7.56-64.66-10.24-65.16-2.69-.5-4.4.84-4.4.84m1.88-3.44s12.42-30.15 15.11-27.46l.67 5.71v1.93z" fill="#d8d5f7" stroke-linecap="round" stroke-linejoin="round"/></svg>